{
.appVersion = "1350";
classes = (
{
automatic = 1;

glyphs = (
{
glyphname = A;
layers = (
{
anchors = (
{
name = bottom;
position = "{311, 0}";
},
{
name = ogonek;
position = "{572, 10}";
},
{
name = top;
position = "{402, 705}";
}
);
background = {
paths = (
{
closed = 1;
nodes = (
"370 705 LINE",
"123 167 LINE SMOOTH",
"109 137 OFFCURVE",
"73 75 OFFCURVE",
"64 61 CURVE",
"1 44 LINE",
"-2 -5 LINE",
"129 0 LINE",
"214 0 LINE",
"226 54 LINE",
"160 64 LINE",
"163 78 OFFCURVE",
"176 122 OFFCURVE",
"183 137 CURVE SMOOTH",
"385 578 LINE"
);
},
{
closed = 1;
nodes = (
"434 286 LINE",
"247 282 LINE SMOOTH",
"247 282 OFFCURVE",
"225 232 OFFCURVE",
"225 232 CURVE",
"438 232 LINE"
);
},
{
closed = 1;
nodes = (
"449 167 LINE SMOOTH",
"455 137 OFFCURVE",
"457 79 OFFCURVE",
"458 64 CURVE",
"385 44 LINE",
"381 -5 LINE",
"381 -5 OFFCURVE",
"498 0 OFFCURVE",
"523 0 CURVE SMOOTH",
"555 0 OFFCURVE",
"621 0 OFFCURVE",
"621 0 CURVE",
"633 54 LINE",
"575 64 LINE",
"570 78 OFFCURVE",
"556 122 OFFCURVE",
"553 137 CURVE SMOOTH",
"430 715 LINE",
"370 705 LINE",
"371 577 LINE"
);
}
);
};
layerId = "08C09966-8326-41C9-AE3D-74AAC6FC1D13";
paths = (
{
closed = 1;
nodes = (
"42 -3 OFFCURVE",
"105 0 OFFCURVE",
"129 0 CURVE SMOOTH",
"214 0 LINE",
"226 54 LINE",
"124 69 LINE",
"156 42 LINE",
"159 67 OFFCURVE",
"174 117 OFFCURVE",
"183 137 CURVE SMOOTH",
"385 578 LINE",
"371 577 LINE",
"449 167 LINE SMOOTH",
"456 130 OFFCURVE",
"458 62 OFFCURVE",
"459 34 CURVE",
"493 74 LINE",
"385 44 LINE",
"381 -5 LINE",
"428 -3 OFFCURVE",
"496 0 OFFCURVE",
"523 0 CURVE SMOOTH",
"621 0 LINE",
"633 54 LINE",
"539 70 LINE",
"583 41 LINE",
"578 54 OFFCURVE",
"557 117 OFFCURVE",
"553 137 CURVE SMOOTH",
"430 715 LINE",
"370 705 LINE",
"123 167 LINE SMOOTH",
"106 129 OFFCURVE",
"63 58 OFFCURVE",
"54 45 CURVE",
"99 70 LINE",
"1 44 LINE",
"-2 -5 LINE"
);
},
{
closed = 1;
nodes = (
"448 232 LINE",
"444 286 LINE",
"233 282 LINE",
"211 232 LINE"
);
}
);
width = 691;
},
{
anchors = (
{
name = bottom;
position = "{317, 0}";
},
{
name = ogonek;
position = "{583, 10}";
},
{
name = top;
position = "{418, 705}";
}
);
annotations = (
{
position = "{385.994, 179.577}";
type = Text;
}
);
background = {
paths = (
{
closed = 1;
nodes = (
"362 705 LINE",
"101 161 LINE SMOOTH",
"90 138 OFFCURVE",
"60 92 OFFCURVE",
"47 73 CURVE",
"4 65 LINE",
"-1 -5 LINE",
"123 0 LINE",
"239 0 LINE",
"254 71 LINE",
"199 77 LINE",
"201 90 OFFCURVE",
"203 103 OFFCURVE",
"208 115 CURVE SMOOTH",
"426 608 LINE"
);
},
{
closed = 1;
nodes = (
"411 263 LINE",
"268 261 LINE",
"233 179 LINE",
"424 179 LINE"
);
},
{
closed = 1;
nodes = (
"422 129 LINE SMOOTH",
"424 112 OFFCURVE",
"421 93 OFFCURVE",
"418 77 CURVE",
"360 66 LINE",
"354 -5 LINE",
"502 0 LINE",
"638 0 LINE",
"652 71 LINE",
"599 76 LINE",
"594 92 OFFCURVE",
"589 111 OFFCURVE",
"586 128 CURVE SMOOTH",
"476 716 LINE",
"362 705 LINE",
"365 590 LINE"
);
}
);
};
layerId = "B953D09C-6DD0-450A-A78C-8C2188DD4016";
paths = (
{
closed = 1;
nodes = (
"41 -3 OFFCURVE",
"103 0 OFFCURVE",
"125 0 CURVE SMOOTH",
"233 0 LINE",
"247 67 LINE",
"133 80 LINE",
"186 35 LINE",
"188 62 OFFCURVE",
"192 97 OFFCURVE",
"202 120 CURVE SMOOTH",
"416 601 LINE",
"367 587 LINE",
"429 139 LINE SMOOTH",
"433 113 OFFCURVE",
"427 61 OFFCURVE",
"425 44 CURVE",
"484 85 LINE",
"367 61 LINE",
"361 -5 LINE",
"410 -3 OFFCURVE",
"478 0 OFFCURVE",
"508 0 CURVE SMOOTH",
"634 0 LINE",
"648 67 LINE",
"537 79 LINE",
"604 45 LINE",
"597 59 OFFCURVE",
"583 103 OFFCURVE",
"578 130 CURVE SMOOTH",
"465 716 LINE",
"364 705 LINE",
"107 162 LINE SMOOTH",
"87 120 OFFCURVE",
"48 66 OFFCURVE",
"38 50 CURVE",
"107 81 LINE",
"3 60 LINE",
"-1 -5 LINE"
);
},
{
closed = 1;
nodes = (
"445 192 LINE",
"435 269 LINE",
"245 266 LINE",
"213 192 LINE"
);
}
);
width = 703;
}
);
leftKerningGroup = A;
rightKerningGroup = A;
unicode = 0041;
subCategory = Uppercase;
},
{
glyphname = AE;
layers = (
{
anchors = (
{
name = bottom;
position = "{577, 0}";
},
{
name = top;
position = "{678, 720}";
}
);
annotations = (
{
position = "{332.966, 232.205}";
type = Text;
}
);
background = {
paths = (
{
closed = 1;
nodes = (
"42 -3 OFFCURVE",
"105 0 OFFCURVE",
"129 0 CURVE SMOOTH",
"214 0 LINE",
"226 54 LINE",
"129 69 LINE",
"159 42 LINE",
"164 67 OFFCURVE",
"182 117 OFFCURVE",
"193 137 CURVE SMOOTH",
"425 578 LINE",
"411 577 LINE",
"461 167 LINE SMOOTH",
"465 130 OFFCURVE",
"462 60 OFFCURVE",
"461 34 CURVE",
"498 74 LINE",
"385 44 LINE",
"381 -5 LINE",
"428 -3 OFFCURVE",
"496 0 OFFCURVE",
"523 0 CURVE SMOOTH",
"621 0 LINE",
"586 41 LINE",
"582 54 OFFCURVE",
"565 117 OFFCURVE",
"563 137 CURVE SMOOTH",
"480 715 LINE",
"419 705 LINE",
"135 167 LINE SMOOTH",
"116 131 OFFCURVE",
"66 56 OFFCURVE",
"57 45 CURVE",
"104 70 LINE",
"1 44 LINE",
"-2 -5 LINE"
);
},
{
closed = 1;
nodes = (
"464 232 LINE",
"464 286 LINE",
"253 282 LINE",
"227 232 LINE"
);
},
{
closed = 1;
nodes = (
"756 649 LINE SMOOTH",
"771 649 OFFCURVE",
"842 644 OFFCURVE",
"861 642 CURVE",
"816 676 LINE",
"830 654 OFFCURVE",
"847 622 OFFCURVE",
"848 610 CURVE SMOOTH",
"849 595 OFFCURVE",
"850 572 OFFCURVE",
"851 556 CURVE",
"908 561 LINE",
"921 692 LINE",
"905 710 LINE",
"868 708 OFFCURVE",
"810 705 OFFCURVE",
"793 705 CURVE SMOOTH",
"464 706 LINE",
"464 650 LINE"
);
},
{
closed = 1;
nodes = (
"669 338 LINE SMOOTH",
"686 338 OFFCURVE",
"744 333 OFFCURVE",
"781 329 CURVE",
"747 368 LINE",
"742 265 LINE",
"790 271 LINE",
"796 327 OFFCURVE",
"807 391 OFFCURVE",
"820 464 CURVE",
"775 469 LINE",
"743 365 LINE",
"790 404 LINE",
"759 400 OFFCURVE",
"707 394 OFFCURVE",
"696 394 CURVE SMOOTH",
"492 394 LINE",
"492 338 LINE"
);
},
{
closed = 1;
nodes = (
"682 57 LINE SMOOTH",
"720 57 OFFCURVE",
"765 65 OFFCURVE",
"783 69 CURVE",
"750 44 LINE",
"766 63 OFFCURVE",
"787 89 OFFCURVE",
"793 103 CURVE SMOOTH",
"800 118 OFFCURVE",
"813 154 OFFCURVE",
"818 170 CURVE",
"871 165 LINE",
"834 14 LINE",
"817 0 LINE",
"780 0 OFFCURVE",
"730 0 OFFCURVE",
"703 0 CURVE SMOOTH",
"492 0 LINE",
"508 57 LINE"
);
}
);
};
layerId = "08C09966-8326-41C9-AE3D-74AAC6FC1D13";
paths = (
{
closed = 1;
nodes = (
"42 -3 OFFCURVE",
"105 0 OFFCURVE",
"129 0 CURVE SMOOTH",
"214 0 LINE",
"226 54 LINE",
"133 69 LINE",
"160 42 LINE",
"167 67 OFFCURVE",
"191 117 OFFCURVE",
"204 137 CURVE SMOOTH",
"482 578 LINE",
"468 577 LINE",
"475 167 LINE SMOOTH",
"476 130 OFFCURVE",
"464 57 OFFCURVE",
"461 34 CURVE",
"502 74 LINE",
"385 44 LINE",
"381 -5 LINE",
"428 -3 OFFCURVE",
"496 0 OFFCURVE",
"523 0 CURVE SMOOTH",
"621 0 LINE",
"587 41 LINE",
"584 54 OFFCURVE",
"575 117 OFFCURVE",
"574 137 CURVE SMOOTH",
"551 705 LINE",
"489 705 LINE",
"149 167 LINE SMOOTH",
"123 126 OFFCURVE",
"69 58 OFFCURVE",
"58 45 CURVE",
"108 70 LINE",
"1 44 LINE",
"-2 -5 LINE"
);
},
{
closed = 1;
nodes = (
"485 232 LINE",
"490 286 LINE",
"279 282 LINE",
"248 232 LINE"
);
},
{
closed = 1;
nodes = (
"703 0 LINE SMOOTH",
"730 0 OFFCURVE",
"780 0 OFFCURVE",
"817 0 CURVE",
"834 14 LINE",
"871 165 LINE",
"818 170 LINE",
"813 154 OFFCURVE",
"800 118 OFFCURVE",
"793 103 CURVE SMOOTH",
"787 89 OFFCURVE",
"766 63 OFFCURVE",
"750 44 CURVE",
"783 69 LINE",
"765 65 OFFCURVE",
"720 57 OFFCURVE",
"682 57 CURVE SMOOTH",
"523 57 LINE",
"523 0 LINE"
);
},
{
closed = 1;
nodes = (
"770 261 LINE",
"776 317 OFFCURVE",
"787 381 OFFCURVE",
"800 454 CURVE",
"755 459 LINE",
"723 355 LINE",
"770 394 LINE",
"739 390 OFFCURVE",
"687 384 OFFCURVE",
"676 384 CURVE SMOOTH",
"503 384 LINE",
"503 328 LINE",
"649 328 LINE SMOOTH",
"666 328 OFFCURVE",
"724 323 OFFCURVE",
"761 319 CURVE",
"727 358 LINE",
"722 255 LINE"
);
},
{
closed = 1;
nodes = (
"878 560 LINE",
"891 691 LINE",
"875 709 LINE",
"838 707 OFFCURVE",
"780 704 OFFCURVE",
"763 704 CURVE SMOOTH",
"503 705 LINE",
"503 649 LINE",
"726 648 LINE SMOOTH",
"741 648 OFFCURVE",
"813 642 OFFCURVE",
"831 641 CURVE",
"786 675 LINE",
"800 653 OFFCURVE",
"817 621 OFFCURVE",
"818 609 CURVE SMOOTH",
"819 600 OFFCURVE",
"820 571 OFFCURVE",
"821 555 CURVE"
);
}
);
width = 927;
},
{
anchors = (
{
name = bottom;
position = "{603, 0}";
},
{
name = top;
position = "{704, 720}";
}
);
annotations = (
{
position = "{813.287, 230.323}";
type = Text;
}
);
background = {
paths = (
{
closed = 1;
nodes = (
"61 -3 OFFCURVE",
"124 0 OFFCURVE",
"148 0 CURVE SMOOTH",
"233 0 LINE",
"245 54 LINE",
"152 69 LINE",
"179 42 LINE",
"186 67 OFFCURVE",
"210 117 OFFCURVE",
"223 137 CURVE SMOOTH",
"501 578 LINE",
"487 577 LINE",
"494 167 LINE SMOOTH",
"495 130 OFFCURVE",
"484 60 OFFCURVE",
"480 34 CURVE",
"521 74 LINE",
"404 44 LINE",
"400 -5 LINE",
"447 -3 OFFCURVE",
"515 0 OFFCURVE",
"542 0 CURVE SMOOTH",
"640 0 LINE",
"606 41 LINE",
"603 54 OFFCURVE",
"594 117 OFFCURVE",
"593 137 CURVE SMOOTH",
"570 705 LINE",
"508 705 LINE",
"168 167 LINE SMOOTH",
"145 131 OFFCURVE",
"87 56 OFFCURVE",
"77 45 CURVE",
"127 70 LINE",
"20 44 LINE",
"17 -5 LINE"
);
},
{
closed = 1;
nodes = (
"504 232 LINE",
"509 286 LINE",
"298 282 LINE",
"267 232 LINE"
);
},
{
closed = 1;
nodes = (
"722 0 LINE SMOOTH",
"749 0 OFFCURVE",
"799 0 OFFCURVE",
"836 0 CURVE",
"853 14 LINE",
"890 165 LINE",
"837 170 LINE",
"832 154 OFFCURVE",
"819 118 OFFCURVE",
"812 103 CURVE SMOOTH",
"806 89 OFFCURVE",
"785 63 OFFCURVE",
"769 44 CURVE",
"802 69 LINE",
"784 65 OFFCURVE",
"739 57 OFFCURVE",
"701 57 CURVE SMOOTH",
"542 57 LINE",
"542 0 LINE"
);
},
{
closed = 1;
nodes = (
"789 261 LINE",
"795 317 OFFCURVE",
"806 381 OFFCURVE",
"819 454 CURVE",
"774 459 LINE",
"742 355 LINE",
"789 394 LINE",
"758 390 OFFCURVE",
"706 384 OFFCURVE",
"695 384 CURVE SMOOTH",
"522 384 LINE",
"522 328 LINE",
"668 328 LINE SMOOTH",
"685 328 OFFCURVE",
"743 323 OFFCURVE",
"780 319 CURVE",
"746 358 LINE",
"741 255 LINE"
);
},
{
closed = 1;
nodes = (
"897 560 LINE",
"910 691 LINE",
"894 709 LINE",
"857 707 OFFCURVE",
"799 704 OFFCURVE",
"782 704 CURVE SMOOTH",
"522 705 LINE",
"522 649 LINE",
"745 648 LINE SMOOTH",
"760 648 OFFCURVE",
"831 643 OFFCURVE",
"850 641 CURVE",
"805 675 LINE",
"819 653 OFFCURVE",
"836 621 OFFCURVE",
"837 609 CURVE SMOOTH",
"838 594 OFFCURVE",
"839 571 OFFCURVE",
"840 555 CURVE"
);
}
);
};
layerId = "B953D09C-6DD0-450A-A78C-8C2188DD4016";
paths = (
{
closed = 1;
nodes = (
"41 -3 OFFCURVE",
"103 0 OFFCURVE",
"125 0 CURVE SMOOTH",
"233 0 LINE",
"247 67 LINE",
"142 80 LINE",
"187 35 LINE",
"193 60 OFFCURVE",
"203 95 OFFCURVE",
"217 120 CURVE SMOOTH",
"508 601 LINE",
"457 587 LINE",
"447 138 LINE SMOOTH",
"446 109 OFFCURVE",
"433 67 OFFCURVE",
"427 44 CURVE",
"493 85 LINE",
"367 61 LINE",
"361 -5 LINE",
"410 -3 OFFCURVE",
"478 0 OFFCURVE",
"508 0 CURVE SMOOTH",
"634 0 LINE",
"606 45 LINE",
"602 57 OFFCURVE",
"596 101 OFFCURVE",
"595 130 CURVE SMOOTH",
"577 705 LINE",
"474 705 LINE",
"128 162 LINE SMOOTH",
"107 129 OFFCURVE",
"55 66 OFFCURVE",
"41 50 CURVE",
"115 81 LINE",
"3 60 LINE",
"-1 -5 LINE"
);
},
{
closed = 1;
nodes = (
"477 192 LINE",
"484 269 LINE",
"279 266 LINE",
"245 192 LINE"
);
},
{
closed = 1;
nodes = (
"727 0 LINE SMOOTH",
"753 0 OFFCURVE",
"801 0 OFFCURVE",
"842 0 CURVE",
"858 14 LINE",
"897 184 LINE",
"833 189 LINE",
"828 172 OFFCURVE",
"817 140 OFFCURVE",
"812 129 CURVE SMOOTH",
"806 114 OFFCURVE",
"783 78 OFFCURVE",
"753 44 CURVE",
"810 93 LINE",
"794 89 OFFCURVE",
"751 80 OFFCURVE",
"709 80 CURVE SMOOTH",
"514 80 LINE",
"514 0 LINE"
);
},
{
closed = 1;
nodes = (
"794 257 LINE",
"800 323 OFFCURVE",
"811 392 OFFCURVE",
"823 463 CURVE",
"766 468 LINE",
"731 346 LINE",
"802 408 LINE",
"770 403 OFFCURVE",
"713 395 OFFCURVE",
"700 395 CURVE SMOOTH",
"502 395 LINE",
"502 319 LINE",
"670 319 LINE SMOOTH",
"689 319 OFFCURVE",
"746 313 OFFCURVE",
"791 308 CURVE",
"735 369 LINE",
"734 251 LINE"
);
},
{
closed = 1;
nodes = (
"899 546 LINE",
"914 692 LINE",
"898 710 LINE",
"859 708 OFFCURVE",
"812 705 OFFCURVE",
"786 705 CURVE SMOOTH",
"487 705 LINE",
"487 630 LINE",
"746 630 LINE SMOOTH",
"777 630 OFFCURVE",
"837 625 OFFCURVE",
"876 622 CURVE",
"807 679 LINE",
"816 652 OFFCURVE",
"830 601 OFFCURVE",
"830 590 CURVE SMOOTH",
"830 575 OFFCURVE",
"831 557 OFFCURVE",
"831 541 CURVE"
);
}
);
width = 949;
}
);
leftKerningGroup = A;
rightKerningGroup = E;
unicode = 00C6;
},
{
glyphname = Aacute;
layers = (
{
anchors = (
{
name = top;
position = "{440, 980}";
}
);
components = (
{
name = A;
}
);
layerId = "08C09966-8326-41C9-AE3D-74AAC6FC1D13";
paths = (
{
closed = 1;
nodes = (
"548 830 LINE",
"527 893 LINE",
"288 779 LINE",
"300 738 LINE"
);
}
);
width = 691;
},
{
anchors = (
{
name = top;
position = "{458, 1000}";
}
);
components = (
{
name = A;
}
);
layerId = "B953D09C-6DD0-450A-A78C-8C2188DD4016";
paths = (
{
closed = 1;
nodes = (
"571 816 LINE",
"548 892 LINE",
"297 789 LINE",
"315 737 LINE"
);
}
);
width = 703;
}
);
leftKerningGroup = A;
rightKerningGroup = A;
unicode = 00C1;
},
{
glyphname = Acircumflex;
layers = (
{
anchors = (
{
name = top;
position = "{439, 980}";
}
);
components = (
{
name = A;
}
);
layerId = "08C09966-8326-41C9-AE3D-74AAC6FC1D13";
paths = (
{
closed = 1;
nodes = (
"463 825 LINE",
"436 864 LINE",
"395 864 LINE",
"242 774 LINE",
"260 738 LINE"
);
},
{
closed = 1;
nodes = (
"589 769 LINE",
"462 864 LINE",
"421 864 LINE",
"382 825 LINE",
"561 733 LINE"
);
}
);
width = 691;
},
{
anchors = (
{
name = top;
position = "{458, 1000}";
}
);
components = (
{
name = A;
}
);
layerId = "B953D09C-6DD0-450A-A78C-8C2188DD4016";
paths = (
{
closed = 1;
nodes = (
"617 772 LINE",
"494 877 LINE",
"431 877 LINE",
"390 826 LINE",
"577 727 LINE"
);
},
{
closed = 1;
nodes = (
"486 826 LINE",
"459 877 LINE",
"396 877 LINE",
"247 782 LINE",
"275 737 LINE"
);
}
);
width = 703;
}
);
leftKerningGroup = A;
rightKerningGroup = A;
unicode = 00C2;
},
{
glyphname = Agrave;
layers = (
{
anchors = (
{
name = top;
position = "{430, 980}";
}
);
components = (
{
name = A;
}
);
layerId = "08C09966-8326-41C9-AE3D-74AAC6FC1D13";
paths = (
{
closed = 1;
nodes = (
"531 779 LINE",
"324 893 LINE",
"285 830 LINE",
"507 738 LINE"
);
}
);
width = 691;
},
{
anchors = (
{
name = top;
position = "{448, 1000}";
}
);
components = (
{
name = A;
}
);
layerId = "B953D09C-6DD0-450A-A78C-8C2188DD4016";
paths = (
{
closed = 1;
nodes = (
"557 789 LINE",
"336 892 LINE",
"291 816 LINE",
"525 737 LINE"
);
}
);
width = 703;
}
);
leftKerningGroup = A;
rightKerningGroup = A;
unicode = 00C0;
},
{
glyphname = Atilde;
layers = (
{
anchors = (
{
name = top;
position = "{438, 980}";
}
);
components = (
{
name = A;
}
);
layerId = "08C09966-8326-41C9-AE3D-74AAC6FC1D13";
paths = (
{
closed = 1;
nodes = (
"284 732 OFFCURVE",
"318 785 OFFCURVE",
"344 785 CURVE SMOOTH",
"384 785 OFFCURVE",
"442 744 OFFCURVE",
"481 744 CURVE SMOOTH",
"521 744 OFFCURVE",
"578 843 OFFCURVE",
"578 843 CURVE",
"546 863 LINE",
"546 863 OFFCURVE",
"512 812 OFFCURVE",
"485 812 CURVE SMOOTH",
"445 812 OFFCURVE",
"387 853 OFFCURVE",
"347 853 CURVE SMOOTH",
"308 853 OFFCURVE",
"252 752 OFFCURVE",
"252 752 CURVE",
"284 732 LINE"
);
}
);
width = 691;
},
{
anchors = (
{
name = top;
position = "{458, 1000}";
}
);
components = (
{
name = A;
}
);
layerId = "B953D09C-6DD0-450A-A78C-8C2188DD4016";
paths = (
{
closed = 1;
nodes = (
"300 732 OFFCURVE",
"332 778 OFFCURVE",
"357 778 CURVE SMOOTH",
"399 778 OFFCURVE",
"460 739 OFFCURVE",
"502 739 CURVE SMOOTH",
"544 739 OFFCURVE",
"602 839 OFFCURVE",
"602 839 CURVE",
"562 864 LINE",
"562 864 OFFCURVE",
"532 822 OFFCURVE",
"507 822 CURVE SMOOTH",
"466 822 OFFCURVE",
"403 861 OFFCURVE",
"361 861 CURVE SMOOTH",
"320 861 OFFCURVE",
"261 757 OFFCURVE",
"261 757 CURVE",
"300 732 LINE"
);
}
);
width = 703;
}
);
leftKerningGroup = A;
rightKerningGroup = A;
unicode = 00C3;
},
{
glyphname = B;
layers = (
{
anchors = (
{
name = bottom;
position = "{269.672, 0}";
},
{
name = top;
position = "{367, 705}";
}
);
background = {
paths = (
{
closed = 1;
nodes = (
"144 0 LINE",
"194 0 OFFCURVE",
"264 -5 OFFCURVE",
"314 -5 CURVE SMOOTH",
"439 -5 OFFCURVE",
"541 79 OFFCURVE",
"541 208 CURVE SMOOTH",
"541 296 OFFCURVE",
"482 350 OFFCURVE",
"396 363 CURVE",
"397 370 LINE",
"490 392 OFFCURVE",
"563 467 OFFCURVE",
"563 566 CURVE SMOOTH",
"563 656 OFFCURVE",
"480 710 OFFCURVE",
"386 710 CURVE SMOOTH",
"346 710 OFFCURVE",
"270 705 OFFCURVE",
"230 705 CURVE",
"196 644 LINE",
"251 649 OFFCURVE",
"319 656 OFFCURVE",
"369 656 CURVE SMOOTH",
"430 656 OFFCURVE",
"469 614 OFFCURVE",
"469 553 CURVE SMOOTH",
"469 451 OFFCURVE",
"393 394 OFFCURVE",
"304 394 CURVE SMOOTH",
"297 394 LINE",
"282 337 LINE",
"293 337 LINE SMOOTH",
"374 337 OFFCURVE",
"440 298 OFFCURVE",
"440 212 CURVE SMOOTH",
"440 111 OFFCURVE",
"373 53 OFFCURVE",
"284 53 CURVE SMOOTH",
"250 53 OFFCURVE",
"218 56 OFFCURVE",
"194 59 CURVE"
);
},
{
closed = 1;
nodes = (
"230 705 LINE",
"210 705 OFFCURVE",
"115 710 OFFCURVE",
"115 710 CURVE",
"102 656 LINE",
"175 644 LINE",
"175 631 OFFCURVE",
"174 583 OFFCURVE",
"172 568 CURVE SMOOTH",
"109 137 LINE SMOOTH",
"107 122 OFFCURVE",
"93 74 OFFCURVE",
"90 61 CURVE",
"11 45 LINE",
"9 -5 LINE",
"9 -5 OFFCURVE",
"119 0 OFFCURVE",
"144 0 CURVE",
"195 57 LINE",
"195 71 OFFCURVE",
"201 137 OFFCURVE",
"205 167 CURVE SMOOTH",
"259 538 LINE SMOOTH",
"263 568 OFFCURVE",
"283 654 OFFCURVE",
"287 668 CURVE"
);
}
);
};
layerId = "08C09966-8326-41C9-AE3D-74AAC6FC1D13";
paths = (
{
closed = 1;
nodes = (
"54 -3 OFFCURVE",
"119 0 OFFCURVE",
"144 0 CURVE SMOOTH",
"194 0 OFFCURVE",
"264 -5 OFFCURVE",
"314 -5 CURVE SMOOTH",
"439 -5 OFFCURVE",
"541 79 OFFCURVE",
"541 208 CURVE SMOOTH",
"541 305 OFFCURVE",
"469 361 OFFCURVE",
"368 366 CURVE",
"391 327 LINE",
"402 406 LINE",
"372 365 LINE",
"477 379 OFFCURVE",
"563 458 OFFCURVE",
"563 566 CURVE SMOOTH",
"563 656 OFFCURVE",
"480 710 OFFCURVE",
"386 710 CURVE SMOOTH",
"346 710 OFFCURVE",
"270 705 OFFCURVE",
"230 705 CURVE SMOOTH",
"212 705 OFFCURVE",
"153 708 OFFCURVE",
"115 710 CURVE",
"102 656 LINE",
"211 638 LINE",
"176 676 LINE",
"175 650 OFFCURVE",
"175 588 OFFCURVE",
"172 568 CURVE SMOOTH",
"109 137 LINE SMOOTH",
"106 117 OFFCURVE",
"88 56 OFFCURVE",
"81 32 CURVE",
"126 68 LINE",
"11 45 LINE",
"9 -5 LINE"
);
},
{
closed = 1;
nodes = (
"193 54 OFFCURVE",
"200 132 OFFCURVE",
"205 167 CURVE SMOOTH",
"259 538 LINE SMOOTH",
"265 577 OFFCURVE",
"282 646 OFFCURVE",
"286 666 CURVE",
"257 650 LINE",
"297 653 OFFCURVE",
"337 656 OFFCURVE",
"369 656 CURVE SMOOTH",
"430 656 OFFCURVE",
"469 614 OFFCURVE",
"469 553 CURVE SMOOTH",
"469 451 OFFCURVE",
"393 394 OFFCURVE",
"304 394 CURVE SMOOTH",
"297 394 LINE",
"282 337 LINE",
"293 337 LINE SMOOTH",
"374 337 OFFCURVE",
"440 298 OFFCURVE",
"440 212 CURVE SMOOTH",
"440 111 OFFCURVE",
"373 53 OFFCURVE",
"284 53 CURVE SMOOTH",
"241 53 OFFCURVE",
"202 58 OFFCURVE",
"177 61 CURVE",
"195 36 LINE"
);
}
);
width = 599;
},
{
anchors = (
{
name = bottom;
position = "{286, 0}";
},
{
name = top;
position = "{385, 705}";
}
);
background = {
paths = (
{
closed = 1;
nodes = (
"199 0 OFFCURVE",
"285 -5 OFFCURVE",
"325 -5 CURVE SMOOTH",
"466 -5 OFFCURVE",
"595 65 OFFCURVE",
"595 214 CURVE SMOOTH",
"595 301 OFFCURVE",
"535 351 OFFCURVE",
"449 364 CURVE",
"450 371 LINE",
"544 393 OFFCURVE",
"617 467 OFFCURVE",
"617 561 CURVE SMOOTH",
"617 657 OFFCURVE",
"526 710 OFFCURVE",
"415 710 CURVE SMOOTH",
"371 710 OFFCURVE",
"276 705 OFFCURVE",
"234 705 CURVE",
"319 625 LINE",
"335 626 OFFCURVE",
"362 628 OFFCURVE",
"379 628 CURVE SMOOTH",
"434 628 OFFCURVE",
"469 591 OFFCURVE",
"469 543 CURVE SMOOTH",
"469 457 OFFCURVE",
"416 407 OFFCURVE",
"347 407 CURVE SMOOTH",
"341 407 LINE",
"322 320 LINE",
"331 320 LINE SMOOTH",
"390 320 OFFCURVE",
"443 296 OFFCURVE",
"443 222 CURVE SMOOTH",
"443 134 OFFCURVE",
"383 77 OFFCURVE",
"301 77 CURVE SMOOTH",
"283 77 OFFCURVE",
"254 79 OFFCURVE",
"236 80 CURVE",
"159 0 LINE"
);
},
{
closed = 1;
nodes = (
"234 705 LINE",
"204 705 OFFCURVE",
"114 710 OFFCURVE",
"114 710 CURVE",
"98 635 LINE",
"159 623 LINE",
"159 608 OFFCURVE",
"158 562 OFFCURVE",
"151 512 CURVE SMOOTH",
"100 163 LINE SMOOTH",
"97 143 OFFCURVE",
"84 92 OFFCURVE",
"79 77 CURVE",
"14 65 LINE",
"9 -5 LINE",
"9 -5 OFFCURVE",
"129 0 OFFCURVE",
"159 0 CURVE",
"246 67 LINE",
"247 82 OFFCURVE",
"252 143 OFFCURVE",
"260 193 CURVE SMOOTH",
"310 542 LINE SMOOTH",
"313 562 OFFCURVE",
"327 618 OFFCURVE",
"331 633 CURVE"
);
}
);
};
layerId = "B953D09C-6DD0-450A-A78C-8C2188DD4016";
paths = (
{
closed = 1;
nodes = (
"59 -3 OFFCURVE",
"127 0 OFFCURVE",
"156 0 CURVE SMOOTH",
"199 0 OFFCURVE",
"281 -5 OFFCURVE",
"323 -5 CURVE SMOOTH",
"460 -5 OFFCURVE",
"583 69 OFFCURVE",
"583 213 CURVE SMOOTH",
"583 313 OFFCURVE",
"503 366 OFFCURVE",
"393 367 CURVE",
"429 308 LINE",
"446 426 LINE",
"398 365 LINE",
"510 373 OFFCURVE",
"605 455 OFFCURVE",
"605 562 CURVE SMOOTH",
"605 657 OFFCURVE",
"515 710 OFFCURVE",
"409 710 CURVE SMOOTH",
"366 710 OFFCURVE",
"276 705 OFFCURVE",
"234 705 CURVE SMOOTH",
"215 705 OFFCURVE",
"155 708 OFFCURVE",
"115 710 CURVE",
"100 640 LINE",
"220 618 LINE",
"164 660 LINE",
"164 644 OFFCURVE",
"165 583 OFFCURVE",
"157 526 CURVE SMOOTH",
"103 156 LINE SMOOTH",
"98 124 OFFCURVE",
"81 66 OFFCURVE",
"73 41 CURVE",
"138 83 LINE",
"14 60 LINE",
"10 -5 LINE"
);
},
{
closed = 1;
nodes = (
"234 65 OFFCURVE",
"240 139 OFFCURVE",
"247 187 CURVE SMOOTH",
"298 541 LINE SMOOTH",
"303 574 OFFCURVE",
"320 636 OFFCURVE",
"326 659 CURVE",
"293 631 LINE",
"306 632 OFFCURVE",
"350 635 OFFCURVE",
"378 635 CURVE SMOOTH",
"434 635 OFFCURVE",
"470 596 OFFCURVE",
"470 546 CURVE SMOOTH",
"470 456 OFFCURVE",
"411 404 OFFCURVE",
"337 404 CURVE SMOOTH",
"331 404 LINE",
"313 324 LINE",
"323 324 LINE SMOOTH",
"387 324 OFFCURVE",
"443 296 OFFCURVE",
"443 220 CURVE SMOOTH",
"443 128 OFFCURVE",
"381 71 OFFCURVE",
"298 71 CURVE SMOOTH",
"271 71 OFFCURVE",
"224 74 OFFCURVE",
"212 76 CURVE",
"234 56 LINE"
);
}
);
width = 638;
}
);
leftKerningGroup = H;
rightKerningGroup = B;
unicode = 0042;
},
{
glyphname = C;
layers = (
{
anchors = (
{
name = bottom;
position = "{310, 0}";
},
{
name = top;
position = "{451, 720}";
}
);
background = {
paths = (
{
closed = 1;
nodes = (
"559 170 LINE",
"501 168 LINE",
"501 168 OFFCURVE",
"495 131 OFFCURVE",
"492 121 CURVE",
"490 111 OFFCURVE",
"480 88 OFFCURVE",
"470 65 CURVE",
"427 52 OFFCURVE",
"385 43 OFFCURVE",
"345 43 CURVE SMOOTH",
"231 43 OFFCURVE",
"169 147 OFFCURVE",
"169 283 CURVE SMOOTH",
"169 480 OFFCURVE",
"260 662 OFFCURVE",
"427 662 CURVE SMOOTH",
"463 662 OFFCURVE",
"509 652 OFFCURVE",
"545 639 CURVE",
"548 619 OFFCURVE",
"550 598 OFFCURVE",
"549 589 CURVE SMOOTH",
"542 542 LINE",
"600 538 LINE",
"631 686 LINE",
"572 702 OFFCURVE",
"515 720 OFFCURVE",
"435 720 CURVE SMOOTH",
"196 720 OFFCURVE",
"66 529 OFFCURVE",
"66 281 CURVE SMOOTH",
"66 105 OFFCURVE",
"162 -15 OFFCURVE",
"338 -15 CURVE SMOOTH",
"417 -15 OFFCURVE",
"479 3 OFFCURVE",
"543 19 CURVE"
);
}
);
};
layerId = "08C09966-8326-41C9-AE3D-74AAC6FC1D13";
paths = (
{
closed = 1;
nodes = (
"417 -15 OFFCURVE",
"479 3 OFFCURVE",
"543 19 CURVE",
"559 170 LINE",
"501 168 LINE",
"499 155 OFFCURVE",
"496 137 OFFCURVE",
"492 121 CURVE SMOOTH",
"487 103 OFFCURVE",
"470 61 OFFCURVE",
"457 31 CURVE",
"506 71 LINE",
"452 57 OFFCURVE",
"400 43 OFFCURVE",
"345 43 CURVE SMOOTH",
"231 43 OFFCURVE",
"169 147 OFFCURVE",
"169 283 CURVE SMOOTH",
"169 480 OFFCURVE",
"260 662 OFFCURVE",
"427 662 CURVE SMOOTH",
"479 662 OFFCURVE",
"530 646 OFFCURVE",
"581 632 CURVE",
"542 675 LINE",
"545 646 OFFCURVE",
"551 599 OFFCURVE",
"549 589 CURVE SMOOTH",
"542 542 LINE",
"600 538 LINE",
"631 686 LINE",
"572 702 OFFCURVE",
"515 720 OFFCURVE",
"435 720 CURVE SMOOTH",
"196 720 OFFCURVE",
"66 529 OFFCURVE",
"66 281 CURVE SMOOTH",
"66 105 OFFCURVE",
"162 -15 OFFCURVE",
"338 -15 CURVE SMOOTH"
);
}
);
width = 633;
},
{
anchors = (
{
name = bottom;
position = "{326, 0}";
},
{
name = top;
position = "{460, 720}";
}
);
background = {
paths = (
{
closed = 1;
nodes = (
"597 191 LINE",
"523 189 LINE",
"523 189 OFFCURVE",
"515 153 OFFCURVE",
"513 142 CURVE",
"512 134 OFFCURVE",
"493 100 OFFCURVE",
"490 93 CURVE",
"445 83 OFFCURVE",
"410 78 OFFCURVE",
"368 78 CURVE SMOOTH",
"276 78 OFFCURVE",
"240 165 OFFCURVE",
"240 277 CURVE SMOOTH",
"240 442 OFFCURVE",
"296 627 OFFCURVE",
"449 627 CURVE SMOOTH",
"487 627 OFFCURVE",
"516 622 OFFCURVE",
"555 613 CURVE",
"558 600 OFFCURVE",
"562 578 OFFCURVE",
"561 572 CURVE SMOOTH",
"555 511 LINE",
"630 507 LINE",
"668 686 LINE",
"607 702 OFFCURVE",
"544 720 OFFCURVE",
"460 720 CURVE SMOOTH",
"200 720 OFFCURVE",
"61 533 OFFCURVE",
"61 287 CURVE SMOOTH",
"61 107 OFFCURVE",
"161 -15 OFFCURVE",
"359 -15 CURVE SMOOTH",
"442 -15 OFFCURVE",
"514 3 OFFCURVE",
"580 19 CURVE"
);
}
);
};
layerId = "B953D09C-6DD0-450A-A78C-8C2188DD4016";
paths = (
{
closed = 1;
nodes = (
"438 -15 OFFCURVE",
"507 3 OFFCURVE",
"573 19 CURVE",
"589 186 LINE",
"519 184 LINE",
"517 173 OFFCURVE",
"514 155 OFFCURVE",
"509 135 CURVE SMOOTH",
"505 120 OFFCURVE",
"478 65 OFFCURVE",
"463 35 CURVE",
"543 94 LINE",
"483 81 OFFCURVE",
"418 69 OFFCURVE",
"364 69 CURVE SMOOTH",
"267 69 OFFCURVE",
"224 160 OFFCURVE",
"224 279 CURVE SMOOTH",
"224 451 OFFCURVE",
"289 636 OFFCURVE",
"445 636 CURVE SMOOTH",
"498 636 OFFCURVE",
"555 623 OFFCURVE",
"610 612 CURVE",
"547 675 LINE",
"552 642 OFFCURVE",
"561 589 OFFCURVE",
"560 576 CURVE SMOOTH",
"554 519 LINE",
"624 515 LINE",
"661 686 LINE",
"600 702 OFFCURVE",
"539 720 OFFCURVE",
"456 720 CURVE SMOOTH",
"201 720 OFFCURVE",
"64 532 OFFCURVE",
"64 286 CURVE SMOOTH",
"64 107 OFFCURVE",
"163 -15 OFFCURVE",
"356 -15 CURVE SMOOTH"
);
}
);
width = 663;
}
);
leftKerningGroup = O;
rightKerningGroup = C;
unicode = 0043;
},
{
glyphname = Ccedilla;
layers = (
{
anchors = (
{
name = _bottom;
position = "{310, 0}";
},
{
name = bottom;
position = "{285.747, -247}";
}
);
components = (
{
name = C;
}
);
layerId = "08C09966-8326-41C9-AE3D-74AAC6FC1D13";
paths = (
{
closed = 1;
nodes = (
"307 -247 OFFCURVE",
"367 -210 OFFCURVE",
"378 -137 CURVE SMOOTH",
"388 -72 OFFCURVE",
"345 -54 OFFCURVE",
"280 -41 CURVE",
"293 -97 LINE",
"345 17 LINE",
"296 17 LINE",
"256 -97 LINE",
"265 -103 LINE",
"290 -104 OFFCURVE",
"322 -111 OFFCURVE",
"318 -147 CURVE SMOOTH",
"313 -194 OFFCURVE",
"264 -209 OFFCURVE",
"214 -211 CURVE",
"220 -247 LINE"
);
}
);
width = 633;
},
{
anchors = (
{
name = _bottom;
position = "{326, 0}";
},
{
name = bottom;
position = "{311.39, -247}";
}
);
components = (
{
name = C;
}
);
layerId = "B953D09C-6DD0-450A-A78C-8C2188DD4016";
paths = (
{
closed = 1;
nodes = (
"329 -247 OFFCURVE",
"398 -209 OFFCURVE",
"408 -137 CURVE SMOOTH",
"417 -76 OFFCURVE",
"369 -49 OFFCURVE",
"302 -41 CURVE",
"316 -97 LINE",
"367 17 LINE",
"314 17 LINE",
"275 -97 LINE",
"289 -110 LINE",
"317 -111 OFFCURVE",
"335 -117 OFFCURVE",
"332 -146 CURVE SMOOTH",
"328 -186 OFFCURVE",
"283 -204 OFFCURVE",
"236 -206 CURVE",
"243 -247 LINE"
);
}
);
width = 663;
}
);
unicode = 00C7;
},
{
glyphname = D;
layers = (
{
anchors = (
{
name = bottom;
position = "{295, 0}";
},
{
name = center;
position = "{195, 353}";
},
{
name = top;
position = "{386, 720}";
}
);
background = {
anchors = (
{
name = bottom;
position = "{294, 0}";
},
{
name = center;
position = "{199, 353}";
},
{
name = top;
position = "{394, 705}";
}
);
paths = (
{
closed = 1;
nodes = (
"144 0 LINE",
"194 0 OFFCURVE",
"247 -5 OFFCURVE",
"297 -5 CURVE SMOOTH",
"535 -5 OFFCURVE",
"680 171 OFFCURVE",
"680 418 CURVE SMOOTH",
"680 595 OFFCURVE",
"572 710 OFFCURVE",
"382 710 CURVE SMOOTH",
"342 710 OFFCURVE",
"270 705 OFFCURVE",
"230 705 CURVE",
"179 645 LINE",
"204 646 OFFCURVE",
"340 651 OFFCURVE",
"384 650 CURVE SMOOTH",
"521 650 OFFCURVE",
"581 543 OFFCURVE",
"581 412 CURVE SMOOTH",
"581 226 OFFCURVE",
"495 54 OFFCURVE",
"306 54 CURVE SMOOTH",
"276 54 OFFCURVE",
"219 56 OFFCURVE",
"195 57 CURVE"
);
},
{
closed = 1;
nodes = (
"230 705 LINE",
"210 705 OFFCURVE",
"115 710 OFFCURVE",
"115 710 CURVE",
"102 656 LINE",
"175 644 LINE",
"175 631 OFFCURVE",
"174 583 OFFCURVE",
"172 568 CURVE SMOOTH",
"109 137 LINE SMOOTH",
"107 122 OFFCURVE",
"93 74 OFFCURVE",
"90 61 CURVE",
"11 45 LINE",
"9 -5 LINE",
"9 -5 OFFCURVE",
"119 0 OFFCURVE",
"144 0 CURVE",
"195 57 LINE",
"195 71 OFFCURVE",
"201 137 OFFCURVE",
"205 167 CURVE SMOOTH",
"259 538 LINE SMOOTH",
"263 568 OFFCURVE",
"283 654 OFFCURVE",
"287 668 CURVE"
);
}
);
};
layerId = "08C09966-8326-41C9-AE3D-74AAC6FC1D13";
paths = (
{
closed = 1;
nodes = (
"46 -3 OFFCURVE",
"119 0 OFFCURVE",
"144 0 CURVE SMOOTH",
"193 0 OFFCURVE",
"247 -5 OFFCURVE",
"297 -5 CURVE SMOOTH",
"535 -5 OFFCURVE",
"680 171 OFFCURVE",
"680 418 CURVE SMOOTH",
"680 595 OFFCURVE",
"572 710 OFFCURVE",
"382 710 CURVE SMOOTH",
"342 710 OFFCURVE",
"270 705 OFFCURVE",
"230 705 CURVE SMOOTH",
"202 705 OFFCURVE",
"146 708 OFFCURVE",
"115 710 CURVE",
"102 656 LINE",
"211 638 LINE",
"175 676 LINE",
"175 661 OFFCURVE",
"175 588 OFFCURVE",
"172 568 CURVE SMOOTH",
"109 137 LINE SMOOTH",
"105 110 OFFCURVE",
"89 61 OFFCURVE",
"82 34 CURVE",
"126 68 LINE",
"11 45 LINE",
"9 -5 LINE"
);
},
{
closed = 1;
nodes = (
"193 46 OFFCURVE",
"200 130 OFFCURVE",
"205 167 CURVE SMOOTH",
"259 538 LINE SMOOTH",
"264 574 OFFCURVE",
"282 645 OFFCURVE",
"286 664 CURVE",
"254 646 LINE",
"301 650 OFFCURVE",
"358 650 OFFCURVE",
"384 650 CURVE SMOOTH",
"521 650 OFFCURVE",
"581 543 OFFCURVE",
"581 412 CURVE SMOOTH",
"581 226 OFFCURVE",
"495 54 OFFCURVE",
"306 54 CURVE SMOOTH",
"269 54 OFFCURVE",
"183 57 OFFCURVE",
"165 58 CURVE",
"194 31 LINE"
);
}
);
width = 715;
},
{
anchors = (
{
name = bottom;
position = "{298, 0}";
},
{
name = center;
position = "{220, 353}";
},
{
name = top;
position = "{406, 720}";
}
);
background = {
paths = (
{
closed = 1;
nodes = (
"196 621 OFFCURVE",
"372 626 OFFCURVE",
"390 627 CURVE SMOOTH",
"504 627 OFFCURVE",
"545 534 OFFCURVE",
"545 423 CURVE SMOOTH",
"545 264 OFFCURVE",
"495 78 OFFCURVE",
"307 78 CURVE SMOOTH",
"282 77 OFFCURVE",
"212 83 OFFCURVE",
"192 85 CURVE",
"160 0 LINE",
"220 0 OFFCURVE",
"254 -5 OFFCURVE",
"314 -5 CURVE SMOOTH",
"573 -5 OFFCURVE",
"711 176 OFFCURVE",
"711 415 CURVE SMOOTH",
"711 588 OFFCURVE",
"610 710 OFFCURVE",
"413 710 CURVE SMOOTH",
"368 710 OFFCURVE",
"279 705 OFFCURVE",
"234 705 CURVE",
"173 621 LINE"
);
},
{
closed = 1;
nodes = (
"234 705 LINE",
"204 705 OFFCURVE",
"114 710 OFFCURVE",
"114 710 CURVE",
"98 635 LINE",
"159 623 LINE",
"159 608 OFFCURVE",
"158 562 OFFCURVE",
"151 512 CURVE SMOOTH",
"100 163 LINE SMOOTH",
"97 143 OFFCURVE",
"84 92 OFFCURVE",
"79 77 CURVE",
"14 65 LINE",
"9 -5 LINE",
"9 -5 OFFCURVE",
"129 0 OFFCURVE",
"159 0 CURVE",
"246 67 LINE",
"247 82 OFFCURVE",
"252 143 OFFCURVE",
"260 193 CURVE SMOOTH",
"310 542 LINE SMOOTH",
"313 562 OFFCURVE",
"327 618 OFFCURVE",
"331 633 CURVE"
);
}
);
};
layerId = "B953D09C-6DD0-450A-A78C-8C2188DD4016";
paths = (
{
closed = 1;
nodes = (
"52 -3 OFFCURVE",
"128 0 OFFCURVE",
"156 0 CURVE SMOOTH",
"215 0 OFFCURVE",
"253 -5 OFFCURVE",
"311 -5 CURVE SMOOTH",
"564 -5 OFFCURVE",
"704 175 OFFCURVE",
"704 416 CURVE SMOOTH",
"704 590 OFFCURVE",
"601 710 OFFCURVE",
"406 710 CURVE SMOOTH",
"363 710 OFFCURVE",
"279 705 OFFCURVE",
"234 705 CURVE SMOOTH",
"212 705 OFFCURVE",
"153 708 OFFCURVE",
"115 710 CURVE",
"100 640 LINE",
"220 618 LINE",
"168 684 LINE",
"165 639 OFFCURVE",
"162 559 OFFCURVE",
"157 526 CURVE SMOOTH",
"103 156 LINE SMOOTH",
"99 129 OFFCURVE",
"82 68 OFFCURVE",
"72 36 CURVE",
"138 83 LINE",
"14 60 LINE",
"10 -5 LINE"
);
},
{
closed = 1;
nodes = (
"234 82 OFFCURVE",
"240 136 OFFCURVE",
"247 186 CURVE SMOOTH",
"298 541 LINE SMOOTH",
"302 567 OFFCURVE",
"319 635 OFFCURVE",
"330 681 CURVE",
"264 629 LINE",
"301 631 OFFCURVE",
"349 633 OFFCURVE",
"390 633 CURVE SMOOTH",
"509 633 OFFCURVE",
"555 536 OFFCURVE",
"555 420 CURVE SMOOTH",
"555 255 OFFCURVE",
"497 72 OFFCURVE",
"308 72 CURVE SMOOTH",
"280 72 OFFCURVE",
"210 76 OFFCURVE",
"187 78 CURVE",
"234 55 LINE"
);
}
);
width = 737;
}
);
leftKerningGroup = H;
rightKerningGroup = O;
unicode = 0044;
},
{
glyphname = E;
layers = (
{
anchors = (
{
name = bottom;
position = "{260, 0}";
},
{
name = ogonek;
position = "{469, 0}";
},
{
name = top;
position = "{361, 720}";
},
{
name = topleft;
position = "{94, 705}";
}
);
background = {
anchors = (
{
name = bottom;
position = "{254, 0}";
},
{
name = ogonek;
position = "{465, -4}";
},
{
name = top;
position = "{358, 705}";
}
);
paths = (
{
closed = 1;
nodes = (
"408 649 LINE SMOOTH",
"435 649 OFFCURVE",
"465 646 OFFCURVE",
"486 644 CURVE",
"494 631 OFFCURVE",
"499 617 OFFCURVE",
"500 610 CURVE SMOOTH",
"502 595 OFFCURVE",
"503 572 OFFCURVE",
"503 556 CURVE",
"560 561 LINE",
"573 692 LINE",
"557 710 LINE",
"557 710 OFFCURVE",
"465 705 OFFCURVE",
"445 705 CURVE SMOOTH",
"230 705 LINE",
"282 649 LINE"
);
},
{
closed = 1;
nodes = (
"220 338 LINE",
"321 338 LINE SMOOTH",
"341 338 OFFCURVE",
"386 333 OFFCURVE",
"397 332 CURVE",
"394 265 LINE",
"442 271 LINE",
"442 271 OFFCURVE",
"449 330 OFFCURVE",
"457 380 CURVE SMOOTH",
"460 400 OFFCURVE",
"472 464 OFFCURVE",
"472 464 CURVE",
"427 469 LINE",
"406 400 LINE",
"392 398 OFFCURVE",
"358 394 OFFCURVE",
"348 394 CURVE SMOOTH",
"230 394 LINE"
);
},
{
closed = 1;
nodes = (
"144 0 LINE",
"355 0 LINE SMOOTH",
"375 0 OFFCURVE",
"465 -4 OFFCURVE",
"465 -4 CURVE",
"486 14 LINE",
"523 165 LINE",
"470 170 LINE",
"465 154 OFFCURVE",
"452 118 OFFCURVE",
"445 103 CURVE SMOOTH",
"441 94 OFFCURVE",
"431 80 OFFCURVE",
"420 66 CURVE",
"398 62 OFFCURVE",
"364 57 OFFCURVE",
"334 57 CURVE SMOOTH",
"196 57 LINE"
);
},
{
closed = 1;
nodes = (
"230 705 LINE",
"210 705 OFFCURVE",
"115 710 OFFCURVE",
"115 710 CURVE",
"102 656 LINE",
"175 644 LINE",
"175 631 OFFCURVE",
"174 583 OFFCURVE",
"172 568 CURVE SMOOTH",
"109 137 LINE SMOOTH",
"107 122 OFFCURVE",
"93 74 OFFCURVE",
"90 61 CURVE",
"11 45 LINE",
"9 -5 LINE",
"9 -5 OFFCURVE",
"119 0 OFFCURVE",
"144 0 CURVE",
"196 57 LINE",
"196 71 OFFCURVE",
"201 137 OFFCURVE",
"205 167 CURVE SMOOTH",
"259 538 LINE SMOOTH",
"263 568 OFFCURVE",
"278 632 OFFCURVE",
"282 649 CURVE"
);
}
);
};
guideLines = (
{
position = "{308, 338}";
}
);
layerId = "08C09966-8326-41C9-AE3D-74AAC6FC1D13";
paths = (
{
closed = 1;
nodes = (
"54 -3 OFFCURVE",
"112 0 OFFCURVE",
"144 0 CURVE SMOOTH",
"355 0 LINE SMOOTH",
"382 0 OFFCURVE",
"432 0 OFFCURVE",
"469 0 CURVE",
"486 14 LINE",
"523 165 LINE",
"470 170 LINE",
"465 154 OFFCURVE",
"452 118 OFFCURVE",
"445 103 CURVE SMOOTH",
"439 89 OFFCURVE",
"418 63 OFFCURVE",
"402 44 CURVE",
"435 69 LINE",
"417 65 OFFCURVE",
"372 57 OFFCURVE",
"334 57 CURVE SMOOTH",
"160 57 LINE",
"194 23 LINE",
"194 51 OFFCURVE",
"200 133 OFFCURVE",
"205 167 CURVE SMOOTH",
"235 374 LINE",
"194 338 LINE",
"321 338 LINE SMOOTH",
"338 338 OFFCURVE",
"396 333 OFFCURVE",
"433 329 CURVE",
"399 368 LINE",
"394 265 LINE",
"442 271 LINE",
"448 327 OFFCURVE",
"459 391 OFFCURVE",
"472 464 CURVE",
"427 469 LINE",
"395 365 LINE",
"442 404 LINE",
"411 400 OFFCURVE",
"359 394 OFFCURVE",
"348 394 CURVE SMOOTH",
"202 394 LINE",
"233 358 LINE",
"259 538 LINE SMOOTH",
"264 573 OFFCURVE",
"284 656 OFFCURVE",
"288 674 CURVE",
"246 649 LINE",
"408 649 LINE SMOOTH",
"423 649 OFFCURVE",
"494 644 OFFCURVE",
"513 642 CURVE",
"468 676 LINE",
"482 654 OFFCURVE",
"499 622 OFFCURVE",
"500 610 CURVE SMOOTH",
"501 601 OFFCURVE",
"502 572 OFFCURVE",
"503 556 CURVE",
"560 561 LINE",
"573 692 LINE",
"557 710 LINE",
"520 708 OFFCURVE",
"462 705 OFFCURVE",
"445 705 CURVE SMOOTH",
"230 705 LINE SMOOTH",
"212 705 OFFCURVE",
"153 708 OFFCURVE",
"115 710 CURVE",
"102 656 LINE",
"211 638 LINE",
"175 665 LINE",
"175 652 OFFCURVE",
"175 588 OFFCURVE",
"172 568 CURVE SMOOTH",
"109 137 LINE SMOOTH",
"106 117 OFFCURVE",
"86 47 OFFCURVE",
"80 24 CURVE",
"126 68 LINE",
"11 45 LINE",
"9 -5 LINE"
);
}
);
width = 586;
},
{
anchors = (
{
name = bottom;
position = "{269, 0}";
},
{
name = ogonek;
position = "{492, 0}";
},
{
name = top;
position = "{370, 720}";
},
{
name = topleft;
position = "{97, 705}";
}
);
background = {
paths = (
{
closed = 1;
nodes = (
"430 623 LINE SMOOTH",
"460 623 OFFCURVE",
"487 621 OFFCURVE",
"506 619 CURVE",
"510 611 OFFCURVE",
"511 599 OFFCURVE",
"512 595 CURVE",
"513 580 OFFCURVE",
"512 552 OFFCURVE",
"512 536 CURVE",
"583 541 LINE",
"599 692 LINE",
"583 710 LINE",
"583 710 OFFCURVE",
"491 705 OFFCURVE",
"471 705 CURVE SMOOTH",
"234 705 LINE",
"325 623 LINE"
);
},
{
closed = 1;
nodes = (
"159 0 LINE",
"382 0 LINE SMOOTH",
"402 0 OFFCURVE",
"492 -4 OFFCURVE",
"492 -4 CURVE",
"513 14 LINE",
"553 190 LINE",
"485 195 LINE",
"481 179 OFFCURVE",
"472 153 OFFCURVE",
"466 138 CURVE SMOOTH",
"461 128 OFFCURVE",
"453 113 OFFCURVE",
"441 95 CURVE",
"421 91 OFFCURVE",
"394 87 OFFCURVE",
"366 87 CURVE SMOOTH",
"246 87 LINE"
);
},
{
closed = 1;
nodes = (
"234 705 LINE",
"204 705 OFFCURVE",
"114 710 OFFCURVE",
"114 710 CURVE",
"98 635 LINE",
"159 623 LINE",
"159 608 OFFCURVE",
"158 562 OFFCURVE",
"151 512 CURVE SMOOTH",
"100 163 LINE SMOOTH",
"97 143 OFFCURVE",
"84 92 OFFCURVE",
"79 77 CURVE",
"14 65 LINE",
"9 -5 LINE",
"9 -5 OFFCURVE",
"129 0 OFFCURVE",
"159 0 CURVE",
"246 67 LINE",
"247 82 OFFCURVE",
"252 143 OFFCURVE",
"260 193 CURVE SMOOTH",
"310 542 LINE SMOOTH",
"313 562 OFFCURVE",
"327 618 OFFCURVE",
"331 633 CURVE"
);
},
{
closed = 1;
nodes = (
"335 316 LINE SMOOTH",
"355 316 OFFCURVE",
"380 312 OFFCURVE",
"395 310 CURVE",
"395 250 LINE",
"459 256 LINE",
"459 256 OFFCURVE",
"467 333 OFFCURVE",
"475 383 CURVE SMOOTH",
"478 403 OFFCURVE",
"488 466 OFFCURVE",
"488 466 CURVE",
"427 471 LINE",
"408 404 LINE",
"398 402 OFFCURVE",
"376 398 OFFCURVE",
"366 398 CURVE SMOOTH",
"251 398 LINE",
"240 316 LINE"
);
}
);
};
layerId = "B953D09C-6DD0-450A-A78C-8C2188DD4016";
paths = (
{
closed = 1;
nodes = (
"65 -2 OFFCURVE",
"127 0 OFFCURVE",
"156 0 CURVE SMOOTH",
"376 0 LINE SMOOTH",
"403 0 OFFCURVE",
"451 0 OFFCURVE",
"492 0 CURVE",
"507 14 LINE",
"547 184 LINE",
"482 189 LINE",
"478 173 OFFCURVE",
"467 141 OFFCURVE",
"462 130 CURVE SMOOTH",
"456 116 OFFCURVE",
"433 79 OFFCURVE",
"402 44 CURVE",
"460 93 LINE",
"443 89 OFFCURVE",
"402 80 OFFCURVE",
"359 80 CURVE SMOOTH",
"180 80 LINE",
"234 49 LINE",
"234 64 OFFCURVE",
"240 138 OFFCURVE",
"247 186 CURVE SMOOTH",
"275 377 LINE",
"211 322 LINE",
"333 322 LINE SMOOTH",
"352 322 OFFCURVE",
"413 315 OFFCURVE",
"453 310 CURVE",
"397 372 LINE",
"396 254 LINE",
"456 260 LINE",
"463 330 OFFCURVE",
"472 387 OFFCURVE",
"485 466 CURVE",
"428 471 LINE",
"393 349 LINE",
"464 411 LINE",
"417 403 OFFCURVE",
"374 397 OFFCURVE",
"363 397 CURVE SMOOTH",
"221 397 LINE",
"269 342 LINE",
"299 541 LINE SMOOTH",
"303 569 OFFCURVE",
"321 642 OFFCURVE",
"326 664 CURVE",
"261 630 LINE",
"426 630 LINE SMOOTH",
"457 630 OFFCURVE",
"520 625 OFFCURVE",
"556 623 CURVE",
"486 679 LINE",
"496 652 OFFCURVE",
"510 601 OFFCURVE",
"510 591 CURVE SMOOTH",
"510 576 OFFCURVE",
"511 557 OFFCURVE",
"511 541 CURVE",
"578 546 LINE",
"594 692 LINE",
"578 710 LINE",
"540 708 OFFCURVE",
"493 705 OFFCURVE",
"466 705 CURVE SMOOTH",
"234 705 LINE SMOOTH",
"203 705 OFFCURVE",
"155 708 OFFCURVE",
"115 710 CURVE",
"100 640 LINE",
"220 618 LINE",
"166 657 LINE",
"166 645 OFFCURVE",
"162 560 OFFCURVE",
"157 526 CURVE SMOOTH",
"103 156 LINE SMOOTH",
"99 129 OFFCURVE",
"80 62 OFFCURVE",
"71 39 CURVE",
"138 83 LINE",
"14 60 LINE",
"10 -5 LINE"
);
}
);
width = 611;
}
);
leftKerningGroup = H;
rightKerningGroup = E;
unicode = 0045;
},
{
glyphname = Eacute;
layers = (
{
anchors = (
{
name = top;
position = "{399, 995}";
}
);
components = (
{
name = E;
}
);
layerId = "08C09966-8326-41C9-AE3D-74AAC6FC1D13";
paths = (
{
closed = 1;
nodes = (
"507 845 LINE",
"486 908 LINE",
"247 794 LINE",
"259 753 LINE"
);
}
);
width = 586;
},
{
anchors = (
{
name = top;
position = "{410, 1015}";
}
);
components = (
{
name = E;
}
);
layerId = "B953D09C-6DD0-450A-A78C-8C2188DD4016";
paths = (
{
closed = 1;
nodes = (
"523 831 LINE",
"500 907 LINE",
"249 804 LINE",
"267 752 LINE"
);
}
);
width = 611;
}
);
leftKerningGroup = H;
rightKerningGroup = E;
unicode = 00C9;
},
{
glyphname = Ecircumflex;
layers = (
{
anchors = (
{
name = top;
position = "{398, 995}";
}
);
components = (
{
name = E;
}
);
layerId = "08C09966-8326-41C9-AE3D-74AAC6FC1D13";
paths = (
{
closed = 1;
nodes = (
"422 840 LINE",
"395 879 LINE",
"354 879 LINE",
"201 789 LINE",
"219 753 LINE"
);
},
{
closed = 1;
nodes = (
"548 784 LINE",
"421 879 LINE",
"380 879 LINE",
"341 840 LINE",
"520 748 LINE"
);
}
);
width = 586;
},
{
anchors = (
{
name = top;
position = "{410, 1015}";
}
);
components = (
{
name = E;
}
);
layerId = "B953D09C-6DD0-450A-A78C-8C2188DD4016";
paths = (
{
closed = 1;
nodes = (
"569 787 LINE",
"446 892 LINE",
"383 892 LINE",
"342 841 LINE",
"529 742 LINE"
);
},
{
closed = 1;
nodes = (
"438 841 LINE",
"411 892 LINE",
"348 892 LINE",
"199 797 LINE",
"227 752 LINE"
);
}
);
width = 611;
}
);
leftKerningGroup = H;
rightKerningGroup = E;
unicode = 00CA;
},
{
glyphname = Egrave;
layers = (
{
anchors = (
{
name = top;
position = "{389, 995}";
}
);
components = (
{
name = E;
}
);
layerId = "08C09966-8326-41C9-AE3D-74AAC6FC1D13";
paths = (
{
closed = 1;
nodes = (
"490 794 LINE",
"283 908 LINE",
"244 845 LINE",
"466 753 LINE"
);
}
);
width = 586;
},
{
anchors = (
{
name = top;
position = "{400, 1015}";
}
);
components = (
{
name = E;
}
);
layerId = "B953D09C-6DD0-450A-A78C-8C2188DD4016";
paths = (
{
closed = 1;
nodes = (
"509 804 LINE",
"288 907 LINE",
"243 831 LINE",
"477 752 LINE"
);
}
);
width = 611;
}
);
leftKerningGroup = H;
rightKerningGroup = E;
unicode = 00C8;
},
{
glyphname = Eth;
layers = (
{
anchors = (
{
name = _center;
position = "{195, 353}";
}
);
components = (
{
name = D;
}
);
layerId = "08C09966-8326-41C9-AE3D-74AAC6FC1D13";
paths = (
{
closed = 1;
nodes = (
"374 331 LINE",
"385 375 LINE",
"41 375 LINE",
"35 331 LINE"
);
}
);
width = 715;
},
{
anchors = (
{
name = _center;
position = "{220, 353}";
}
);
components = (
{
name = D;
}
);
layerId = "B953D09C-6DD0-450A-A78C-8C2188DD4016";
paths = (
{
closed = 1;
nodes = (
"412 321 LINE",
"431 385 LINE",
"19 385 LINE",
"10 321 LINE"
);
}
);
width = 737;
}
);
leftKerningGroup = Eth;
rightKerningGroup = O;
unicode = 00D0;
},
{
glyphname = F;
layers = (
{
anchors = (
{
name = bottom;
position = "{242, 0}";
},
{
name = top;
position = "{343, 720}";
}
);
background = {
paths = (
{
closed = 1;
nodes = (
"407 649 LINE SMOOTH",
"434 649 OFFCURVE",
"464 646 OFFCURVE",
"485 644 CURVE",
"493 631 OFFCURVE",
"498 617 OFFCURVE",
"499 610 CURVE SMOOTH",
"501 595 OFFCURVE",
"502 572 OFFCURVE",
"502 556 CURVE",
"559 561 LINE",
"572 692 LINE",
"556 710 LINE",
"556 710 OFFCURVE",
"464 705 OFFCURVE",
"444 705 CURVE SMOOTH",
"230 705 LINE",
"281 649 LINE"
);
},
{
closed = 1;
nodes = (
"230 705 LINE",
"210 705 OFFCURVE",
"115 710 OFFCURVE",
"115 710 CURVE",
"102 656 LINE",
"175 644 LINE",
"175 631 OFFCURVE",
"174 583 OFFCURVE",
"172 568 CURVE SMOOTH",
"109 137 LINE SMOOTH",
"107 122 OFFCURVE",
"93 74 OFFCURVE",
"90 61 CURVE",
"11 45 LINE",
"9 -5 LINE",
"9 -5 OFFCURVE",
"119 0 OFFCURVE",
"144 0 CURVE SMOOTH",
"223 0 OFFCURVE",
"277 0 OFFCURVE",
"277 0 CURVE",
"291 54 LINE",
"196 61 LINE",
"196 75 OFFCURVE",
"201 137 OFFCURVE",
"205 167 CURVE SMOOTH",
"259 538 LINE SMOOTH",
"263 568 OFFCURVE",
"277 632 OFFCURVE",
"281 649 CURVE"
);
},
{
closed = 1;
nodes = (
"217 329 LINE",
"318 329 LINE SMOOTH",
"338 329 OFFCURVE",
"383 324 OFFCURVE",
"394 323 CURVE",
"391 256 LINE",
"439 262 LINE",
"439 262 OFFCURVE",
"446 321 OFFCURVE",
"454 371 CURVE SMOOTH",
"457 391 OFFCURVE",
"469 455 OFFCURVE",
"469 455 CURVE",
"424 460 LINE",
"403 391 LINE",
"389 389 OFFCURVE",
"355 385 OFFCURVE",
"345 385 CURVE SMOOTH",
"227 385 LINE"
);
}
);
};
guideLines = (
{
position = "{91, 372}";
}
);
layerId = "08C09966-8326-41C9-AE3D-74AAC6FC1D13";
paths = (
{
closed = 1;
nodes = (
"54 -3 OFFCURVE",
"119 0 OFFCURVE",
"144 0 CURVE SMOOTH",
"277 0 LINE",
"291 54 LINE",
"160 64 LINE",
"195 31 LINE",
"195 55 OFFCURVE",
"200 133 OFFCURVE",
"205 167 CURVE SMOOTH",
"235 374 LINE",
"191 328 LINE",
"318 328 LINE SMOOTH",
"335 328 OFFCURVE",
"393 323 OFFCURVE",
"430 319 CURVE",
"396 358 LINE",
"391 255 LINE",
"439 261 LINE",
"445 317 OFFCURVE",
"456 381 OFFCURVE",
"469 454 CURVE",
"424 459 LINE",
"392 355 LINE",
"439 394 LINE",
"408 390 OFFCURVE",
"356 384 OFFCURVE",
"345 384 CURVE SMOOTH",
"199 384 LINE",
"233 358 LINE",
"259 538 LINE SMOOTH",
"264 573 OFFCURVE",
"284 656 OFFCURVE",
"288 674 CURVE",
"246 649 LINE",
"408 649 LINE SMOOTH",
"423 649 OFFCURVE",
"494 644 OFFCURVE",
"513 642 CURVE",
"468 676 LINE",
"482 654 OFFCURVE",
"499 622 OFFCURVE",
"500 610 CURVE SMOOTH",
"501 601 OFFCURVE",
"502 572 OFFCURVE",
"503 556 CURVE",
"560 561 LINE",
"573 692 LINE",
"557 710 LINE",
"520 708 OFFCURVE",
"462 705 OFFCURVE",
"445 705 CURVE SMOOTH",
"230 705 LINE SMOOTH",
"212 705 OFFCURVE",
"153 708 OFFCURVE",
"115 710 CURVE",
"102 656 LINE",
"211 638 LINE",
"175 665 LINE",
"175 652 OFFCURVE",
"175 588 OFFCURVE",
"172 568 CURVE SMOOTH",
"109 137 LINE SMOOTH",
"106 117 OFFCURVE",
"88 55 OFFCURVE",
"81 33 CURVE",
"126 68 LINE",
"11 45 LINE",
"9 -5 LINE"
);
}
);
width = 555;
},
{
anchors = (
{
name = bottom;
position = "{251, 0}";
},
{
name = top;
position = "{352, 720}";
}
);
background = {
paths = (
{
closed = 1;
nodes = (
"431 623 LINE SMOOTH",
"461 623 OFFCURVE",
"489 620 OFFCURVE",
"508 618 CURVE",
"510 608 OFFCURVE",
"512 599 OFFCURVE",
"513 595 CURVE",
"514 580 OFFCURVE",
"513 552 OFFCURVE",
"513 536 CURVE",
"584 541 LINE",
"600 692 LINE",
"584 710 LINE",
"584 710 OFFCURVE",
"492 705 OFFCURVE",
"472 705 CURVE SMOOTH",
"234 705 LINE",
"226 623 LINE"
);
},
{
closed = 1;
nodes = (
"310 542 LINE SMOOTH",
"313 562 OFFCURVE",
"327 618 OFFCURVE",
"331 633 CURVE",
"234 705 LINE",
"204 705 OFFCURVE",
"114 710 OFFCURVE",
"114 710 CURVE",
"98 635 LINE",
"159 623 LINE",
"159 608 OFFCURVE",
"158 562 OFFCURVE",
"151 512 CURVE SMOOTH",
"100 163 LINE SMOOTH",
"97 143 OFFCURVE",
"84 92 OFFCURVE",
"79 77 CURVE",
"14 65 LINE",
"9 -5 LINE",
"9 -5 OFFCURVE",
"129 0 OFFCURVE",
"159 0 CURVE",
"297 0 LINE",
"312 70 LINE",
"251 77 LINE",
"251 92 OFFCURVE",
"252 143 OFFCURVE",
"260 193 CURVE SMOOTH"
);
},
{
closed = 1;
nodes = (
"334 305 LINE SMOOTH",
"354 305 OFFCURVE",
"379 301 OFFCURVE",
"394 299 CURVE",
"394 239 LINE",
"458 245 LINE",
"458 245 OFFCURVE",
"466 322 OFFCURVE",
"474 372 CURVE SMOOTH",
"477 392 OFFCURVE",
"487 455 OFFCURVE",
"487 455 CURVE",
"426 460 LINE",
"407 393 LINE",
"397 391 OFFCURVE",
"375 387 OFFCURVE",
"365 387 CURVE SMOOTH",
"250 387 LINE",
"239 305 LINE"
);
}
);
};
layerId = "B953D09C-6DD0-450A-A78C-8C2188DD4016";
paths = (
{
closed = 1;
nodes = (
"59 -3 OFFCURVE",
"127 0 OFFCURVE",
"156 0 CURVE SMOOTH",
"293 0 LINE",
"308 66 LINE",
"182 79 LINE",
"238 31 LINE",
"238 63 OFFCURVE",
"238 126 OFFCURVE",
"247 186 CURVE SMOOTH",
"275 377 LINE",
"209 312 LINE",
"331 312 LINE SMOOTH",
"351 312 OFFCURVE",
"411 305 OFFCURVE",
"451 300 CURVE",
"396 362 LINE",
"394 244 LINE",
"454 250 LINE",
"461 317 OFFCURVE",
"471 383 OFFCURVE",
"484 456 CURVE",
"427 461 LINE",
"392 339 LINE",
"463 401 LINE",
"427 395 OFFCURVE",
"374 387 OFFCURVE",
"361 387 CURVE SMOOTH",
"220 387 LINE",
"269 342 LINE",
"298 541 LINE SMOOTH",
"302 570 OFFCURVE",
"321 642 OFFCURVE",
"326 664 CURVE",
"261 630 LINE",
"426 630 LINE SMOOTH",
"457 630 OFFCURVE",
"520 625 OFFCURVE",
"556 623 CURVE",
"486 679 LINE",
"496 652 OFFCURVE",
"510 601 OFFCURVE",
"510 591 CURVE SMOOTH",
"510 576 OFFCURVE",
"511 557 OFFCURVE",
"511 541 CURVE",
"578 546 LINE",
"594 692 LINE",
"578 710 LINE",
"540 708 OFFCURVE",
"493 705 OFFCURVE",
"466 705 CURVE SMOOTH",
"234 705 LINE SMOOTH",
"203 705 OFFCURVE",
"155 708 OFFCURVE",
"115 710 CURVE",
"100 640 LINE",
"220 618 LINE",
"166 657 LINE",
"166 645 OFFCURVE",
"162 560 OFFCURVE",
"157 526 CURVE SMOOTH",
"103 156 LINE SMOOTH",
"99 130 OFFCURVE",
"84 75 OFFCURVE",
"72 42 CURVE",
"138 83 LINE",
"14 60 LINE",
"10 -5 LINE"
);
}
);
width = 574;
}
);
leftKerningGroup = H;
rightKerningGroup = F;
unicode = 0046;
},
{
glyphname = G;
layers = (
{
anchors = (
{
name = bottom;
position = "{357, 0}";
},
{
name = center;
position = "{516, 181}";
},
{
name = top;
position = "{448, 720}";
}
);
background = {
paths = (
{
closed = 1;
nodes = (
"202 720 OFFCURVE",
"66 531 OFFCURVE",
"66 284 CURVE SMOOTH",
"66 106 OFFCURVE",
"167 -15 OFFCURVE",
"354 -15 CURVE SMOOTH",
"438 -15 OFFCURVE",
"504 3 OFFCURVE",
"572 19 CURVE",
"593 166 LINE SMOOTH",
"597 196 OFFCURVE",
"624 319 OFFCURVE",
"624 319 CURVE",
"609 336 LINE",
"609 336 OFFCURVE",
"558 333 OFFCURVE",
"538 333 CURVE",
"430 333 LINE",
"417 275 LINE",
"518 267 LINE",
"518 267 OFFCURVE",
"520 211 OFFCURVE",
"518 196 CURVE SMOOTH",
"497 65 LINE",
"454 53 OFFCURVE",
"400 43 OFFCURVE",
"360 43 CURVE SMOOTH",
"234 43 OFFCURVE",
"168 149 OFFCURVE",
"168 287 CURVE SMOOTH",
"168 484 OFFCURVE",
"263 662 OFFCURVE",
"440 662 CURVE SMOOTH",
"482 662 OFFCURVE",
"533 651 OFFCURVE",
"574 638 CURVE",
"577 618 OFFCURVE",
"579 597 OFFCURVE",
"578 589 CURVE SMOOTH",
"572 544 LINE",
"628 538 LINE",
"660 686 LINE",
"598 702 OFFCURVE",
"536 720 OFFCURVE",
"451 720 CURVE SMOOTH"
);
}
);
};
layerId = "08C09966-8326-41C9-AE3D-74AAC6FC1D13";
paths = (
{
closed = 1;
nodes = (
"438 -15 OFFCURVE",
"504 3 OFFCURVE",
"572 19 CURVE",
"593 166 LINE SMOOTH",
"596 187 OFFCURVE",
"614 268 OFFCURVE",
"624 319 CURVE",
"609 336 LINE",
"585 335 OFFCURVE",
"552 333 OFFCURVE",
"538 333 CURVE SMOOTH",
"430 333 LINE",
"417 275 LINE",
"554 264 LINE",
"518 303 LINE",
"519 277 OFFCURVE",
"520 207 OFFCURVE",
"518 196 CURVE SMOOTH",
"491 29 LINE",
"518 71 LINE",
"473 57 OFFCURVE",
"407 43 OFFCURVE",
"360 43 CURVE SMOOTH",
"234 43 OFFCURVE",
"168 149 OFFCURVE",
"168 287 CURVE SMOOTH",
"168 484 OFFCURVE",
"263 662 OFFCURVE",
"440 662 CURVE SMOOTH",
"489 662 OFFCURVE",
"551 647 OFFCURVE",
"595 631 CURVE",
"569 665 LINE",
"574 642 OFFCURVE",
"579 600 OFFCURVE",
"578 589 CURVE SMOOTH",
"572 544 LINE",
"628 538 LINE",
"660 686 LINE",
"598 702 OFFCURVE",
"536 720 OFFCURVE",
"451 720 CURVE SMOOTH",
"202 720 OFFCURVE",
"66 531 OFFCURVE",
"66 284 CURVE SMOOTH",
"66 106 OFFCURVE",
"167 -15 OFFCURVE",
"354 -15 CURVE SMOOTH"
);
}
);
width = 681;
},
{
anchors = (
{
name = bottom;
position = "{386, 0}";
},
{
name = center;
position = "{536, 181}";
},
{
name = top;
position = "{462, 720}";
}
);
background = {
paths = (
{
closed = 1;
nodes = (
"204 720 OFFCURVE",
"60 535 OFFCURVE",
"60 290 CURVE SMOOTH",
"60 108 OFFCURVE",
"165 -15 OFFCURVE",
"373 -15 CURVE SMOOTH",
"461 -15 OFFCURVE",
"538 1 OFFCURVE",
"607 19 CURVE",
"633 196 LINE SMOOTH",
"637 226 OFFCURVE",
"662 341 OFFCURVE",
"662 341 CURVE",
"638 366 LINE",
"638 366 OFFCURVE",
"556 363 OFFCURVE",
"523 363 CURVE",
"415 363 LINE",
"396 265 LINE",
"498 257 LINE",
"498 257 OFFCURVE",
"502 216 OFFCURVE",
"499 196 CURVE SMOOTH",
"483 87 LINE",
"451 82 OFFCURVE",
"416 78 OFFCURVE",
"383 78 CURVE SMOOTH",
"279 78 OFFCURVE",
"239 168 OFFCURVE",
"239 283 CURVE SMOOTH",
"239 452 OFFCURVE",
"302 627 OFFCURVE",
"464 627 CURVE SMOOTH",
"502 627 OFFCURVE",
"542 622 OFFCURVE",
"581 613 CURVE",
"584 600 OFFCURVE",
"588 578 OFFCURVE",
"587 572 CURVE SMOOTH",
"581 511 LINE",
"656 507 LINE",
"694 686 LINE",
"633 702 OFFCURVE",
"558 720 OFFCURVE",
"474 720 CURVE SMOOTH"
);
}
);
};
layerId = "B953D09C-6DD0-450A-A78C-8C2188DD4016";
paths = (
{
closed = 1;
nodes = (
"458 -15 OFFCURVE",
"533 2 OFFCURVE",
"600 19 CURVE",
"625 189 LINE SMOOTH",
"629 217 OFFCURVE",
"643 281 OFFCURVE",
"654 336 CURVE",
"632 359 LINE",
"594 357 OFFCURVE",
"543 356 OFFCURVE",
"528 356 CURVE SMOOTH",
"420 356 LINE",
"403 268 LINE",
"561 255 LINE",
"504 316 LINE",
"507 239 OFFCURVE",
"506 209 OFFCURVE",
"505 196 CURVE SMOOTH",
"480 26 LINE",
"522 88 LINE",
"481 79 OFFCURVE",
"427 69 OFFCURVE",
"379 69 CURVE SMOOTH",
"270 69 OFFCURVE",
"223 163 OFFCURVE",
"223 284 CURVE SMOOTH",
"223 460 OFFCURVE",
"294 636 OFFCURVE",
"460 636 CURVE SMOOTH",
"509 636 OFFCURVE",
"565 626 OFFCURVE",
"617 609 CURVE",
"575 648 LINE",
"579 630 OFFCURVE",
"587 588 OFFCURVE",
"586 576 CURVE SMOOTH",
"580 519 LINE",
"651 515 LINE",
"687 686 LINE",
"626 702 OFFCURVE",
"553 720 OFFCURVE",
"470 720 CURVE SMOOTH",
"205 720 OFFCURVE",
"63 534 OFFCURVE",
"63 289 CURVE SMOOTH",
"63 108 OFFCURVE",
"167 -15 OFFCURVE",
"370 -15 CURVE SMOOTH"
);
}
);
width = 708;
}
);
leftKerningGroup = O;
rightKerningGroup = G;
unicode = 0047;
},
{
glyphname = H;
layers = (
{
anchors = (
{
name = bottom;
position = "{342, 0}";
},
{
name = center;
position = "{415, 520}";
},
{
name = top;
position = "{443, 720}";
},
{
name = topleft;
position = "{94, 705}";
}
);
background = {
paths = (
{
closed = 1;
nodes = (
"559 383 LINE",
"230 378 LINE",
"222 327 LINE",
"551 327 LINE"
);
},
{
closed = 1;
nodes = (
"362 710 LINE",
"362 710 OFFCURVE",
"290 705 OFFCURVE",
"230 705 CURVE SMOOTH",
"210 705 OFFCURVE",
"115 710 OFFCURVE",
"115 710 CURVE",
"102 656 LINE",
"175 644 LINE",
"175 631 OFFCURVE",
"175 585 OFFCURVE",
"172 568 CURVE SMOOTH",
"109 137 LINE SMOOTH",
"107 120 OFFCURVE",
"93 74 OFFCURVE",
"90 61 CURVE",
"11 45 LINE",
"9 -5 LINE",
"9 -5 OFFCURVE",
"119 0 OFFCURVE",
"144 0 CURVE SMOOTH",
"223 0 OFFCURVE",
"267 0 OFFCURVE",
"267 0 CURVE",
"281 54 LINE",
"196 61 LINE",
"196 75 OFFCURVE",
"199 125 OFFCURVE",
"205 167 CURVE SMOOTH",
"259 538 LINE SMOOTH",
"265 580 OFFCURVE",
"277 630 OFFCURVE",
"281 644 CURVE",
"357 651 LINE"
);
},
{
closed = 1;
nodes = (
"771 710 LINE",
"771 710 OFFCURVE",
"699 705 OFFCURVE",
"639 705 CURVE SMOOTH",
"619 705 OFFCURVE",
"524 710 OFFCURVE",
"524 710 CURVE",
"511 656 LINE",
"584 644 LINE",
"584 631 OFFCURVE",
"584 585 OFFCURVE",
"581 568 CURVE SMOOTH",
"518 137 LINE SMOOTH",
"516 120 OFFCURVE",
"502 74 OFFCURVE",
"499 61 CURVE",
"420 45 LINE",
"418 -5 LINE",
"418 -5 OFFCURVE",
"528 0 OFFCURVE",
"553 0 CURVE SMOOTH",
"632 0 OFFCURVE",
"676 0 OFFCURVE",
"676 0 CURVE",
"690 54 LINE",
"605 61 LINE",
"605 75 OFFCURVE",
"608 125 OFFCURVE",
"614 167 CURVE SMOOTH",
"668 538 LINE SMOOTH",
"674 580 OFFCURVE",
"686 630 OFFCURVE",
"690 644 CURVE",
"766 651 LINE"
);
}
);
};
layerId = "08C09966-8326-41C9-AE3D-74AAC6FC1D13";
paths = (
{
closed = 1;
nodes = (
"463 -3 OFFCURVE",
"528 0 OFFCURVE",
"553 0 CURVE SMOOTH",
"676 0 LINE",
"690 54 LINE",
"569 64 LINE",
"605 28 LINE",
"603 59 OFFCURVE",
"609 130 OFFCURVE",
"614 167 CURVE SMOOTH",
"668 538 LINE SMOOTH",
"674 579 OFFCURVE",
"692 655 OFFCURVE",
"699 680 CURVE",
"654 641 LINE",
"766 651 LINE",
"771 710 LINE",
"727 708 OFFCURVE",
"673 705 OFFCURVE",
"639 705 CURVE SMOOTH",
"621 705 OFFCURVE",
"562 708 OFFCURVE",
"524 710 CURVE",
"511 656 LINE",
"620 638 LINE",
"584 680 LINE",
"585 656 OFFCURVE",
"584 588 OFFCURVE",
"581 568 CURVE SMOOTH",
"518 137 LINE SMOOTH",
"515 117 OFFCURVE",
"496 51 OFFCURVE",
"489 24 CURVE",
"535 68 LINE",
"420 45 LINE",
"418 -5 LINE"
);
},
{
closed = 1;
nodes = (
"54 -3 OFFCURVE",
"119 0 OFFCURVE",
"144 0 CURVE SMOOTH",
"267 0 LINE",
"281 54 LINE",
"160 64 LINE",
"196 28 LINE",
"194 59 OFFCURVE",
"200 130 OFFCURVE",
"205 167 CURVE SMOOTH",
"259 538 LINE SMOOTH",
"265 579 OFFCURVE",
"283 655 OFFCURVE",
"290 680 CURVE",
"245 641 LINE",
"357 651 LINE",
"362 710 LINE",
"318 708 OFFCURVE",
"264 705 OFFCURVE",
"230 705 CURVE SMOOTH",
"212 705 OFFCURVE",
"153 708 OFFCURVE",
"115 710 CURVE",
"102 656 LINE",
"211 638 LINE",
"175 680 LINE",
"176 656 OFFCURVE",
"175 588 OFFCURVE",
"172 568 CURVE SMOOTH",
"109 137 LINE SMOOTH",
"106 117 OFFCURVE",
"87 51 OFFCURVE",
"80 24 CURVE",
"126 68 LINE",
"11 45 LINE",
"9 -5 LINE"
);
},
{
closed = 1;
nodes = (
"571 327 LINE",
"579 383 LINE",
"210 378 LINE",
"202 327 LINE"
);
}
);
width = 757;
},
{
anchors = (
{
name = bottom;
position = "{361, 0}";
},
{
name = center;
position = "{433, 520}";
},
{
name = top;
position = "{462, 720}";
},
{
name = topleft;
position = "{97, 705}";
}
);
background = {
paths = (
{
closed = 1;
nodes = (
"559 393 LINE",
"283 389 LINE",
"271 302 LINE",
"545 302 LINE"
);
},
{
closed = 1;
nodes = (
"402 710 LINE",
"402 710 OFFCURVE",
"314 705 OFFCURVE",
"234 705 CURVE SMOOTH",
"204 705 OFFCURVE",
"114 710 OFFCURVE",
"114 710 CURVE",
"98 635 LINE",
"159 623 LINE",
"158 607 OFFCURVE",
"158 562 OFFCURVE",
"151 512 CURVE SMOOTH",
"100 163 LINE SMOOTH",
"97 143 OFFCURVE",
"81 87 OFFCURVE",
"79 77 CURVE",
"14 65 LINE",
"9 -5 LINE",
"9 -5 OFFCURVE",
"129 0 OFFCURVE",
"159 0 CURVE",
"297 0 LINE",
"312 71 LINE",
"251 77 LINE",
"252 91 OFFCURVE",
"252 143 OFFCURVE",
"260 193 CURVE SMOOTH",
"310 542 LINE SMOOTH",
"313 562 OFFCURVE",
"326 608 OFFCURVE",
"331 623 CURVE",
"395 629 LINE"
);
},
{
closed = 1;
nodes = (
"822 710 LINE",
"822 710 OFFCURVE",
"734 705 OFFCURVE",
"654 705 CURVE SMOOTH",
"624 705 OFFCURVE",
"534 710 OFFCURVE",
"534 710 CURVE",
"518 635 LINE",
"579 623 LINE",
"578 607 OFFCURVE",
"578 562 OFFCURVE",
"571 512 CURVE SMOOTH",
"520 163 LINE SMOOTH",
"517 143 OFFCURVE",
"501 87 OFFCURVE",
"499 77 CURVE",
"434 65 LINE",
"429 -5 LINE",
"429 -5 OFFCURVE",
"549 0 OFFCURVE",
"579 0 CURVE",
"717 0 LINE",
"732 71 LINE",
"671 77 LINE",
"672 91 OFFCURVE",
"672 143 OFFCURVE",
"680 193 CURVE SMOOTH",
"730 542 LINE SMOOTH",
"733 562 OFFCURVE",
"746 608 OFFCURVE",
"751 623 CURVE",
"815 629 LINE"
);
}
);
};
layerId = "B953D09C-6DD0-450A-A78C-8C2188DD4016";
paths = (
{
closed = 1;
nodes = (
"476 -3 OFFCURVE",
"545 0 OFFCURVE",
"574 0 CURVE SMOOTH",
"708 0 LINE",
"723 66 LINE",
"599 79 LINE",
"656 39 LINE",
"655 62 OFFCURVE",
"656 132 OFFCURVE",
"664 186 CURVE SMOOTH",
"715 541 LINE SMOOTH",
"720 575 OFFCURVE",
"741 645 OFFCURVE",
"747 666 CURVE",
"681 623 LINE",
"804 635 LINE",
"810 710 LINE",
"757 708 OFFCURVE",
"695 705 OFFCURVE",
"651 705 CURVE SMOOTH",
"632 705 OFFCURVE",
"572 708 OFFCURVE",
"533 710 CURVE",
"517 640 LINE",
"637 618 LINE",
"581 666 LINE",
"581 640 OFFCURVE",
"582 575 OFFCURVE",
"575 526 CURVE SMOOTH",
"520 156 LINE SMOOTH",
"517 134 OFFCURVE",
"499 71 OFFCURVE",
"492 47 CURVE",
"556 83 LINE",
"432 60 LINE",
"427 -5 LINE"
);
},
{
closed = 1;
nodes = (
"59 -3 OFFCURVE",
"127 0 OFFCURVE",
"156 0 CURVE SMOOTH",
"291 0 LINE",
"305 66 LINE",
"182 79 LINE",
"238 39 LINE",
"238 59 OFFCURVE",
"239 130 OFFCURVE",
"247 186 CURVE SMOOTH",
"298 541 LINE SMOOTH",
"303 574 OFFCURVE",
"322 639 OFFCURVE",
"329 666 CURVE",
"263 623 LINE",
"387 635 LINE",
"393 710 LINE",
"340 708 OFFCURVE",
"277 705 OFFCURVE",
"234 705 CURVE SMOOTH",
"215 705 OFFCURVE",
"155 708 OFFCURVE",
"115 710 CURVE",
"100 640 LINE",
"220 618 LINE",
"164 666 LINE",
"164 641 OFFCURVE",
"164 573 OFFCURVE",
"157 526 CURVE SMOOTH",
"103 156 LINE SMOOTH",
"99 130 OFFCURVE",
"82 73 OFFCURVE",
"75 47 CURVE",
"138 83 LINE",
"14 60 LINE",
"10 -5 LINE"
);
},
{
closed = 1;
nodes = (
"568 308 LINE",
"580 391 LINE",
"251 386 LINE",
"240 308 LINE"
);
}
);
width = 791;
}
);
leftKerningGroup = H;
rightKerningGroup = H;
unicode = 0048;
},
{
glyphname = I;
layers = (
{
anchors = (
{
name = bottom;
position = "{138, 0}";
},
{
name = ogonek;
position = "{270, 10}";
},
{
name = top;
position = "{239, 720}";
},
{
name = topleft;
position = "{94, 705}";
}
);
background = {
paths = (
{
closed = 1;
nodes = (
"362 710 LINE",
"362 710 OFFCURVE",
"290 705 OFFCURVE",
"230 705 CURVE SMOOTH",
"210 705 OFFCURVE",
"115 710 OFFCURVE",
"115 710 CURVE",
"102 656 LINE",
"175 644 LINE",
"175 631 OFFCURVE",
"174 583 OFFCURVE",
"172 568 CURVE SMOOTH",
"109 137 LINE SMOOTH",
"107 122 OFFCURVE",
"93 74 OFFCURVE",
"90 61 CURVE",
"11 45 LINE",
"9 -5 LINE",
"9 -5 OFFCURVE",
"119 0 OFFCURVE",
"144 0 CURVE",
"267 0 LINE",
"281 54 LINE",
"196 61 LINE",
"196 75 OFFCURVE",
"201 137 OFFCURVE",
"205 167 CURVE SMOOTH",
"259 538 LINE SMOOTH",
"263 568 OFFCURVE",
"277 630 OFFCURVE",
"281 644 CURVE",
"357 651 LINE"
);
}
);
};
layerId = "08C09966-8326-41C9-AE3D-74AAC6FC1D13";
paths = (
{
closed = 1;
nodes = (
"54 -3 OFFCURVE",
"119 0 OFFCURVE",
"144 0 CURVE SMOOTH",
"267 0 LINE",
"281 54 LINE",
"160 64 LINE",
"196 28 LINE",
"194 59 OFFCURVE",
"200 130 OFFCURVE",
"205 167 CURVE SMOOTH",
"259 538 LINE SMOOTH",
"265 579 OFFCURVE",
"283 655 OFFCURVE",
"290 680 CURVE",
"245 641 LINE",
"357 651 LINE",
"362 710 LINE",
"318 708 OFFCURVE",
"264 705 OFFCURVE",
"230 705 CURVE SMOOTH",
"212 705 OFFCURVE",
"153 708 OFFCURVE",
"115 710 CURVE",
"102 656 LINE",
"211 638 LINE",
"175 680 LINE",
"176 656 OFFCURVE",
"175 588 OFFCURVE",
"172 568 CURVE SMOOTH",
"109 137 LINE SMOOTH",
"106 117 OFFCURVE",
"87 51 OFFCURVE",
"80 24 CURVE",
"126 68 LINE",
"11 45 LINE",
"9 -5 LINE"
);
}
);
width = 348;
},
{
anchors = (
{
name = bottom;
position = "{153, 0}";
},
{
name = ogonek;
position = "{294, 10}";
},
{
name = top;
position = "{254, 720}";
},
{
name = topleft;
position = "{97, 705}";
}
);
background = {
paths = (
{
closed = 1;
nodes = (
"402 710 LINE",
"402 710 OFFCURVE",
"314 705 OFFCURVE",
"234 705 CURVE SMOOTH",
"204 705 OFFCURVE",
"114 710 OFFCURVE",
"114 710 CURVE",
"98 635 LINE",
"159 623 LINE",
"159 608 OFFCURVE",
"158 562 OFFCURVE",
"151 512 CURVE SMOOTH",
"100 163 LINE SMOOTH",
"97 143 OFFCURVE",
"84 92 OFFCURVE",
"79 77 CURVE",
"14 65 LINE",
"9 -5 LINE",
"9 -5 OFFCURVE",
"129 0 OFFCURVE",
"159 0 CURVE",
"297 0 LINE",
"312 70 LINE",
"251 77 LINE",
"251 92 OFFCURVE",
"252 143 OFFCURVE",
"260 193 CURVE SMOOTH",
"310 542 LINE SMOOTH",
"313 562 OFFCURVE",
"326 608 OFFCURVE",
"331 623 CURVE",
"395 629 LINE"
);
}
);
};
guideLines = (
{
angle = 261.6;
position = "{346, 395}";
}
);
layerId = "B953D09C-6DD0-450A-A78C-8C2188DD4016";
paths = (
{
closed = 1;
nodes = (
"59 -3 OFFCURVE",
"127 0 OFFCURVE",
"156 0 CURVE SMOOTH",
"291 0 LINE",
"305 66 LINE",
"182 79 LINE",
"238 39 LINE",
"238 59 OFFCURVE",
"239 130 OFFCURVE",
"247 186 CURVE SMOOTH",
"298 541 LINE SMOOTH",
"303 574 OFFCURVE",
"322 639 OFFCURVE",
"329 666 CURVE",
"263 623 LINE",
"387 635 LINE",
"393 710 LINE",
"340 708 OFFCURVE",
"277 705 OFFCURVE",
"234 705 CURVE SMOOTH",
"215 705 OFFCURVE",
"155 708 OFFCURVE",
"115 710 CURVE",
"100 640 LINE",
"220 618 LINE",
"164 666 LINE",
"164 641 OFFCURVE",
"164 573 OFFCURVE",
"157 526 CURVE SMOOTH",
"103 156 LINE SMOOTH",
"99 130 OFFCURVE",
"82 73 OFFCURVE",
"75 47 CURVE",
"138 83 LINE",
"14 60 LINE",
"10 -5 LINE"
);
}
);
width = 378;
}
);
leftKerningGroup = H;
rightKerningGroup = H;
unicode = 0049;
},
{
glyphname = IJ;
layers = (
{
background = {
paths = (
{
closed = 1;
nodes = (
"398 705 LINE",
"236 705 LINE",
"216 705 OFFCURVE",
"121 710 OFFCURVE",
"121 710 CURVE",
"108 656 LINE",
"181 644 LINE",
"181 631 OFFCURVE",
"181 585 OFFCURVE",
"178 568 CURVE SMOOTH",
"115 137 LINE SMOOTH",
"113 120 OFFCURVE",
"99 74 OFFCURVE",
"96 61 CURVE",
"17 45 LINE",
"15 -5 LINE",
"15 -5 OFFCURVE",
"125 0 OFFCURVE",
"150 0 CURVE",
"273 0 LINE",
"287 54 LINE",
"202 61 LINE",
"202 75 OFFCURVE",
"205 125 OFFCURVE",
"211 167 CURVE SMOOTH",
"265 538 LINE SMOOTH",
"271 580 OFFCURVE",
"283 630 OFFCURVE",
"287 644 CURVE",
"412 660 LINE"
);
},
{
closed = 1;
nodes = (
"566 538 LINE SMOOTH",
"572 580 OFFCURVE",
"584 630 OFFCURVE",
"588 644 CURVE",
"664 651 LINE",
"669 710 LINE",
"669 710 OFFCURVE",
"597 705 OFFCURVE",
"537 705 CURVE",
"388 705 LINE",
"379 656 LINE",
"482 644 LINE",
"482 631 OFFCURVE",
"482 585 OFFCURVE",
"479 568 CURVE SMOOTH",
"398 11 LINE",
"395 -9 OFFCURVE",
"293 -178 OFFCURVE",
"293 -178 CURVE",
"324 -200 LINE",
"379 -144 OFFCURVE",
"482 -37 OFFCURVE",
"486 -10 CURVE SMOOTH"
);
}
);
};
components = (
{
name = I;
},
{
name = J;
transform = "{1, 0, 0, 1, 348, 0}";
}
);
layerId = "08C09966-8326-41C9-AE3D-74AAC6FC1D13";
width = 664;
},
{
background = {
paths = (
{
closed = 1;
nodes = (
"440 705 LINE",
"242 705 LINE",
"212 705 OFFCURVE",
"122 710 OFFCURVE",
"122 710 CURVE",
"106 635 LINE",
"167 623 LINE",
"166 607 OFFCURVE",
"166 562 OFFCURVE",
"159 512 CURVE SMOOTH",
"108 163 LINE SMOOTH",
"105 143 OFFCURVE",
"89 87 OFFCURVE",
"87 77 CURVE",
"22 65 LINE",
"17 -5 LINE",
"17 -5 OFFCURVE",
"137 0 OFFCURVE",
"167 0 CURVE",
"305 0 LINE",
"320 71 LINE",
"259 77 LINE",
"260 91 OFFCURVE",
"260 143 OFFCURVE",
"268 193 CURVE SMOOTH",
"318 542 LINE SMOOTH",
"321 562 OFFCURVE",
"334 608 OFFCURVE",
"339 623 CURVE",
"433 633 LINE"
);
},
{
closed = 1;
nodes = (
"651 542 LINE SMOOTH",
"654 562 OFFCURVE",
"667 608 OFFCURVE",
"672 623 CURVE",
"736 629 LINE",
"743 710 LINE",
"743 710 OFFCURVE",
"655 705 OFFCURVE",
"575 705 CURVE",
"425 705 LINE",
"415 633 LINE",
"500 623 LINE",
"499 607 OFFCURVE",
"499 562 OFFCURVE",
"492 512 CURVE SMOOTH",
"419 11 LINE",
"416 -9 OFFCURVE",
"319 -169 OFFCURVE",
"319 -169 CURVE",
"369 -200 LINE",
"478 -111 OFFCURVE",
"569 -23 OFFCURVE",
"574 10 CURVE"
);
}
);
};
components = (
{
name = I;
},
{
name = J;
transform = "{1, 0, 0, 1, 378, 0}";
}
);
layerId = "B953D09C-6DD0-450A-A78C-8C2188DD4016";
width = 727;
}
);
leftKerningGroup = H;
rightKerningGroup = J;
unicode = 0132;
},
{
glyphname = Iacute;
layers = (
{
anchors = (
{
name = top;
position = "{277, 995}";
}
);
components = (
{
name = I;
}
);
layerId = "08C09966-8326-41C9-AE3D-74AAC6FC1D13";
paths = (
{
closed = 1;
nodes = (
"385 845 LINE",
"364 908 LINE",
"125 794 LINE",
"137 753 LINE"
);
}
);
width = 348;
},
{
anchors = (
{
name = top;
position = "{294, 1015}";
}
);
components = (
{
name = I;
}
);
layerId = "B953D09C-6DD0-450A-A78C-8C2188DD4016";
paths = (
{
closed = 1;
nodes = (
"407 831 LINE",
"384 907 LINE",
"133 804 LINE",
"151 752 LINE"
);
}
);
width = 378;
}
);
leftKerningGroup = H;
rightKerningGroup = H;
unicode = 00CD;
},
{
glyphname = Icircumflex;
layers = (
{
anchors = (
{
name = top;
position = "{276, 995}";
}
);
components = (
{
name = I;
}
);
layerId = "08C09966-8326-41C9-AE3D-74AAC6FC1D13";
paths = (
{
closed = 1;
nodes = (
"300 840 LINE",
"273 879 LINE",
"232 879 LINE",
"79 789 LINE",
"97 753 LINE"
);
},
{
closed = 1;
nodes = (
"426 784 LINE",
"299 879 LINE",
"258 879 LINE",
"219 840 LINE",
"398 748 LINE"
);
}
);
width = 348;
},
{
anchors = (
{
name = top;
position = "{294, 1015}";
}
);
components = (
{
name = I;
}
);
layerId = "B953D09C-6DD0-450A-A78C-8C2188DD4016";
paths = (
{
closed = 1;
nodes = (
"453 787 LINE",
"330 892 LINE",
"267 892 LINE",
"226 841 LINE",
"413 742 LINE"
);
},
{
closed = 1;
nodes = (
"322 841 LINE",
"295 892 LINE",
"232 892 LINE",
"83 797 LINE",
"111 752 LINE"
);
}
);
width = 378;
}
);
leftKerningGroup = H;
rightKerningGroup = H;
unicode = 00CE;
},
{
glyphname = Igrave;
layers = (
{
anchors = (
{
name = top;
position = "{267, 995}";
}
);
components = (
{
name = I;
}
);
layerId = "08C09966-8326-41C9-AE3D-74AAC6FC1D13";
paths = (
{
closed = 1;
nodes = (
"368 794 LINE",
"161 908 LINE",
"122 845 LINE",
"344 753 LINE"
);
}
);
width = 348;
},
{
anchors = (
{
name = top;
position = "{284, 1015}";
}
);
components = (
{
name = I;
}
);
layerId = "B953D09C-6DD0-450A-A78C-8C2188DD4016";
paths = (
{
closed = 1;
nodes = (
"393 804 LINE",
"172 907 LINE",
"127 831 LINE",
"361 752 LINE"
);
}
);
width = 378;
}
);
leftKerningGroup = H;
rightKerningGroup = H;
unicode = 00CC;
},
{
glyphname = Itilde;
layers = (
{
anchors = (
{
name = top;
position = "{275, 995}";
}
);
components = (
{
name = I;
}
);
layerId = "08C09966-8326-41C9-AE3D-74AAC6FC1D13";
paths = (
{
closed = 1;
nodes = (
"121 747 OFFCURVE",
"155 800 OFFCURVE",
"181 800 CURVE SMOOTH",
"221 800 OFFCURVE",
"279 759 OFFCURVE",
"318 759 CURVE SMOOTH",
"358 759 OFFCURVE",
"415 858 OFFCURVE",
"415 858 CURVE",
"383 878 LINE",
"383 878 OFFCURVE",
"349 827 OFFCURVE",
"322 827 CURVE SMOOTH",
"282 827 OFFCURVE",
"224 868 OFFCURVE",
"184 868 CURVE SMOOTH",
"145 868 OFFCURVE",
"89 767 OFFCURVE",
"89 767 CURVE",
"121 747 LINE"
);
}
);
width = 348;
},
{
anchors = (
{
name = top;
position = "{294, 1015}";
}
);
components = (
{
name = I;
}
);
layerId = "B953D09C-6DD0-450A-A78C-8C2188DD4016";
paths = (
{
closed = 1;
nodes = (
"136 747 OFFCURVE",
"168 793 OFFCURVE",
"193 793 CURVE SMOOTH",
"235 793 OFFCURVE",
"296 754 OFFCURVE",
"338 754 CURVE SMOOTH",
"380 754 OFFCURVE",
"438 854 OFFCURVE",
"438 854 CURVE",
"398 879 LINE",
"398 879 OFFCURVE",
"368 837 OFFCURVE",
"343 837 CURVE SMOOTH",
"302 837 OFFCURVE",
"239 876 OFFCURVE",
"197 876 CURVE SMOOTH",
"156 876 OFFCURVE",
"97 772 OFFCURVE",
"97 772 CURVE",
"136 747 LINE"
);
}
);
width = 378;
}
);
leftKerningGroup = H;
rightKerningGroup = H;
unicode = 0128;
},
{
glyphname = J;
layers = (
{
anchors = (
{
name = bottom;
position = "{127.672, 0}";
},
{
name = top;
position = "{214.235, 705}";
}
);
background = {
paths = (
{
closed = 1;
nodes = (
"244 538 LINE SMOOTH",
"248 568 OFFCURVE",
"262 630 OFFCURVE",
"266 644 CURVE",
"342 651 LINE",
"347 710 LINE",
"347 710 OFFCURVE",
"275 705 OFFCURVE",
"215 705 CURVE",
"177 705 OFFCURVE",
"138 708 OFFCURVE",
"100 710 CURVE",
"87 656 LINE",
"160 644 LINE",
"160 631 OFFCURVE",
"159 583 OFFCURVE",
"157 568 CURVE SMOOTH",
"76 11 LINE",
"73 -9 OFFCURVE",
"-29 -178 OFFCURVE",
"-29 -178 CURVE",
"2 -200 LINE",
"57 -144 OFFCURVE",
"160 -37 OFFCURVE",
"164 -10 CURVE SMOOTH"
);
}
);
};
layerId = "08C09966-8326-41C9-AE3D-74AAC6FC1D13";
paths = (
{
closed = 1;
nodes = (
"57 -144 OFFCURVE",
"160 -37 OFFCURVE",
"164 -10 CURVE SMOOTH",
"244 538 LINE SMOOTH",
"250 579 OFFCURVE",
"268 655 OFFCURVE",
"275 680 CURVE",
"230 641 LINE",
"342 651 LINE",
"347 710 LINE",
"303 708 OFFCURVE",
"249 705 OFFCURVE",
"215 705 CURVE SMOOTH",
"197 705 OFFCURVE",
"138 708 OFFCURVE",
"100 710 CURVE",
"87 656 LINE",
"196 638 LINE",
"160 680 LINE",
"161 656 OFFCURVE",
"160 588 OFFCURVE",
"157 568 CURVE SMOOTH",
"76 11 LINE SMOOTH",
"73 -9 OFFCURVE",
"-29 -178 OFFCURVE",
"-29 -178 CURVE",
"2 -200 LINE"
);
}
);
width = 316;
},
{
anchors = (
{
name = bottom;
position = "{144.672, 0}";
},
{
name = top;
position = "{231.235, 705}";
}
);
background = {
paths = (
{
closed = 1;
nodes = (
"66 11 LINE",
"63 -9 OFFCURVE",
"-34 -169 OFFCURVE",
"-34 -169 CURVE",
"16 -200 LINE",
"125 -111 OFFCURVE",
"216 -23 OFFCURVE",
"221 10 CURVE",
"298 542 LINE SMOOTH",
"301 562 OFFCURVE",
"314 608 OFFCURVE",
"319 623 CURVE",
"383 629 LINE",
"390 710 LINE",
"390 710 OFFCURVE",
"302 705 OFFCURVE",
"222 705 CURVE",
"182 705 OFFCURVE",
"142 708 OFFCURVE",
"102 710 CURVE",
"86 635 LINE",
"147 623 LINE",
"147 608 OFFCURVE",
"146 562 OFFCURVE",
"139 512 CURVE SMOOTH"
);
}
);
};
layerId = "B953D09C-6DD0-450A-A78C-8C2188DD4016";
paths = (
{
closed = 1;
nodes = (
"109 -119 OFFCURVE",
"202 -26 OFFCURVE",
"207 5 CURVE SMOOTH",
"285 541 LINE",
"290 574 OFFCURVE",
"309 639 OFFCURVE",
"316 666 CURVE",
"250 623 LINE",
"374 635 LINE",
"380 710 LINE",
"327 708 OFFCURVE",
"264 705 OFFCURVE",
"221 705 CURVE SMOOTH",
"202 705 OFFCURVE",
"142 708 OFFCURVE",
"102 710 CURVE",
"87 640 LINE",
"207 618 LINE",
"151 666 LINE",
"151 646 OFFCURVE",
"152 576 OFFCURVE",
"144 526 CURVE",
"69 11 LINE SMOOTH",
"66 -9 OFFCURVE",
"-32 -171 OFFCURVE",
"-32 -171 CURVE",
"13 -200 LINE"
);
}
);
width = 349;
}
);
leftKerningGroup = J;
rightKerningGroup = J;
unicode = 004A;
},
{
glyphname = K;
layers = (
{
anchors = (
{
name = bottom;
position = "{312, 0}";
},
{
name = top;
position = "{413, 720}";
}
);
background = {
paths = (
{
closed = 1;
nodes = (
"641 54 LINE",
"575 61 LINE",
"555 81 OFFCURVE",
"523 113 OFFCURVE",
"511 129 CURVE",
"456 209 OFFCURVE",
"398 290 OFFCURVE",
"342 370 CURVE",
"502 546 LINE",
"535 576 OFFCURVE",
"579 620 OFFCURVE",
"608 644 CURVE",
"682 651 LINE",
"686 710 LINE",
"686 710 OFFCURVE",
"621 705 OFFCURVE",
"561 705 CURVE SMOOTH",
"541 705 OFFCURVE",
"459 710 OFFCURVE",
"459 710 CURVE",
"446 656 LINE",
"496 645 LINE",
"449 577 LINE",
"241 353 LINE",
"241 353 OFFCURVE",
"356 188 OFFCURVE",
"372 164 CURVE",
"386 142 OFFCURVE",
"413 85 OFFCURVE",
"425 59 CURVE",
"366 45 LINE",
"364 -5 LINE",
"364 -5 OFFCURVE",
"474 0 OFFCURVE",
"499 0 CURVE SMOOTH",
"578 0 OFFCURVE",
"627 0 OFFCURVE",
"627 0 CURVE"
);
},
{
closed = 1;
nodes = (
"362 710 LINE",
"362 710 OFFCURVE",
"290 705 OFFCURVE",
"230 705 CURVE SMOOTH",
"210 705 OFFCURVE",
"115 710 OFFCURVE",
"115 710 CURVE",
"102 656 LINE",
"175 644 LINE",
"175 631 OFFCURVE",
"174 583 OFFCURVE",
"172 568 CURVE SMOOTH",
"109 137 LINE SMOOTH",
"107 122 OFFCURVE",
"93 74 OFFCURVE",
"90 61 CURVE",
"11 45 LINE",
"9 -5 LINE",
"9 -5 OFFCURVE",
"119 0 OFFCURVE",
"144 0 CURVE SMOOTH",
"223 0 OFFCURVE",
"267 0 OFFCURVE",
"267 0 CURVE",
"281 54 LINE",
"196 61 LINE",
"196 75 OFFCURVE",
"201 137 OFFCURVE",
"205 167 CURVE SMOOTH",
"259 538 LINE SMOOTH",
"263 568 OFFCURVE",
"277 630 OFFCURVE",
"281 644 CURVE",
"357 651 LINE"
);
}
);
};
layerId = "08C09966-8326-41C9-AE3D-74AAC6FC1D13";
paths = (
{
closed = 1;
nodes = (
"409 -3 OFFCURVE",
"474 0 OFFCURVE",
"499 0 CURVE SMOOTH",
"627 0 LINE",
"641 54 LINE",
"539 65 LINE",
"588 48 LINE",
"573 63 OFFCURVE",
"525 109 OFFCURVE",
"511 129 CURVE SMOOTH",
"328 390 LINE",
"317 343 LINE",
"502 546 LINE SMOOTH",
"519 564 OFFCURVE",
"592 632 OFFCURVE",
"621 654 CURVE",
"572 641 LINE",
"682 651 LINE",
"686 710 LINE",
"644 708 OFFCURVE",
"593 705 OFFCURVE",
"561 705 CURVE SMOOTH",
"541 705 OFFCURVE",
"493 708 OFFCURVE",
"459 710 CURVE",
"446 656 LINE",
"532 637 LINE",
"517 675 LINE",
"495 642 OFFCURVE",
"461 590 OFFCURVE",
"449 577 CURVE SMOOTH",
"241 353 LINE",
"372 164 LINE SMOOTH",
"390 138 OFFCURVE",
"424 60 OFFCURVE",
"430 47 CURVE",
"460 67 LINE",
"366 45 LINE",
"364 -5 LINE"
);
},
{
closed = 1;
nodes = (
"54 -3 OFFCURVE",
"119 0 OFFCURVE",
"144 0 CURVE SMOOTH",
"267 0 LINE",
"281 54 LINE",
"160 64 LINE",
"196 28 LINE",
"194 59 OFFCURVE",
"200 130 OFFCURVE",
"205 167 CURVE SMOOTH",
"259 538 LINE SMOOTH",
"265 579 OFFCURVE",
"283 655 OFFCURVE",
"290 680 CURVE",
"245 641 LINE",
"357 651 LINE",
"362 710 LINE",
"318 708 OFFCURVE",
"264 705 OFFCURVE",
"230 705 CURVE SMOOTH",
"212 705 OFFCURVE",
"153 708 OFFCURVE",
"115 710 CURVE",
"102 656 LINE",
"211 638 LINE",
"175 680 LINE",
"176 656 OFFCURVE",
"175 588 OFFCURVE",
"172 568 CURVE SMOOTH",
"109 137 LINE SMOOTH",
"106 117 OFFCURVE",
"87 51 OFFCURVE",
"80 24 CURVE",
"126 68 LINE",
"11 45 LINE",
"9 -5 LINE"
);
}
);
width = 702;
},
{
anchors = (
{
name = bottom;
position = "{339, 0}";
},
{
name = top;
position = "{440, 720}";
}
);
background = {
paths = (
{
closed = 1;
nodes = (
"709 71 LINE",
"665 77 LINE",
"649 94 OFFCURVE",
"629 117 OFFCURVE",
"621 129 CURVE SMOOTH",
"458 370 LINE",
"609 546 LINE SMOOTH",
"630 570 OFFCURVE",
"664 600 OFFCURVE",
"692 623 CURVE",
"747 629 LINE",
"754 710 LINE",
"754 710 OFFCURVE",
"687 705 OFFCURVE",
"617 705 CURVE SMOOTH",
"587 705 OFFCURVE",
"497 710 OFFCURVE",
"497 710 CURVE",
"481 635 LINE",
"509 629 LINE",
"499 612 OFFCURVE",
"489 593 OFFCURVE",
"475 577 CURVE SMOOTH",
"287 353 LINE",
"403 164 LINE SMOOTH",
"415 145 OFFCURVE",
"436 98 OFFCURVE",
"447 73 CURVE",
"409 65 LINE",
"404 -5 LINE",
"404 -5 OFFCURVE",
"524 0 OFFCURVE",
"554 0 CURVE SMOOTH",
"665 0 OFFCURVE",
"694 0 OFFCURVE",
"694 0 CURVE"
);
},
{
closed = 1;
nodes = (
"402 710 LINE",
"402 710 OFFCURVE",
"314 705 OFFCURVE",
"234 705 CURVE SMOOTH",
"204 705 OFFCURVE",
"114 710 OFFCURVE",
"114 710 CURVE",
"98 635 LINE",
"159 623 LINE",
"159 608 OFFCURVE",
"158 562 OFFCURVE",
"151 512 CURVE SMOOTH",
"100 163 LINE SMOOTH",
"97 143 OFFCURVE",
"84 92 OFFCURVE",
"79 77 CURVE",
"14 65 LINE",
"9 -5 LINE",
"9 -5 OFFCURVE",
"129 0 OFFCURVE",
"159 0 CURVE",
"297 0 LINE",
"312 70 LINE",
"251 77 LINE",
"251 92 OFFCURVE",
"252 143 OFFCURVE",
"260 193 CURVE SMOOTH",
"310 542 LINE SMOOTH",
"313 562 OFFCURVE",
"326 608 OFFCURVE",
"331 623 CURVE",
"395 629 LINE"
);
}
);
};
layerId = "B953D09C-6DD0-450A-A78C-8C2188DD4016";
paths = (
{
closed = 1;
nodes = (
"444 -3 OFFCURVE",
"512 0 OFFCURVE",
"541 0 CURVE SMOOTH",
"678 0 LINE",
"693 67 LINE",
"588 81 LINE",
"663 54 LINE",
"652 62 OFFCURVE",
"610 108 OFFCURVE",
"595 129 CURVE SMOOTH",
"400 414 LINE",
"393 327 LINE",
"583 546 LINE SMOOTH",
"602 568 OFFCURVE",
"665 625 OFFCURVE",
"696 649 CURVE",
"616 622 LINE",
"732 635 LINE",
"738 710 LINE",
"693 708 OFFCURVE",
"639 705 OFFCURVE",
"604 705 CURVE SMOOTH",
"584 705 OFFCURVE",
"527 708 OFFCURVE",
"489 710 CURVE",
"473 640 LINE",
"562 621 LINE",
"528 663 LINE",
"500 619 OFFCURVE",
"484 596 OFFCURVE",
"469 577 CURVE SMOOTH",
"277 353 LINE",
"396 164 LINE SMOOTH",
"413 137 OFFCURVE",
"446 62 OFFCURVE",
"449 55 CURVE",
"498 81 LINE",
"399 60 LINE",
"395 -5 LINE"
);
},
{
closed = 1;
nodes = (
"59 -3 OFFCURVE",
"127 0 OFFCURVE",
"156 0 CURVE SMOOTH",
"291 0 LINE",
"305 66 LINE",
"182 79 LINE",
"238 39 LINE",
"238 59 OFFCURVE",
"239 130 OFFCURVE",
"247 186 CURVE SMOOTH",
"298 541 LINE SMOOTH",
"303 574 OFFCURVE",
"322 639 OFFCURVE",
"329 666 CURVE",
"263 623 LINE",
"387 635 LINE",
"393 710 LINE",
"340 708 OFFCURVE",
"277 705 OFFCURVE",
"234 705 CURVE SMOOTH",
"215 705 OFFCURVE",
"155 708 OFFCURVE",
"115 710 CURVE",
"100 640 LINE",
"220 618 LINE",
"164 666 LINE",
"164 641 OFFCURVE",
"164 573 OFFCURVE",
"157 526 CURVE SMOOTH",
"103 156 LINE SMOOTH",
"99 130 OFFCURVE",
"82 73 OFFCURVE",
"75 47 CURVE",
"138 83 LINE",
"14 60 LINE",
"10 -5 LINE"
);
}
);
width = 752;
}
);
leftKerningGroup = H;
rightKerningGroup = X;
unicode = 004B;
},
{
glyphname = L;
layers = (
{
anchors = (
{
name = bottom;
position = "{249, 0}";
},
{
name = center;
position = "{190, 355}";
},
{
name = centerright;
position = "{475, 403}";
},
{
name = top;
position = "{291, 720}";
},
{
name = topright;
position = "{468, 494}";
}
);
background = {
paths = (
{
closed = 1;
nodes = (
"144 0 LINE",
"329 0 LINE SMOOTH",
"349 0 OFFCURVE",
"439 -4 OFFCURVE",
"439 -4 CURVE",
"460 14 LINE",
"497 165 LINE",
"444 170 LINE",
"439 154 OFFCURVE",
"426 118 OFFCURVE",
"419 103 CURVE SMOOTH",
"415 94 OFFCURVE",
"405 80 OFFCURVE",
"394 66 CURVE",
"372 62 OFFCURVE",
"338 57 OFFCURVE",
"308 57 CURVE SMOOTH",
"196 57 LINE"
);
},
{
closed = 1;
nodes = (
"362 710 LINE",
"362 710 OFFCURVE",
"290 705 OFFCURVE",
"230 705 CURVE SMOOTH",
"210 705 OFFCURVE",
"115 710 OFFCURVE",
"115 710 CURVE",
"102 656 LINE",
"175 644 LINE",
"175 631 OFFCURVE",
"174 583 OFFCURVE",
"172 568 CURVE SMOOTH",
"109 137 LINE SMOOTH",
"107 122 OFFCURVE",
"93 74 OFFCURVE",
"90 61 CURVE",
"11 45 LINE",
"9 -5 LINE",
"9 -5 OFFCURVE",
"119 0 OFFCURVE",
"144 0 CURVE",
"196 57 LINE",
"196 71 OFFCURVE",
"201 137 OFFCURVE",
"205 167 CURVE SMOOTH",
"259 538 LINE SMOOTH",
"263 568 OFFCURVE",
"277 630 OFFCURVE",
"281 644 CURVE",
"357 651 LINE"
);
}
);
};
layerId = "08C09966-8326-41C9-AE3D-74AAC6FC1D13";
paths = (
{
closed = 1;
nodes = (
"54 -3 OFFCURVE",
"93 0 OFFCURVE",
"118 0 CURVE SMOOTH",
"329 0 LINE SMOOTH",
"356 0 OFFCURVE",
"402 -2 OFFCURVE",
"439 -4 CURVE",
"460 14 LINE",
"497 165 LINE",
"444 170 LINE",
"439 154 OFFCURVE",
"426 118 OFFCURVE",
"419 103 CURVE SMOOTH",
"413 89 OFFCURVE",
"392 63 OFFCURVE",
"376 44 CURVE",
"409 69 LINE",
"391 65 OFFCURVE",
"346 57 OFFCURVE",
"308 57 CURVE SMOOTH",
"160 57 LINE",
"196 28 LINE",
"194 59 OFFCURVE",
"200 130 OFFCURVE",
"205 167 CURVE SMOOTH",
"259 538 LINE SMOOTH",
"265 579 OFFCURVE",
"283 655 OFFCURVE",
"290 680 CURVE",
"245 641 LINE",
"357 651 LINE",
"362 710 LINE",
"318 708 OFFCURVE",
"264 705 OFFCURVE",
"230 705 CURVE SMOOTH",
"212 705 OFFCURVE",
"153 708 OFFCURVE",
"115 710 CURVE",
"102 656 LINE",
"211 638 LINE",
"175 680 LINE",
"176 656 OFFCURVE",
"175 588 OFFCURVE",
"172 568 CURVE SMOOTH",
"109 137 LINE SMOOTH",
"106 117 OFFCURVE",
"87 51 OFFCURVE",
"80 24 CURVE",
"126 68 LINE",
"11 45 LINE",
"9 -5 LINE"
);
}
);
width = 548;
},
{
anchors = (
{
name = bottom;
position = "{275, 0}";
},
{
name = center;
position = "{207, 355}";
},
{
name = centerright;
position = "{478, 403}";
},
{
name = top;
position = "{294, 720}";
},
{
name = topright;
position = "{494, 494}";
}
);
background = {
paths = (
{
closed = 1;
nodes = (
"159 0 LINE",
"358 0 LINE SMOOTH",
"377 0 OFFCURVE",
"468 -4 OFFCURVE",
"468 -4 CURVE",
"489 14 LINE",
"529 190 LINE",
"461 195 LINE",
"457 179 OFFCURVE",
"447 153 OFFCURVE",
"441 138 CURVE",
"439 132 OFFCURVE",
"428 114 OFFCURVE",
"417 95 CURVE",
"398 91 OFFCURVE",
"370 87 OFFCURVE",
"342 87 CURVE SMOOTH",
"212 87 LINE"
);
},
{
closed = 1;
nodes = (
"412 710 LINE",
"412 710 OFFCURVE",
"314 705 OFFCURVE",
"234 705 CURVE SMOOTH",
"204 705 OFFCURVE",
"114 710 OFFCURVE",
"114 710 CURVE",
"98 635 LINE",
"159 623 LINE",
"159 608 OFFCURVE",
"158 562 OFFCURVE",
"151 512 CURVE SMOOTH",
"100 163 LINE SMOOTH",
"97 143 OFFCURVE",
"84 92 OFFCURVE",
"79 77 CURVE",
"14 65 LINE",
"9 -5 LINE",
"9 -5 OFFCURVE",
"129 0 OFFCURVE",
"159 0 CURVE",
"251 77 LINE",
"251 92 OFFCURVE",
"252 143 OFFCURVE",
"260 193 CURVE SMOOTH",
"310 542 LINE SMOOTH",
"313 562 OFFCURVE",
"326 608 OFFCURVE",
"331 623 CURVE",
"405 629 LINE"
);
}
);
};
layerId = "B953D09C-6DD0-450A-A78C-8C2188DD4016";
paths = (
{
closed = 1;
nodes = (
"59 -3 OFFCURVE",
"103 0 OFFCURVE",
"132 0 CURVE SMOOTH",
"352 0 LINE SMOOTH",
"377 0 OFFCURVE",
"425 -2 OFFCURVE",
"462 -4 CURVE",
"483 14 LINE",
"522 184 LINE",
"458 189 LINE",
"450 162 OFFCURVE",
"445 149 OFFCURVE",
"437 129 CURVE SMOOTH",
"429 110 OFFCURVE",
"409 79 OFFCURVE",
"378 44 CURVE",
"436 93 LINE",
"419 89 OFFCURVE",
"377 80 OFFCURVE",
"335 80 CURVE SMOOTH",
"162 80 LINE",
"238 39 LINE",
"238 59 OFFCURVE",
"239 130 OFFCURVE",
"247 186 CURVE SMOOTH",
"298 541 LINE SMOOTH",
"303 574 OFFCURVE",
"322 639 OFFCURVE",
"329 666 CURVE",
"263 623 LINE",
"387 635 LINE",
"393 710 LINE",
"340 708 OFFCURVE",
"277 705 OFFCURVE",
"234 705 CURVE SMOOTH",
"215 705 OFFCURVE",
"155 708 OFFCURVE",
"115 710 CURVE",
"100 640 LINE",
"220 618 LINE",
"164 666 LINE",
"164 641 OFFCURVE",
"164 573 OFFCURVE",
"157 526 CURVE SMOOTH",
"103 156 LINE SMOOTH",
"99 130 OFFCURVE",
"82 73 OFFCURVE",
"75 47 CURVE",
"138 83 LINE",
"14 60 LINE",
"10 -5 LINE"
);
}
);
width = 573;
}
);
leftKerningGroup = H;
rightKerningGroup = L;
unicode = 004C;
},
{
glyphname = Ldot;
layers = (
{
anchors = (
{
name = _centerright;
position = "{475, 403}";
},
{
name = top;
position = "{399, 386}";
}
);
components = (
{
name = L;
}
);
layerId = "08C09966-8326-41C9-AE3D-74AAC6FC1D13";
paths = (
{
closed = 1;
nodes = (
"425 308 OFFCURVE",
"453 341 OFFCURVE",
"453 384 CURVE SMOOTH",
"453 413 OFFCURVE",
"438 431 OFFCURVE",
"414 431 CURVE SMOOTH",
"376 431 OFFCURVE",
"347 398 OFFCURVE",
"347 354 CURVE SMOOTH",
"347 325 OFFCURVE",
"362 308 OFFCURVE",
"386 308 CURVE SMOOTH"
);
}
);
width = 548;
},
{
anchors = (
{
name = _centerright;
position = "{478, 403}";
},
{
name = top;
position = "{438, 388}";
}
);
components = (
{
name = L;
}
);
layerId = "B953D09C-6DD0-450A-A78C-8C2188DD4016";
paths = (
{
closed = 1;
nodes = (
"469 307 OFFCURVE",
"500 344 OFFCURVE",
"500 394 CURVE SMOOTH",
"500 427 OFFCURVE",
"482 448 OFFCURVE",
"452 448 CURVE SMOOTH",
"409 448 OFFCURVE",
"377 410 OFFCURVE",
"377 362 CURVE SMOOTH",
"377 328 OFFCURVE",
"395 307 OFFCURVE",
"426 307 CURVE SMOOTH"
);
}
);
width = 573;
}
);
leftKerningGroup = H;
rightKerningGroup = Ldot;
unicode = 013F;
},
{
glyphname = Lslash;
layers = (
{
anchors = (
{
name = _center;
position = "{190, 355}";
}
);
components = (
{
name = L;
}
);
layerId = "08C09966-8326-41C9-AE3D-74AAC6FC1D13";
paths = (
{
closed = 1;
nodes = (
"401 429 LINE",
"388 470 LINE",
"-24 279 LINE",
"-6 240 LINE"
);
}
);
width = 548;
},
{
anchors = (
{
name = _center;
position = "{207, 355}";
}
);
components = (
{
name = L;
}
);
layerId = "B953D09C-6DD0-450A-A78C-8C2188DD4016";
paths = (
{
closed = 1;
nodes = (
"446 398 LINE",
"434 461 LINE",
"-22 310 LINE",
"0 250 LINE"
);
}
);
width = 573;
}
);
leftKerningGroup = Lslash;
rightKerningGroup = Lslash;
unicode = 0141;
},
{
glyphname = M;
layers = (
{
anchors = (
{
name = bottom;
position = "{430.672, 0}";
},
{
name = top;
position = "{517.235, 705}";
}
);
background = {
paths = (
{
closed = 1;
nodes = (
"728 705 LINE",
"706 685 LINE",
"706 685 OFFCURVE",
"646 559 OFFCURVE",
"633 537 CURVE",
"450 175 LINE",
"374 529 LINE",
"368 553 OFFCURVE",
"346 685 OFFCURVE",
"346 685 CURVE",
"331 705 LINE",
"262 705 LINE",
"242 705 OFFCURVE",
"151 710 OFFCURVE",
"146 710 CURVE",
"133 656 LINE",
"206 644 LINE",
"205 630 OFFCURVE",
"202 583 OFFCURVE",
"199 568 CURVE SMOOTH",
"110 137 LINE SMOOTH",
"107 122 OFFCURVE",
"88 74 OFFCURVE",
"83 61 CURVE",
"5 45 LINE",
"3 -5 LINE",
"3 -5 OFFCURVE",
"102 0 OFFCURVE",
"127 0 CURVE",
"233 0 LINE",
"248 54 LINE",
"171 61 LINE",
"172 77 OFFCURVE",
"176 137 OFFCURVE",
"182 167 CURVE SMOOTH",
"265 584 LINE",
"391 0 LINE",
"428 0 LINE",
"724 584 LINE",
"686 137 LINE SMOOTH",
"685 122 OFFCURVE",
"673 76 OFFCURVE",
"669 61 CURVE",
"591 45 LINE",
"589 -5 LINE",
"589 -5 OFFCURVE",
"703 0 OFFCURVE",
"728 0 CURVE",
"847 0 LINE",
"861 54 LINE",
"784 61 LINE",
"783 74 OFFCURVE",
"779 136 OFFCURVE",
"781 166 CURVE SMOOTH",
"808 538 LINE SMOOTH",
"810 568 OFFCURVE",
"821 630 OFFCURVE",
"824 644 CURVE",
"900 651 LINE",
"905 710 LINE",
"905 710 OFFCURVE",
"833 705 OFFCURVE",
"756 705 CURVE SMOOTH"
);
}
);
};
layerId = "08C09966-8326-41C9-AE3D-74AAC6FC1D13";
paths = (
{
closed = 1;
nodes = (
"48 -3 OFFCURVE",
"113 0 OFFCURVE",
"138 0 CURVE SMOOTH",
"233 0 LINE",
"247 54 LINE",
"130 64 LINE",
"170 28 LINE",
"169 59 OFFCURVE",
"177 141 OFFCURVE",
"182 167 CURVE SMOOTH",
"272 620 LINE",
"257 620 LINE",
"391 0 LINE",
"428 0 LINE",
"740 617 LINE",
"727 620 LINE",
"686 137 LINE SMOOTH",
"684 115 OFFCURVE",
"667 51 OFFCURVE",
"660 24 CURVE",
"706 68 LINE",
"591 45 LINE",
"589 -5 LINE",
"634 -3 OFFCURVE",
"699 0 OFFCURVE",
"724 0 CURVE SMOOTH",
"847 0 LINE",
"861 54 LINE",
"740 64 LINE",
"786 28 LINE",
"784 59 OFFCURVE",
"778 129 OFFCURVE",
"781 166 CURVE SMOOTH",
"808 538 LINE SMOOTH",
"811 581 OFFCURVE",
"828 661 OFFCURVE",
"832 681 CURVE",
"788 641 LINE",
"900 651 LINE",
"905 710 LINE",
"855 708 OFFCURVE",
"786 705 OFFCURVE",
"756 705 CURVE SMOOTH",
"728 705 LINE",
"706 685 LINE",
"633 537 LINE",
"434 142 LINE",
"458 139 LINE",
"374 529 LINE",
"346 685 LINE",
"331 705 LINE",
"262 705 LINE SMOOTH",
"243 705 OFFCURVE",
"185 708 OFFCURVE",
"146 710 CURVE",
"133 656 LINE",
"242 638 LINE",
"208 670 LINE",
"208 656 OFFCURVE",
"203 588 OFFCURVE",
"199 568 CURVE SMOOTH",
"110 137 LINE SMOOTH",
"106 118 OFFCURVE",
"79 51 OFFCURVE",
"68 24 CURVE",
"120 68 LINE",
"5 45 LINE",
"3 -5 LINE"
);
}
);
width = 922;
},
{
anchors = (
{
name = bottom;
position = "{438.672, 0}";
},
{
name = top;
position = "{525.235, 705}";
}
);
background = {
paths = (
{
closed = 1;
nodes = (
"847 542 LINE SMOOTH",
"848 562 OFFCURVE",
"858 608 OFFCURVE",
"863 623 CURVE",
"927 629 LINE",
"934 710 LINE",
"934 710 OFFCURVE",
"851 705 OFFCURVE",
"771 705 CURVE",
"703 705 LINE",
"681 685 LINE",
"681 685 OFFCURVE",
"633 572 OFFCURVE",
"622 549 CURVE",
"467 221 LINE",
"415 534 LINE",
"409 571 OFFCURVE",
"396 685 OFFCURVE",
"396 685 CURVE",
"380 705 LINE",
"253 705 LINE",
"223 705 OFFCURVE",
"133 710 OFFCURVE",
"133 710 CURVE",
"117 635 LINE",
"178 623 LINE",
"178 608 OFFCURVE",
"180 561 OFFCURVE",
"170 512 CURVE SMOOTH",
"97 163 LINE SMOOTH",
"93 143 OFFCURVE",
"80 92 OFFCURVE",
"75 77 CURVE",
"10 65 LINE",
"5 -5 LINE",
"5 -5 OFFCURVE",
"102 0 OFFCURVE",
"132 0 CURVE",
"250 0 LINE",
"265 70 LINE",
"204 77 LINE",
"204 92 OFFCURVE",
"203 143 OFFCURVE",
"213 193 CURVE SMOOTH",
"277 518 LINE",
"372 0 LINE",
"465 0 LINE",
"717 518 LINE",
"680 163 LINE SMOOTH",
"678 143 OFFCURVE",
"665 92 OFFCURVE",
"660 77 CURVE",
"595 65 LINE",
"590 -5 LINE",
"590 -5 OFFCURVE",
"711 0 OFFCURVE",
"741 0 CURVE",
"869 0 LINE",
"884 70 LINE",
"823 77 LINE",
"823 92 OFFCURVE",
"818 143 OFFCURVE",
"821 193 CURVE SMOOTH"
);
}
);
};
layerId = "B953D09C-6DD0-450A-A78C-8C2188DD4016";
paths = (
{
closed = 1;
nodes = (
"46 -3 OFFCURVE",
"105 0 OFFCURVE",
"133 0 CURVE SMOOTH",
"246 0 LINE",
"260 66 LINE",
"138 79 LINE",
"195 39 LINE",
"195 62 OFFCURVE",
"197 134 OFFCURVE",
"205 187 CURVE",
"285 590 LINE",
"264 590 LINE",
"377 0 LINE",
"456 0 LINE",
"744 586 LINE",
"725 591 LINE",
"681 157 LINE SMOOTH",
"679 134 OFFCURVE",
"662 72 OFFCURVE",
"655 47 CURVE",
"711 83 LINE",
"594 60 LINE",
"590 -5 LINE",
"638 -3 OFFCURVE",
"701 0 OFFCURVE",
"729 0 CURVE SMOOTH",
"863 0 LINE",
"878 66 LINE",
"755 79 LINE",
"815 39 LINE",
"813 62 OFFCURVE",
"808 141 OFFCURVE",
"811 186 CURVE SMOOTH",
"837 541 LINE SMOOTH",
"840 575 OFFCURVE",
"856 643 OFFCURVE",
"865 672 CURVE",
"797 623 LINE",
"920 635 LINE",
"927 710 LINE",
"873 708 OFFCURVE",
"801 705 OFFCURVE",
"767 705 CURVE SMOOTH",
"709 705 LINE",
"687 685 LINE",
"625 546 LINE",
"438 159 LINE",
"472 154 LINE",
"405 533 LINE",
"383 685 LINE",
"368 705 LINE",
"255 705 LINE SMOOTH",
"235 705 OFFCURVE",
"176 708 OFFCURVE",
"136 710 CURVE",
"121 640 LINE",
"240 618 LINE",
"184 672 LINE",
"184 654 OFFCURVE",
"189 581 OFFCURVE",
"177 526 CURVE SMOOTH",
"100 157 LINE",
"96 133 OFFCURVE",
"77 73 OFFCURVE",
"69 47 CURVE",
"133 83 LINE",
"9 60 LINE",
"5 -5 LINE"
);
}
);
width = 937;
}
);
leftKerningGroup = M;
rightKerningGroup = M;
unicode = 004D;
},
{
glyphname = N;
layers = (
{
anchors = (
{
name = bottom;
position = "{342, 0}";
},
{
name = top;
position = "{443, 720}";
}
);
background = {
paths = (
{
closed = 0;
nodes = (
"90 61 LINE",
"94 74 OFFCURVE",
"108 122 OFFCURVE",
"110 137 CURVE SMOOTH",
"173 568 LINE SMOOTH",
"175 583 OFFCURVE",
"175 629 OFFCURVE",
"175 644 CURVE",
"102 656 LINE",
"115 710 LINE",
"115 710 OFFCURVE",
"211 705 OFFCURVE",
"231 705 CURVE SMOOTH",
"269 705 LINE",
"285 685 LINE",
"285 685 OFFCURVE",
"345 552 OFFCURVE",
"356 530 CURVE SMOOTH",
"555 163 LINE",
"615 568 LINE SMOOTH",
"617 583 OFFCURVE",
"617 626 OFFCURVE",
"617 644 CURVE",
"544 656 LINE",
"557 710 LINE",
"571 709 OFFCURVE",
"645 705 OFFCURVE",
"665 705 CURVE SMOOTH",
"725 705 OFFCURVE",
"789 710 OFFCURVE",
"789 710 CURVE",
"784 651 LINE",
"708 644 LINE",
"701 625 OFFCURVE",
"683 568 OFFCURVE",
"678 538 CURVE SMOOTH",
"598 0 LINE",
"531 0 LINE",
"238 556 LINE",
"182 167 LINE SMOOTH",
"178 137 OFFCURVE",
"173 75 OFFCURVE",
"173 61 CURVE",
"250 54 LINE",
"235 0 LINE",
"131 0 LINE",
"106 0 OFFCURVE",
"9 -5 OFFCURVE",
"9 -5 CURVE",
"11 45 LINE",
"90 61 LINE"
);
}
);
};
layerId = "08C09966-8326-41C9-AE3D-74AAC6FC1D13";
paths = (
{
closed = 1;
nodes = (
"54 -3 OFFCURVE",
"116 0 OFFCURVE",
"141 0 CURVE SMOOTH",
"236 0 LINE",
"250 54 LINE",
"133 64 LINE",
"171 28 LINE",
"172 62 OFFCURVE",
"178 137 OFFCURVE",
"182 167 CURVE SMOOTH",
"243 592 LINE",
"221 588 LINE",
"531 0 LINE",
"598 0 LINE",
"678 538 LINE SMOOTH",
"683 573 OFFCURVE",
"709 650 OFFCURVE",
"717 667 CURVE",
"672 641 LINE",
"784 651 LINE",
"789 710 LINE",
"756 708 OFFCURVE",
"696 705 OFFCURVE",
"665 705 CURVE SMOOTH",
"649 705 OFFCURVE",
"593 708 OFFCURVE",
"557 710 CURVE",
"544 656 LINE",
"653 638 LINE",
"617 675 LINE",
"618 653 OFFCURVE",
"618 588 OFFCURVE",
"615 568 CURVE SMOOTH",
"550 127 LINE",
"572 131 LINE",
"356 530 LINE",
"285 685 LINE",
"269 705 LINE",
"231 705 LINE SMOOTH",
"212 705 OFFCURVE",
"154 708 OFFCURVE",
"115 710 CURVE",
"102 656 LINE",
"211 638 LINE",
"175 679 LINE",
"175 664 OFFCURVE",
"176 588 OFFCURVE",
"173 568 CURVE SMOOTH",
"110 137 LINE SMOOTH",
"107 118 OFFCURVE",
"84 42 OFFCURVE",
"80 27 CURVE",
"123 68 LINE",
"11 45 LINE",
"9 -5 LINE"
);
}
);
width = 758;
},
{
anchors = (
{
name = bottom;
position = "{357, 0}";
},
{
name = top;
position = "{458, 720}";
}
);
background = {
paths = (
{
closed = 1;
nodes = (
"672 143 OFFCURVE",
"651 0 OFFCURVE",
"651 0 CURVE",
"514 0 LINE",
"270 450 LINE",
"232 193 LINE SMOOTH",
"225 143 OFFCURVE",
"223 92 OFFCURVE",
"223 77 CURVE",
"284 70 LINE",
"269 0 LINE",
"145 0 LINE",
"115 0 OFFCURVE",
"9 -5 OFFCURVE",
"9 -5 CURVE",
"14 65 LINE",
"79 77 LINE",
"84 92 OFFCURVE",
"97 143 OFFCURVE",
"100 163 CURVE SMOOTH",
"151 512 LINE SMOOTH",
"158 562 OFFCURVE",
"159 608 OFFCURVE",
"159 623 CURVE",
"98 635 LINE",
"114 710 LINE",
"114 710 OFFCURVE",
"204 705 OFFCURVE",
"234 705 CURVE",
"313 705 LINE",
"328 685 LINE",
"328 685 OFFCURVE",
"380 559 OFFCURVE",
"391 537 CURVE SMOOTH",
"557 230 LINE",
"598 512 LINE SMOOTH",
"605 562 OFFCURVE",
"606 608 OFFCURVE",
"606 623 CURVE",
"545 635 LINE",
"561 710 LINE",
"561 710 OFFCURVE",
"636 705 OFFCURVE",
"666 705 CURVE SMOOTH",
"746 705 OFFCURVE",
"822 710 OFFCURVE",
"822 710 CURVE",
"815 629 LINE",
"751 623 LINE",
"746 608 OFFCURVE",
"733 562 OFFCURVE",
"730 542 CURVE SMOOTH"
);
}
);
};
layerId = "B953D09C-6DD0-450A-A78C-8C2188DD4016";
paths = (
{
closed = 1;
nodes = (
"51 -3 OFFCURVE",
"109 0 OFFCURVE",
"138 0 CURVE SMOOTH",
"261 0 LINE",
"276 66 LINE",
"154 79 LINE",
"210 39 LINE",
"210 76 OFFCURVE",
"214 145 OFFCURVE",
"220 186 CURVE SMOOTH",
"270 532 LINE",
"236 526 LINE",
"519 0 LINE",
"638 0 LINE",
"717 541 LINE SMOOTH",
"722 574 OFFCURVE",
"740 627 OFFCURVE",
"752 660 CURVE",
"684 623 LINE",
"808 635 LINE",
"814 710 LINE",
"774 708 OFFCURVE",
"698 705 OFFCURVE",
"666 705 CURVE SMOOTH",
"652 705 OFFCURVE",
"595 708 OFFCURVE",
"560 710 CURVE",
"545 640 LINE",
"665 618 LINE",
"609 673 LINE",
"609 643 OFFCURVE",
"611 582 OFFCURVE",
"603 526 CURVE SMOOTH",
"549 158 LINE",
"584 164 LINE",
"383 535 LINE",
"318 685 LINE",
"302 705 LINE",
"234 705 LINE SMOOTH",
"215 705 OFFCURVE",
"154 708 OFFCURVE",
"115 710 CURVE",
"99 640 LINE",
"219 618 LINE",
"163 669 LINE",
"163 651 OFFCURVE",
"165 583 OFFCURVE",
"157 526 CURVE SMOOTH",
"103 157 LINE SMOOTH",
"100 137 OFFCURVE",
"82 73 OFFCURVE",
"75 48 CURVE",
"138 83 LINE",
"14 60 LINE",
"10 -5 LINE"
);
}
);
width = 783;
}
);
leftKerningGroup = H;
rightKerningGroup = H;
unicode = 004E;
},
{
glyphname = Nacute;
layers = (
{
anchors = (
{
name = top;
position = "{481, 995}";
}
);
components = (
{
name = N;
}
);
layerId = "08C09966-8326-41C9-AE3D-74AAC6FC1D13";
paths = (
{
closed = 1;
nodes = (
"589 845 LINE",
"568 908 LINE",
"329 794 LINE",
"341 753 LINE"
);
}
);
width = 758;
},
{
anchors = (
{
name = top;
position = "{498, 1015}";
}
);
components = (
{
name = N;
}
);
layerId = "B953D09C-6DD0-450A-A78C-8C2188DD4016";
paths = (
{
closed = 1;
nodes = (
"611 831 LINE",
"588 907 LINE",
"337 804 LINE",
"355 752 LINE"
);
}
);
width = 783;
}
);
leftKerningGroup = H;
rightKerningGroup = H;
unicode = 0143;
},
{
glyphname = Ntilde;
layers = (
{
anchors = (
{
name = top;
position = "{479, 995}";
}
);
components = (
{
name = N;
}
);
layerId = "08C09966-8326-41C9-AE3D-74AAC6FC1D13";
paths = (
{
closed = 1;
nodes = (
"325 747 OFFCURVE",
"359 800 OFFCURVE",
"385 800 CURVE SMOOTH",
"425 800 OFFCURVE",
"483 759 OFFCURVE",
"522 759 CURVE SMOOTH",
"562 759 OFFCURVE",
"619 858 OFFCURVE",
"619 858 CURVE",
"587 878 LINE",
"587 878 OFFCURVE",
"553 827 OFFCURVE",
"526 827 CURVE SMOOTH",
"486 827 OFFCURVE",
"428 868 OFFCURVE",
"388 868 CURVE SMOOTH",
"349 868 OFFCURVE",
"293 767 OFFCURVE",
"293 767 CURVE",
"325 747 LINE"
);
}
);
width = 758;
},
{
anchors = (
{
name = top;
position = "{498, 1015}";
}
);
components = (
{
name = N;
}
);
layerId = "B953D09C-6DD0-450A-A78C-8C2188DD4016";
paths = (
{
closed = 1;
nodes = (
"340 747 OFFCURVE",
"372 793 OFFCURVE",
"397 793 CURVE SMOOTH",
"439 793 OFFCURVE",
"500 754 OFFCURVE",
"542 754 CURVE SMOOTH",
"584 754 OFFCURVE",
"642 854 OFFCURVE",
"642 854 CURVE",
"602 879 LINE",
"602 879 OFFCURVE",
"572 837 OFFCURVE",
"547 837 CURVE SMOOTH",
"506 837 OFFCURVE",
"443 876 OFFCURVE",
"401 876 CURVE SMOOTH",
"360 876 OFFCURVE",
"301 772 OFFCURVE",
"301 772 CURVE",
"340 747 LINE"
);
}
);
width = 783;
}
);
leftKerningGroup = H;
rightKerningGroup = H;
unicode = 00D1;
},
{
glyphname = O;
layers = (
{
anchors = (
{
name = bottom;
position = "{343, 0}";
},
{
name = center;
position = "{393, 353}";
},
{
name = ogonek;
position = "{479, 0}";
},
{
name = top;
position = "{444, 720}";
},
{
name = topleft;
position = "{88, 705}";
},
{
name = topright;
position = "{626, 620}";
}
);
layerId = "08C09966-8326-41C9-AE3D-74AAC6FC1D13";
paths = (
{
closed = 1;
nodes = (
"586 -15 OFFCURVE",
"719 174 OFFCURVE",
"719 420 CURVE SMOOTH",
"719 598 OFFCURVE",
"626 720 OFFCURVE",
"444 720 CURVE SMOOTH",
"200 720 OFFCURVE",
"67 531 OFFCURVE",
"67 284 CURVE SMOOTH",
"67 107 OFFCURVE",
"160 -15 OFFCURVE",
"342 -15 CURVE SMOOTH"
);
},
{
closed = 1;
nodes = (
"228 38 OFFCURVE",
"174 145 OFFCURVE",
"174 283 CURVE SMOOTH",
"174 481 OFFCURVE",
"267 667 OFFCURVE",
"439 667 CURVE SMOOTH",
"558 667 OFFCURVE",
"612 560 OFFCURVE",
"612 421 CURVE SMOOTH",
"612 223 OFFCURVE",
"518 38 OFFCURVE",
"347 38 CURVE SMOOTH"
);
}
);
width = 756;
},
{
anchors = (
{
name = bottom;
position = "{360, 0}";
},
{
name = center;
position = "{410, 353}";
},
{
name = ogonek;
position = "{490, 0}";
},
{
name = top;
position = "{461, 720}";
},
{
name = topleft;
position = "{95, 705}";
},
{
name = topright;
position = "{633, 620}";
}
);
layerId = "B953D09C-6DD0-450A-A78C-8C2188DD4016";
paths = (
{
closed = 1;
nodes = (
"598 -15 OFFCURVE",
"757 164 OFFCURVE",
"757 414 CURVE SMOOTH",
"757 598 OFFCURVE",
"647 720 OFFCURVE",
"461 720 CURVE SMOOTH",
"222 720 OFFCURVE",
"63 541 OFFCURVE",
"63 290 CURVE SMOOTH",
"63 107 OFFCURVE",
"173 -15 OFFCURVE",
"359 -15 CURVE SMOOTH"
);
},
{
closed = 1;
nodes = (
"270 71 OFFCURVE",
"223 146 OFFCURVE",
"223 274 CURVE SMOOTH",
"223 479 OFFCURVE",
"292 634 OFFCURVE",
"452 634 CURVE SMOOTH",
"550 634 OFFCURVE",
"597 559 OFFCURVE",
"597 430 CURVE SMOOTH",
"597 225 OFFCURVE",
"527 71 OFFCURVE",
"369 71 CURVE SMOOTH"
);
}
);
width = 794;
}
);
leftKerningGroup = O;
rightKerningGroup = O;
unicode = 004F;
},
{
glyphname = OE;
layers = (
{
anchors = (
{
name = bottom;
position = "{638, 0}";
},
{
name = top;
position = "{739, 720}";
}
);
background = {
paths = (
{
closed = 1;
nodes = (
"422 -15 OFFCURVE",
"486 0 OFFCURVE",
"556 0 CURVE SMOOTH",
"707 0 LINE SMOOTH",
"734 0 OFFCURVE",
"784 0 OFFCURVE",
"821 0 CURVE",
"838 14 LINE",
"875 165 LINE",
"822 170 LINE",
"817 154 OFFCURVE",
"804 118 OFFCURVE",
"797 103 CURVE SMOOTH",
"791 89 OFFCURVE",
"770 63 OFFCURVE",
"754 44 CURVE",
"787 69 LINE",
"769 65 OFFCURVE",
"724 57 OFFCURVE",
"686 57 CURVE SMOOTH",
"512 57 LINE",
"546 23 LINE",
"546 51 OFFCURVE",
"552 133 OFFCURVE",
"557 167 CURVE SMOOTH",
"587 374 LINE",
"546 338 LINE",
"673 338 LINE SMOOTH",
"690 338 OFFCURVE",
"748 333 OFFCURVE",
"785 329 CURVE",
"751 368 LINE",
"746 265 LINE",
"794 271 LINE",
"800 327 OFFCURVE",
"811 391 OFFCURVE",
"824 464 CURVE",
"779 469 LINE",
"747 365 LINE",
"794 404 LINE",
"763 400 OFFCURVE",
"711 394 OFFCURVE",
"700 394 CURVE SMOOTH",
"554 394 LINE",
"585 358 LINE",
"611 538 LINE SMOOTH",
"616 573 OFFCURVE",
"636 656 OFFCURVE",
"640 674 CURVE",
"598 649 LINE",
"760 649 LINE SMOOTH",
"775 649 OFFCURVE",
"846 644 OFFCURVE",
"865 642 CURVE",
"820 676 LINE",
"834 654 OFFCURVE",
"851 622 OFFCURVE",
"852 610 CURVE SMOOTH",
"853 601 OFFCURVE",
"854 572 OFFCURVE",
"855 556 CURVE",
"912 561 LINE",
"925 692 LINE",
"909 710 LINE",
"872 708 OFFCURVE",
"814 705 OFFCURVE",
"797 705 CURVE SMOOTH",
"682 705 LINE SMOOTH",
"612 705 OFFCURVE",
"524 720 OFFCURVE",
"454 720 CURVE SMOOTH",
"210 720 OFFCURVE",
"77 531 OFFCURVE",
"77 284 CURVE SMOOTH",
"77 107 OFFCURVE",
"169 -15 OFFCURVE",
"352 -15 CURVE SMOOTH"
);
},
{
closed = 1;
nodes = (
"478 58 LINE",
"438 45 OFFCURVE",
"398 38 OFFCURVE",
"357 38 CURVE SMOOTH",
"238 38 OFFCURVE",
"184 145 OFFCURVE",
"184 283 CURVE SMOOTH",
"184 481 OFFCURVE",
"277 667 OFFCURVE",
"449 667 CURVE SMOOTH",
"488 667 OFFCURVE",
"549 657 OFFCURVE",
"587 647 CURVE",
"527 665 LINE",
"527 652 OFFCURVE",
"527 588 OFFCURVE",
"524 568 CURVE SMOOTH",
"461 137 LINE SMOOTH",
"458 117 OFFCURVE",
"438 47 OFFCURVE",
"432 24 CURVE"
);
}
);
};
layerId = "08C09966-8326-41C9-AE3D-74AAC6FC1D13";
paths = (
{
closed = 1;
nodes = (
"415 -15 OFFCURVE",
"483 0 OFFCURVE",
"556 0 CURVE SMOOTH",
"707 0 LINE SMOOTH",
"734 0 OFFCURVE",
"784 0 OFFCURVE",
"821 0 CURVE",
"838 14 LINE",
"875 165 LINE",
"822 170 LINE",
"817 154 OFFCURVE",
"804 118 OFFCURVE",
"797 103 CURVE SMOOTH",
"791 89 OFFCURVE",
"770 63 OFFCURVE",
"754 44 CURVE",
"787 69 LINE",
"769 65 OFFCURVE",
"724 57 OFFCURVE",
"686 57 CURVE SMOOTH",
"512 57 LINE",
"546 23 LINE",
"546 51 OFFCURVE",
"552 133 OFFCURVE",
"557 167 CURVE SMOOTH",
"587 374 LINE",
"546 338 LINE",
"673 338 LINE SMOOTH",
"690 338 OFFCURVE",
"748 333 OFFCURVE",
"785 329 CURVE",
"751 368 LINE",
"746 265 LINE",
"794 271 LINE",
"800 327 OFFCURVE",
"811 391 OFFCURVE",
"824 464 CURVE",
"779 469 LINE",
"747 365 LINE",
"794 404 LINE",
"763 400 OFFCURVE",
"711 394 OFFCURVE",
"700 394 CURVE SMOOTH",
"554 394 LINE",
"585 358 LINE",
"611 538 LINE SMOOTH",
"616 573 OFFCURVE",
"636 656 OFFCURVE",
"640 674 CURVE",
"598 649 LINE",
"760 649 LINE SMOOTH",
"775 649 OFFCURVE",
"846 644 OFFCURVE",
"865 642 CURVE",
"820 676 LINE",
"834 654 OFFCURVE",
"851 622 OFFCURVE",
"852 610 CURVE SMOOTH",
"853 601 OFFCURVE",
"854 572 OFFCURVE",
"855 556 CURVE",
"912 561 LINE",
"925 692 LINE",
"909 710 LINE",
"872 708 OFFCURVE",
"814 705 OFFCURVE",
"797 705 CURVE SMOOTH",
"682 705 LINE SMOOTH",
"609 705 OFFCURVE",
"517 720 OFFCURVE",
"444 720 CURVE SMOOTH",
"200 720 OFFCURVE",
"67 531 OFFCURVE",
"67 284 CURVE SMOOTH",
"67 107 OFFCURVE",
"159 -15 OFFCURVE",
"342 -15 CURVE SMOOTH"
);
},
{
closed = 1;
nodes = (
"478 58 LINE",
"435 45 OFFCURVE",
"391 38 OFFCURVE",
"347 38 CURVE SMOOTH",
"228 38 OFFCURVE",
"174 145 OFFCURVE",
"174 283 CURVE SMOOTH",
"174 481 OFFCURVE",
"267 667 OFFCURVE",
"439 667 CURVE SMOOTH",
"481 667 OFFCURVE",
"546 657 OFFCURVE",
"587 647 CURVE",
"535 665 LINE",
"535 652 OFFCURVE",
"527 588 OFFCURVE",
"524 568 CURVE SMOOTH",
"461 137 LINE SMOOTH",
"458 117 OFFCURVE",
"446 47 OFFCURVE",
"440 24 CURVE"
);
}
);
width = 938;
},
{
anchors = (
{
name = bottom;
position = "{671, 0}";
},
{
name = top;
position = "{772, 720}";
}
);
background = {
anchors = (
{
name = bottom;
position = "{671, 0}";
},
{
name = top;
position = "{770, 705}";
}
);
paths = (
{
closed = 1;
nodes = (
"457 -15 OFFCURVE",
"513 0 OFFCURVE",
"591 0 CURVE SMOOTH",
"751 0 LINE SMOOTH",
"777 0 OFFCURVE",
"825 0 OFFCURVE",
"866 0 CURVE",
"882 14 LINE",
"921 184 LINE",
"857 189 LINE",
"852 172 OFFCURVE",
"841 140 OFFCURVE",
"836 129 CURVE SMOOTH",
"830 114 OFFCURVE",
"807 78 OFFCURVE",
"777 44 CURVE",
"834 93 LINE",
"818 89 OFFCURVE",
"775 80 OFFCURVE",
"733 80 CURVE SMOOTH",
"554 80 LINE",
"608 49 LINE",
"608 64 OFFCURVE",
"614 138 OFFCURVE",
"621 186 CURVE SMOOTH",
"649 377 LINE",
"585 322 LINE",
"707 322 LINE SMOOTH",
"726 322 OFFCURVE",
"787 315 OFFCURVE",
"827 310 CURVE",
"771 372 LINE",
"770 254 LINE",
"830 260 LINE",
"837 328 OFFCURVE",
"846 385 OFFCURVE",
"859 466 CURVE",
"802 471 LINE",
"767 349 LINE",
"838 411 LINE",
"804 405 OFFCURVE",
"748 397 OFFCURVE",
"737 397 CURVE SMOOTH",
"595 397 LINE",
"644 342 LINE",
"673 541 LINE SMOOTH",
"677 569 OFFCURVE",
"694 636 OFFCURVE",
"700 664 CURVE",
"636 630 LINE",
"800 630 LINE SMOOTH",
"832 630 OFFCURVE",
"894 625 OFFCURVE",
"930 623 CURVE",
"861 679 LINE",
"870 653 OFFCURVE",
"884 601 OFFCURVE",
"884 591 CURVE SMOOTH",
"884 576 OFFCURVE",
"885 557 OFFCURVE",
"885 541 CURVE",
"953 546 LINE",
"968 692 LINE",
"952 710 LINE",
"915 708 OFFCURVE",
"866 705 OFFCURVE",
"840 705 CURVE SMOOTH",
"687 705 LINE SMOOTH",
"610 705 OFFCURVE",
"559 720 OFFCURVE",
"481 720 CURVE SMOOTH",
"242 720 OFFCURVE",
"83 541 OFFCURVE",
"83 290 CURVE SMOOTH",
"83 107 OFFCURVE",
"193 -15 OFFCURVE",
"379 -15 CURVE SMOOTH"
);
},
{
closed = 1;
nodes = (
"513 81 LINE",
"471 76 OFFCURVE",
"433 71 OFFCURVE",
"389 71 CURVE SMOOTH",
"290 71 OFFCURVE",
"243 146 OFFCURVE",
"243 274 CURVE SMOOTH",
"243 479 OFFCURVE",
"312 634 OFFCURVE",
"472 634 CURVE SMOOTH",
"515 634 OFFCURVE",
"559 626 OFFCURVE",
"600 620 CURVE",
"540 657 LINE",
"540 645 OFFCURVE",
"537 560 OFFCURVE",
"532 526 CURVE SMOOTH",
"478 156 LINE SMOOTH",
"474 127 OFFCURVE",
"455 65 OFFCURVE",
"446 39 CURVE"
);
}
);
};
layerId = "B953D09C-6DD0-450A-A78C-8C2188DD4016";
paths = (
{
closed = 1;
nodes = (
"444 -15 OFFCURVE",
"506 0 OFFCURVE",
"591 0 CURVE SMOOTH",
"751 0 LINE SMOOTH",
"777 0 OFFCURVE",
"825 0 OFFCURVE",
"866 0 CURVE",
"882 14 LINE",
"921 184 LINE",
"857 189 LINE",
"852 172 OFFCURVE",
"841 140 OFFCURVE",
"836 129 CURVE SMOOTH",
"830 114 OFFCURVE",
"807 78 OFFCURVE",
"777 44 CURVE",
"834 93 LINE",
"818 89 OFFCURVE",
"775 80 OFFCURVE",
"733 80 CURVE SMOOTH",
"554 80 LINE",
"608 49 LINE",
"608 64 OFFCURVE",
"614 138 OFFCURVE",
"621 186 CURVE SMOOTH",
"649 377 LINE",
"585 322 LINE",
"707 322 LINE SMOOTH",
"726 322 OFFCURVE",
"787 315 OFFCURVE",
"827 310 CURVE",
"771 372 LINE",
"770 254 LINE",
"830 260 LINE",
"837 328 OFFCURVE",
"846 385 OFFCURVE",
"859 466 CURVE",
"802 471 LINE",
"767 349 LINE",
"838 411 LINE",
"804 405 OFFCURVE",
"748 397 OFFCURVE",
"737 397 CURVE SMOOTH",
"595 397 LINE",
"644 342 LINE",
"673 541 LINE SMOOTH",
"677 569 OFFCURVE",
"694 636 OFFCURVE",
"700 664 CURVE",
"636 630 LINE",
"800 630 LINE SMOOTH",
"832 630 OFFCURVE",
"894 625 OFFCURVE",
"930 623 CURVE",
"861 679 LINE",
"870 653 OFFCURVE",
"884 601 OFFCURVE",
"884 591 CURVE SMOOTH",
"884 576 OFFCURVE",
"885 557 OFFCURVE",
"885 541 CURVE",
"953 546 LINE",
"968 692 LINE",
"952 710 LINE",
"915 708 OFFCURVE",
"866 705 OFFCURVE",
"840 705 CURVE SMOOTH",
"687 705 LINE SMOOTH",
"603 705 OFFCURVE",
"547 720 OFFCURVE",
"461 720 CURVE SMOOTH",
"222 720 OFFCURVE",
"63 541 OFFCURVE",
"63 290 CURVE SMOOTH",
"63 107 OFFCURVE",
"173 -15 OFFCURVE",
"359 -15 CURVE SMOOTH"
);
},
{
closed = 1;
nodes = (
"513 81 LINE",
"464 76 OFFCURVE",
"420 71 OFFCURVE",
"369 71 CURVE SMOOTH",
"270 71 OFFCURVE",
"223 146 OFFCURVE",
"223 274 CURVE SMOOTH",
"223 479 OFFCURVE",
"292 634 OFFCURVE",
"452 634 CURVE SMOOTH",
"502 634 OFFCURVE",
"553 626 OFFCURVE",
"600 620 CURVE",
"550 657 LINE",
"549 645 OFFCURVE",
"537 560 OFFCURVE",
"532 526 CURVE SMOOTH",
"478 156 LINE SMOOTH",
"474 127 OFFCURVE",
"462 65 OFFCURVE",
"456 39 CURVE"
);
}
);
width = 982;
}
);
leftKerningGroup = O;
rightKerningGroup = E;
unicode = 0152;
},
{
glyphname = Oacute;
layers = (
{
anchors = (
{
name = top;
position = "{482, 995}";
}
);
components = (
{
name = O;
}
);
layerId = "08C09966-8326-41C9-AE3D-74AAC6FC1D13";
paths = (
{
closed = 1;
nodes = (
"590 845 LINE",
"569 908 LINE",
"330 794 LINE",
"342 753 LINE"
);
}
);
width = 756;
},
{
anchors = (
{
name = top;
position = "{501, 1015}";
}
);
components = (
{
name = O;
}
);
layerId = "B953D09C-6DD0-450A-A78C-8C2188DD4016";
paths = (
{
closed = 1;
nodes = (
"614 831 LINE",
"591 907 LINE",
"340 804 LINE",
"358 752 LINE"
);
}
);
width = 794;
}
);
leftKerningGroup = O;
rightKerningGroup = O;
unicode = 00D3;
},
{
glyphname = Ocircumflex;
layers = (
{
anchors = (
{
name = top;
position = "{481, 995}";
}
);
components = (
{
name = O;
}
);
layerId = "08C09966-8326-41C9-AE3D-74AAC6FC1D13";
paths = (
{
closed = 1;
nodes = (
"505 840 LINE",
"478 879 LINE",
"437 879 LINE",
"284 789 LINE",
"302 753 LINE"
);
},
{
closed = 1;
nodes = (
"631 784 LINE",
"504 879 LINE",
"463 879 LINE",
"424 840 LINE",
"603 748 LINE"
);
}
);
width = 756;
},
{
anchors = (
{
name = top;
position = "{501, 1015}";
}
);
components = (
{
name = O;
}
);
layerId = "B953D09C-6DD0-450A-A78C-8C2188DD4016";
paths = (
{
closed = 1;
nodes = (
"660 787 LINE",
"537 892 LINE",
"474 892 LINE",
"433 841 LINE",
"620 742 LINE"
);
},
{
closed = 1;
nodes = (
"529 841 LINE",
"502 892 LINE",
"439 892 LINE",
"290 797 LINE",
"318 752 LINE"
);
}
);
width = 794;
}
);
leftKerningGroup = O;
rightKerningGroup = O;
unicode = 00D4;
},
{
glyphname = Ograve;
layers = (
{
anchors = (
{
name = top;
position = "{472, 995}";
}
);
components = (
{
name = O;
}
);
layerId = "08C09966-8326-41C9-AE3D-74AAC6FC1D13";
paths = (
{
closed = 1;
nodes = (
"573 794 LINE",
"366 908 LINE",
"327 845 LINE",
"549 753 LINE"
);
}
);
width = 756;
},
{
anchors = (
{
name = top;
position = "{491, 1015}";
}
);
components = (
{
name = O;
}
);
layerId = "B953D09C-6DD0-450A-A78C-8C2188DD4016";
paths = (
{
closed = 1;
nodes = (
"600 804 LINE",
"379 907 LINE",
"334 831 LINE",
"568 752 LINE"
);
}
);
width = 794;
}
);
leftKerningGroup = O;
rightKerningGroup = O;
unicode = 00D2;
},
{
glyphname = Oslash;
layers = (
{
anchors = (
{
name = bottom;
position = "{347.672, 0}";
},
{
name = top;
position = "{434.235, 705}";
}
);
background = {
anchors = (
{
name = bottom;
position = "{316, 0}";
},
{
name = top;
position = "{416, 715}";
}
);
components = (
{
name = O;
transform = "{1, 0, 0, 1, -9, 0}";
}
);
paths = (
{
closed = 1;
nodes = (
"697 815 LINE",
"659 838 LINE",
"36 -113 LINE",
"71 -136 LINE"
);
}
);
};
components = (
{
name = O;
}
);
layerId = "08C09966-8326-41C9-AE3D-74AAC6FC1D13";
paths = (
{
closed = 1;
nodes = (
"677 800 LINE",
"636 825 LINE",
"87 -98 LINE",
"126 -123 LINE"
);
}
);
width = 756;
},
{
anchors = (
{
name = bottom;
position = "{364.672, 0}";
},
{
name = top;
position = "{451.235, 705}";
}
);
annotations = (
{
position = "{411.045, 293.646}";
type = Text;
},
{
position = "{897, 828}";
type = Text;
}
);
background = {
anchors = (
{
name = bottom;
position = "{337, 0}";
},
{
name = top;
position = "{437, 715}";
}
);
components = (
{
name = O;
transform = "{1, 0, 0, 1, -3, 0}";
}
);
paths = (
{
closed = 1;
nodes = (
"724 809 LINE",
"671 838 LINE",
"51 -108 LINE",
"102 -137 LINE"
);
}
);
};
components = (
{
name = O;
}
);
layerId = "B953D09C-6DD0-450A-A78C-8C2188DD4016";
paths = (
{
closed = 1;
nodes = (
"710 794 LINE",
"652 826 LINE",
"106 -93 LINE",
"162 -125 LINE"
);
}
);
width = 790;
}
);
leftKerningGroup = O;
rightKerningGroup = O;
unicode = 00D8;
},
{
glyphname = Otilde;
layers = (
{
anchors = (
{
name = top;
position = "{480, 995}";
}
);
components = (
{
name = O;
}
);
layerId = "08C09966-8326-41C9-AE3D-74AAC6FC1D13";
paths = (
{
closed = 1;
nodes = (
"326 747 OFFCURVE",
"360 800 OFFCURVE",
"386 800 CURVE SMOOTH",
"426 800 OFFCURVE",
"484 759 OFFCURVE",
"523 759 CURVE SMOOTH",
"563 759 OFFCURVE",
"620 858 OFFCURVE",
"620 858 CURVE",
"588 878 LINE",
"588 878 OFFCURVE",
"554 827 OFFCURVE",
"527 827 CURVE SMOOTH",
"487 827 OFFCURVE",
"429 868 OFFCURVE",
"389 868 CURVE SMOOTH",
"350 868 OFFCURVE",
"294 767 OFFCURVE",
"294 767 CURVE",
"326 747 LINE"
);
}
);
width = 756;
},
{
anchors = (
{
name = top;
position = "{501, 1015}";
}
);
components = (
{
name = O;
}
);
layerId = "B953D09C-6DD0-450A-A78C-8C2188DD4016";
paths = (
{
closed = 1;
nodes = (
"343 747 OFFCURVE",
"375 793 OFFCURVE",
"400 793 CURVE SMOOTH",
"442 793 OFFCURVE",
"503 754 OFFCURVE",
"545 754 CURVE SMOOTH",
"587 754 OFFCURVE",
"645 854 OFFCURVE",
"645 854 CURVE",
"605 879 LINE",
"605 879 OFFCURVE",
"575 837 OFFCURVE",
"550 837 CURVE SMOOTH",
"509 837 OFFCURVE",
"446 876 OFFCURVE",
"404 876 CURVE SMOOTH",
"363 876 OFFCURVE",
"304 772 OFFCURVE",
"304 772 CURVE",
"343 747 LINE"
);
}
);
width = 794;
}
);
leftKerningGroup = O;
rightKerningGroup = O;
unicode = 00D5;
},
{
glyphname = P;
layers = (
{
anchors = (
{
name = bottom;
position = "{262.672, 0}";
},
{
name = top;
position = "{349.235, 705}";
}
);
background = {
paths = (
{
closed = 1;
nodes = (
"342 710 OFFCURVE",
"270 705 OFFCURVE",
"230 705 CURVE",
"183 648 LINE",
"183 648 OFFCURVE",
"309 660 OFFCURVE",
"343 660 CURVE SMOOTH",
"432 660 OFFCURVE",
"486 614 OFFCURVE",
"486 530 CURVE SMOOTH",
"486 405 OFFCURVE",
"408 341 OFFCURVE",
"294 341 CURVE SMOOTH",
"254 341 OFFCURVE",
"160 354 OFFCURVE",
"160 354 CURVE",
"152 296 LINE",
"152 296 OFFCURVE",
"249 291 OFFCURVE",
"317 291 CURVE SMOOTH",
"460 291 OFFCURVE",
"581 378 OFFCURVE",
"581 539 CURVE SMOOTH",
"581 651 OFFCURVE",
"500 710 OFFCURVE",
"382 710 CURVE SMOOTH"
);
},
{
closed = 1;
nodes = (
"54 -3 OFFCURVE",
"119 0 OFFCURVE",
"144 0 CURVE SMOOTH",
"277 0 LINE",
"291 54 LINE",
"160 64 LINE",
"196 28 LINE",
"194 59 OFFCURVE",
"200 130 OFFCURVE",
"205 167 CURVE SMOOTH",
"259 538 LINE SMOOTH",
"265 579 OFFCURVE",
"283 655 OFFCURVE",
"290 680 CURVE",
"230 705 LINE",
"212 705 OFFCURVE",
"153 708 OFFCURVE",
"115 710 CURVE",
"102 656 LINE",
"211 638 LINE",
"175 680 LINE",
"176 656 OFFCURVE",
"175 588 OFFCURVE",
"172 568 CURVE SMOOTH",
"109 137 LINE SMOOTH",
"106 117 OFFCURVE",
"87 51 OFFCURVE",
"80 24 CURVE",
"126 68 LINE",
"11 45 LINE",
"9 -5 LINE"
);
}
);
};
layerId = "08C09966-8326-41C9-AE3D-74AAC6FC1D13";
paths = (
{
closed = 1;
nodes = (
"54 -3 OFFCURVE",
"119 0 OFFCURVE",
"144 0 CURVE SMOOTH",
"277 0 LINE",
"291 54 LINE",
"160 64 LINE",
"196 28 LINE",
"194 59 OFFCURVE",
"200 130 OFFCURVE",
"205 167 CURVE SMOOTH",
"259 538 LINE SMOOTH",
"265 579 OFFCURVE",
"283 655 OFFCURVE",
"290 680 CURVE",
"237 653 LINE SMOOTH",
"276 656 OFFCURVE",
"324 660 OFFCURVE",
"343 660 CURVE SMOOTH",
"432 660 OFFCURVE",
"486 614 OFFCURVE",
"486 530 CURVE SMOOTH",
"486 405 OFFCURVE",
"408 341 OFFCURVE",
"294 341 CURVE SMOOTH",
"254 341 OFFCURVE",
"200 349 OFFCURVE",
"160 354 CURVE",
"152 296 LINE",
"207 293 OFFCURVE",
"262 291 OFFCURVE",
"317 291 CURVE SMOOTH",
"460 291 OFFCURVE",
"581 378 OFFCURVE",
"581 539 CURVE SMOOTH",
"581 651 OFFCURVE",
"500 710 OFFCURVE",
"382 710 CURVE SMOOTH",
"342 710 OFFCURVE",
"270 705 OFFCURVE",
"230 705 CURVE SMOOTH",
"212 705 OFFCURVE",
"153 708 OFFCURVE",
"115 710 CURVE",
"102 656 LINE",
"211 638 LINE",
"175 680 LINE",
"176 656 OFFCURVE",
"175 588 OFFCURVE",
"172 568 CURVE SMOOTH",
"109 137 LINE SMOOTH",
"106 117 OFFCURVE",
"87 51 OFFCURVE",
"80 24 CURVE",
"126 68 LINE",
"11 45 LINE",
"9 -5 LINE"
);
}
);
width = 586;
},
{
anchors = (
{
name = bottom;
position = "{278.672, 0}";
},
{
name = top;
position = "{365.235, 705}";
}
);
background = {
paths = (
{
closed = 1;
nodes = (
"372 710 OFFCURVE",
"284 705 OFFCURVE",
"234 705 CURVE",
"169 618 LINE",
"169 618 OFFCURVE",
"322 628 OFFCURVE",
"352 628 CURVE SMOOTH",
"428 628 OFFCURVE",
"462 595 OFFCURVE",
"462 524 CURVE SMOOTH",
"462 411 OFFCURVE",
"395 348 OFFCURVE",
"296 348 CURVE SMOOTH",
"260 348 OFFCURVE",
"178 348 OFFCURVE",
"178 348 CURVE",
"166 266 LINE",
"166 266 OFFCURVE",
"250 266 OFFCURVE",
"322 266 CURVE SMOOTH",
"472 266 OFFCURVE",
"623 360 OFFCURVE",
"623 524 CURVE SMOOTH",
"623 643 OFFCURVE",
"544 710 OFFCURVE",
"422 710 CURVE SMOOTH"
);
},
{
closed = 1;
nodes = (
"310 542 LINE SMOOTH",
"313 562 OFFCURVE",
"327 618 OFFCURVE",
"331 633 CURVE",
"234 705 LINE",
"204 705 OFFCURVE",
"114 710 OFFCURVE",
"114 710 CURVE",
"98 635 LINE",
"159 623 LINE",
"159 608 OFFCURVE",
"158 562 OFFCURVE",
"151 512 CURVE SMOOTH",
"100 163 LINE SMOOTH",
"97 143 OFFCURVE",
"84 92 OFFCURVE",
"79 77 CURVE",
"14 65 LINE",
"9 -5 LINE",
"9 -5 OFFCURVE",
"129 0 OFFCURVE",
"159 0 CURVE",
"297 0 LINE",
"312 70 LINE",
"251 77 LINE",
"251 92 OFFCURVE",
"252 143 OFFCURVE",
"260 193 CURVE SMOOTH"
);
}
);
};
layerId = "B953D09C-6DD0-450A-A78C-8C2188DD4016";
paths = (
{
closed = 1;
nodes = (
"59 -3 OFFCURVE",
"127 0 OFFCURVE",
"156 0 CURVE SMOOTH",
"301 0 LINE",
"315 66 LINE",
"182 79 LINE",
"238 39 LINE",
"238 59 OFFCURVE",
"239 130 OFFCURVE",
"247 186 CURVE SMOOTH",
"298 541 LINE SMOOTH",
"303 573 OFFCURVE",
"319 639 OFFCURVE",
"326 666 CURVE",
"253 631 LINE",
"293 634 OFFCURVE",
"336 636 OFFCURVE",
"351 636 CURVE SMOOTH",
"430 636 OFFCURVE",
"469 599 OFFCURVE",
"469 526 CURVE SMOOTH",
"469 410 OFFCURVE",
"399 346 OFFCURVE",
"297 346 CURVE SMOOTH",
"260 346 OFFCURVE",
"207 346 OFFCURVE",
"175 346 CURVE",
"164 274 LINE",
"217 273 OFFCURVE",
"269 272 OFFCURVE",
"322 272 CURVE SMOOTH",
"470 272 OFFCURVE",
"614 365 OFFCURVE",
"614 528 CURVE SMOOTH",
"614 645 OFFCURVE",
"534 710 OFFCURVE",
"413 710 CURVE SMOOTH",
"366 710 OFFCURVE",
"282 705 OFFCURVE",
"234 705 CURVE SMOOTH",
"215 705 OFFCURVE",
"155 708 OFFCURVE",
"115 710 CURVE",
"100 640 LINE",
"220 618 LINE",
"164 666 LINE",
"164 641 OFFCURVE",
"164 573 OFFCURVE",
"157 526 CURVE SMOOTH",
"103 156 LINE SMOOTH",
"99 130 OFFCURVE",
"82 73 OFFCURVE",
"75 47 CURVE",
"138 83 LINE",
"14 60 LINE",
"10 -5 LINE"
);
}
);
width = 617;
}
);
leftKerningGroup = H;
rightKerningGroup = P;
unicode = 0050;
},
{
glyphname = Q;
layers = (
{
anchors = (
{
name = bottom;
position = "{348.672, 0}";
},
{
name = top;
position = "{435.235, 705}";
}
);
background = {
paths = (
{
closed = 1;
nodes = (
"601 -224 LINE",
"673 -132 LINE",
"673 -132 OFFCURVE",
"544 -71 OFFCURVE",
"530 -60 CURVE SMOOTH",
"455 1 LINE",
"628 54 OFFCURVE",
"719 219 OFFCURVE",
"719 420 CURVE SMOOTH",
"719 598 OFFCURVE",
"626 720 OFFCURVE",
"444 720 CURVE SMOOTH",
"200 720 OFFCURVE",
"67 531 OFFCURVE",
"67 284 CURVE SMOOTH",
"67 107 OFFCURVE",
"159 -15 OFFCURVE",
"341 -15 CURVE SMOOTH",
"354 -15 OFFCURVE",
"365 -14 OFFCURVE",
"377 -13 CURVE"
);
},
{
closed = 1;
nodes = (
"174 481 OFFCURVE",
"267 667 OFFCURVE",
"439 667 CURVE SMOOTH",
"558 667 OFFCURVE",
"612 560 OFFCURVE",
"612 421 CURVE SMOOTH",
"612 223 OFFCURVE",
"520 38 OFFCURVE",
"349 38 CURVE SMOOTH",
"230 38 OFFCURVE",
"174 145 OFFCURVE",
"174 283 CURVE SMOOTH"
);
}
);
};
layerId = "08C09966-8326-41C9-AE3D-74AAC6FC1D13";
paths = (
{
closed = 1;
nodes = (
"586 -15 OFFCURVE",
"719 174 OFFCURVE",
"719 420 CURVE SMOOTH",
"719 598 OFFCURVE",
"626 720 OFFCURVE",
"444 720 CURVE SMOOTH",
"200 720 OFFCURVE",
"67 531 OFFCURVE",
"67 284 CURVE SMOOTH",
"67 107 OFFCURVE",
"160 -15 OFFCURVE",
"342 -15 CURVE SMOOTH"
);
},
{
closed = 1;
nodes = (
"673 -132 LINE",
"625 -109 OFFCURVE",
"544 -72 OFFCURVE",
"530 -60 CURVE SMOOTH",
"455 1 LINE",
"377 -13 LINE",
"601 -224 LINE"
);
},
{
closed = 1;
nodes = (
"228 38 OFFCURVE",
"174 145 OFFCURVE",
"174 283 CURVE SMOOTH",
"174 481 OFFCURVE",
"267 667 OFFCURVE",
"439 667 CURVE SMOOTH",
"558 667 OFFCURVE",
"612 560 OFFCURVE",
"612 421 CURVE SMOOTH",
"612 223 OFFCURVE",
"518 38 OFFCURVE",
"347 38 CURVE SMOOTH"
);
}
);
width = 757;
},
{
anchors = (
{
name = bottom;
position = "{364.672, 0}";
},
{
name = top;
position = "{451.235, 705}";
}
);
background = {
paths = (
{
closed = 1;
nodes = (
"622 -224 LINE",
"729 -100 LINE",
"729 -100 OFFCURVE",
"600 -42 OFFCURVE",
"586 -32 CURVE SMOOTH",
"527 14 LINE",
"674 79 OFFCURVE",
"767 224 OFFCURVE",
"767 412 CURVE SMOOTH",
"767 602 OFFCURVE",
"651 724 OFFCURVE",
"464 724 CURVE SMOOTH",
"227 724 OFFCURVE",
"59 548 OFFCURVE",
"59 292 CURVE SMOOTH",
"59 103 OFFCURVE",
"175 -19 OFFCURVE",
"362 -19 CURVE SMOOTH",
"368 -19 OFFCURVE",
"375 -19 OFFCURVE",
"381 -19 CURVE"
);
},
{
closed = 1;
nodes = (
"236 483 OFFCURVE",
"298 627 OFFCURVE",
"453 627 CURVE SMOOTH",
"545 627 OFFCURVE",
"589 563 OFFCURVE",
"589 433 CURVE SMOOTH",
"589 221 OFFCURVE",
"527 78 OFFCURVE",
"373 78 CURVE SMOOTH",
"281 78 OFFCURVE",
"236 142 OFFCURVE",
"236 271 CURVE SMOOTH"
);
}
);
};
layerId = "B953D09C-6DD0-450A-A78C-8C2188DD4016";
paths = (
{
closed = 1;
nodes = (
"598 -15 OFFCURVE",
"757 164 OFFCURVE",
"757 414 CURVE SMOOTH",
"757 598 OFFCURVE",
"647 720 OFFCURVE",
"461 720 CURVE SMOOTH",
"222 720 OFFCURVE",
"63 541 OFFCURVE",
"63 290 CURVE SMOOTH",
"63 107 OFFCURVE",
"173 -15 OFFCURVE",
"359 -15 CURVE SMOOTH"
);
},
{
closed = 1;
nodes = (
"717 -108 LINE",
"669 -86 OFFCURVE",
"587 -49 OFFCURVE",
"574 -39 CURVE SMOOTH",
"504 17 LINE",
"369 -7 LINE",
"619 -224 LINE"
);
},
{
closed = 1;
nodes = (
"270 71 OFFCURVE",
"223 146 OFFCURVE",
"223 274 CURVE SMOOTH",
"223 479 OFFCURVE",
"292 634 OFFCURVE",
"452 634 CURVE SMOOTH",
"550 634 OFFCURVE",
"597 559 OFFCURVE",
"597 430 CURVE SMOOTH",
"597 225 OFFCURVE",
"527 71 OFFCURVE",
"369 71 CURVE SMOOTH"
);
}
);
width = 790;
}
);
leftKerningGroup = O;
rightKerningGroup = O;
unicode = 0051;
},
{
glyphname = R;
layers = (
{
anchors = (
{
name = bottom;
position = "{306, 0}";
},
{
name = top;
position = "{340, 720}";
}
);
background = {
paths = (
{
closed = 1;
nodes = (
"342 710 OFFCURVE",
"270 705 OFFCURVE",
"230 705 CURVE",
"184 648 LINE",
"184 648 OFFCURVE",
"309 660 OFFCURVE",
"343 660 CURVE SMOOTH",
"432 660 OFFCURVE",
"487 615 OFFCURVE",
"487 534 CURVE SMOOTH",
"487 413 OFFCURVE",
"420 351 OFFCURVE",
"306 351 CURVE SMOOTH",
"264 351 OFFCURVE",
"160 364 OFFCURVE",
"160 364 CURVE",
"152 306 LINE",
"152 306 OFFCURVE",
"250 301 OFFCURVE",
"318 301 CURVE SMOOTH",
"460 301 OFFCURVE",
"582 387 OFFCURVE",
"582 544 CURVE SMOOTH",
"582 652 OFFCURVE",
"501 710 OFFCURVE",
"382 710 CURVE SMOOTH"
);
},
{
closed = 1;
nodes = (
"299 345 LINE",
"384 116 LINE SMOOTH",
"393 92 OFFCURVE",
"420 0 OFFCURVE",
"420 0 CURVE",
"576 0 LINE",
"590 54 LINE",
"521 61 LINE",
"509 83 OFFCURVE",
"491 116 OFFCURVE",
"484 131 CURVE SMOOTH",
"480 140 OFFCURVE",
"433 243 OFFCURVE",
"397 349 CURVE"
);
},
{
closed = 1;
nodes = (
"230 705 LINE",
"210 705 OFFCURVE",
"115 710 OFFCURVE",
"115 710 CURVE",
"102 656 LINE",
"175 644 LINE",
"175 631 OFFCURVE",
"174 583 OFFCURVE",
"172 568 CURVE SMOOTH",
"109 137 LINE SMOOTH",
"107 122 OFFCURVE",
"93 74 OFFCURVE",
"90 61 CURVE",
"11 45 LINE",
"9 -5 LINE",
"9 -5 OFFCURVE",
"119 0 OFFCURVE",
"144 0 CURVE SMOOTH",
"223 0 OFFCURVE",
"267 0 OFFCURVE",
"267 0 CURVE",
"281 54 LINE",
"196 61 LINE",
"196 75 OFFCURVE",
"201 137 OFFCURVE",
"205 167 CURVE SMOOTH",
"259 538 LINE SMOOTH",
"263 568 OFFCURVE",
"283 654 OFFCURVE",
"287 668 CURVE"
);
}
);
};
layerId = "08C09966-8326-41C9-AE3D-74AAC6FC1D13";
paths = (
{
closed = 1;
nodes = (
"54 -3 OFFCURVE",
"119 0 OFFCURVE",
"144 0 CURVE SMOOTH",
"267 0 LINE",
"281 54 LINE",
"160 64 LINE",
"196 28 LINE",
"194 59 OFFCURVE",
"200 130 OFFCURVE",
"205 167 CURVE SMOOTH",
"259 538 LINE SMOOTH",
"265 579 OFFCURVE",
"283 655 OFFCURVE",
"290 680 CURVE",
"247 654 LINE",
"277 656 OFFCURVE",
"325 660 OFFCURVE",
"343 660 CURVE SMOOTH",
"432 660 OFFCURVE",
"487 615 OFFCURVE",
"487 534 CURVE SMOOTH",
"487 413 OFFCURVE",
"420 351 OFFCURVE",
"306 351 CURVE SMOOTH",
"257 351 OFFCURVE",
"209 358 OFFCURVE",
"160 364 CURVE",
"152 306 LINE",
"207 304 OFFCURVE",
"263 301 OFFCURVE",
"318 301 CURVE SMOOTH",
"460 301 OFFCURVE",
"582 387 OFFCURVE",
"582 544 CURVE SMOOTH",
"582 652 OFFCURVE",
"501 710 OFFCURVE",
"382 710 CURVE SMOOTH",
"342 710 OFFCURVE",
"270 705 OFFCURVE",
"230 705 CURVE SMOOTH",
"212 705 OFFCURVE",
"153 708 OFFCURVE",
"115 710 CURVE",
"102 656 LINE",
"211 638 LINE",
"175 680 LINE",
"176 656 OFFCURVE",
"175 588 OFFCURVE",
"172 568 CURVE SMOOTH",
"109 137 LINE SMOOTH",
"106 117 OFFCURVE",
"87 51 OFFCURVE",
"80 24 CURVE",
"126 68 LINE",
"11 45 LINE",
"9 -5 LINE"
);
},
{
closed = 1;
nodes = (
"576 0 LINE",
"590 54 LINE",
"485 65 LINE",
"530 45 LINE",
"521 61 OFFCURVE",
"493 111 OFFCURVE",
"484 131 CURVE SMOOTH",
"480 141 OFFCURVE",
"438 245 OFFCURVE",
"397 349 CURVE",
"299 345 LINE",
"384 116 LINE SMOOTH",
"397 81 OFFCURVE",
"408 43 OFFCURVE",
"420 0 CURVE"
);
}
);
width = 648;
},
{
anchors = (
{
name = bottom;
position = "{321, 0}";
},
{
name = top;
position = "{372, 720}";
}
);
background = {
paths = (
{
closed = 1;
nodes = (
"374 710 OFFCURVE",
"284 705 OFFCURVE",
"234 705 CURVE",
"220 621 LINE",
"269 624 OFFCURVE",
"335 628 OFFCURVE",
"354 628 CURVE SMOOTH",
"431 628 OFFCURVE",
"468 596 OFFCURVE",
"468 528 CURVE SMOOTH",
"468 431 OFFCURVE",
"428 361 OFFCURVE",
"310 361 CURVE SMOOTH",
"274 361 OFFCURVE",
"172 361 OFFCURVE",
"172 361 CURVE",
"171 287 LINE",
"220 284 OFFCURVE",
"270 277 OFFCURVE",
"319 277 CURVE SMOOTH",
"473 277 OFFCURVE",
"629 377 OFFCURVE",
"629 533 CURVE SMOOTH",
"629 644 OFFCURVE",
"548 710 OFFCURVE",
"424 710 CURVE SMOOTH"
);
},
{
closed = 1;
nodes = (
"308 345 LINE",
"391 116 LINE",
"400 92 OFFCURVE",
"423 0 OFFCURVE",
"423 0 CURVE",
"536 0 OFFCURVE",
"613 -5 OFFCURVE",
"613 -5 CURVE",
"628 71 LINE",
"581 75 LINE",
"572 96 OFFCURVE",
"560 119 OFFCURVE",
"555 131 CURVE",
"551 140 OFFCURVE",
"498 243 OFFCURVE",
"465 349 CURVE"
);
},
{
closed = 1;
nodes = (
"310 542 LINE SMOOTH",
"313 562 OFFCURVE",
"327 618 OFFCURVE",
"331 633 CURVE",
"234 705 LINE",
"204 705 OFFCURVE",
"114 710 OFFCURVE",
"114 710 CURVE",
"98 635 LINE",
"159 623 LINE",
"159 608 OFFCURVE",
"158 562 OFFCURVE",
"151 512 CURVE SMOOTH",
"100 163 LINE SMOOTH",
"97 143 OFFCURVE",
"84 92 OFFCURVE",
"79 77 CURVE",
"14 65 LINE",
"9 -5 LINE",
"9 -5 OFFCURVE",
"129 0 OFFCURVE",
"159 0 CURVE",
"297 0 LINE",
"312 70 LINE",
"251 77 LINE",
"251 92 OFFCURVE",
"252 143 OFFCURVE",
"260 193 CURVE SMOOTH"
);
}
);
};
layerId = "B953D09C-6DD0-450A-A78C-8C2188DD4016";
paths = (
{
closed = 1;
nodes = (
"59 -3 OFFCURVE",
"127 0 OFFCURVE",
"156 0 CURVE SMOOTH",
"291 0 LINE",
"305 66 LINE",
"182 79 LINE",
"238 39 LINE",
"238 59 OFFCURVE",
"239 130 OFFCURVE",
"247 186 CURVE SMOOTH",
"298 541 LINE SMOOTH",
"303 574 OFFCURVE",
"322 639 OFFCURVE",
"329 666 CURVE",
"212 628 LINE",
"249 630 OFFCURVE",
"330 636 OFFCURVE",
"352 636 CURVE SMOOTH",
"431 636 OFFCURVE",
"474 601 OFFCURVE",
"474 530 CURVE SMOOTH",
"474 427 OFFCURVE",
"427 359 OFFCURVE",
"310 359 CURVE SMOOTH",
"269 359 OFFCURVE",
"225 360 OFFCURVE",
"170 362 CURVE",
"167 292 LINE",
"218 289 OFFCURVE",
"284 283 OFFCURVE",
"320 283 CURVE SMOOTH",
"471 283 OFFCURVE",
"618 380 OFFCURVE",
"618 536 CURVE SMOOTH",
"618 646 OFFCURVE",
"537 710 OFFCURVE",
"415 710 CURVE SMOOTH",
"367 710 OFFCURVE",
"282 705 OFFCURVE",
"234 705 CURVE SMOOTH",
"215 705 OFFCURVE",
"155 708 OFFCURVE",
"115 710 CURVE",
"100 640 LINE",
"220 618 LINE",
"164 666 LINE",
"164 641 OFFCURVE",
"164 573 OFFCURVE",
"157 526 CURVE SMOOTH",
"103 156 LINE SMOOTH",
"99 130 OFFCURVE",
"82 73 OFFCURVE",
"75 47 CURVE",
"138 83 LINE",
"14 60 LINE",
"10 -5 LINE"
);
},
{
closed = 1;
nodes = (
"606 0 LINE",
"620 67 LINE",
"511 76 LINE",
"584 41 LINE",
"573 60 OFFCURVE",
"546 114 OFFCURVE",
"539 129 CURVE SMOOTH",
"533 143 OFFCURVE",
"483 243 OFFCURVE",
"449 349 CURVE",
"307 345 LINE",
"390 116 LINE SMOOTH",
"401 85 OFFCURVE",
"414 34 OFFCURVE",
"423 0 CURVE"
);
}
);
width = 676;
}
);
leftKerningGroup = H;
rightKerningGroup = R;
unicode = 0052;
},
{
glyphname = Racute;
layers = (
{
anchors = (
{
name = top;
position = "{378, 995}";
}
);
components = (
{
name = R;
}
);
layerId = "08C09966-8326-41C9-AE3D-74AAC6FC1D13";
paths = (
{
closed = 1;
nodes = (
"486 845 LINE",
"465 908 LINE",
"226 794 LINE",
"238 753 LINE"
);
}
);
width = 648;
},
{
anchors = (
{
name = top;
position = "{412, 1015}";
}
);
components = (
{
name = R;
}
);
layerId = "B953D09C-6DD0-450A-A78C-8C2188DD4016";
paths = (
{
closed = 1;
nodes = (
"525 831 LINE",
"502 907 LINE",
"251 804 LINE",
"269 752 LINE"
);
}
);
width = 676;
}
);
leftKerningGroup = H;
rightKerningGroup = R;
unicode = 0154;
},
{
glyphname = S;
layers = (
{
anchors = (
{
name = bottom;
position = "{242, 0}";
},
{
name = top;
position = "{353, 720}";
}
);
background = {
paths = (
{
closed = 1;
nodes = (
"66 192 LINE",
"29 38 LINE",
"29 38 OFFCURVE",
"108 -15 OFFCURVE",
"238 -15 CURVE SMOOTH",
"379 -15 OFFCURVE",
"499 59 OFFCURVE",
"499 207 CURVE SMOOTH",
"499 401 OFFCURVE",
"205 404 OFFCURVE",
"205 542 CURVE SMOOTH",
"205 621 OFFCURVE",
"265 665 OFFCURVE",
"332 665 CURVE SMOOTH",
"376 665 OFFCURVE",
"406 661 OFFCURVE",
"443 643 CURVE",
"445 624 OFFCURVE",
"448 602 OFFCURVE",
"448 591 CURVE SMOOTH",
"448 587 OFFCURVE",
"441 543 OFFCURVE",
"441 543 CURVE",
"498 537 LINE",
"534 688 LINE",
"474 704 OFFCURVE",
"402 720 OFFCURVE",
"339 720 CURVE SMOOTH",
"206 720 OFFCURVE",
"102 644 OFFCURVE",
"102 512 CURVE SMOOTH",
"102 327 OFFCURVE",
"391 326 OFFCURVE",
"391 184 CURVE SMOOTH",
"391 98 OFFCURVE",
"332 45 OFFCURVE",
"245 45 CURVE SMOOTH",
"198 45 OFFCURVE",
"155 58 OFFCURVE",
"124 72 CURVE",
"123 86 OFFCURVE",
"122 110 OFFCURVE",
"122 123 CURVE SMOOTH",
"122 136 OFFCURVE",
"130 186 OFFCURVE",
"130 186 CURVE"
);
}
);
};
layerId = "08C09966-8326-41C9-AE3D-74AAC6FC1D13";
paths = (
{
closed = 1;
nodes = (
"379 -15 OFFCURVE",
"499 59 OFFCURVE",
"499 207 CURVE SMOOTH",
"499 401 OFFCURVE",
"205 404 OFFCURVE",
"205 542 CURVE SMOOTH",
"205 621 OFFCURVE",
"265 665 OFFCURVE",
"332 665 CURVE SMOOTH",
"385 665 OFFCURVE",
"421 658 OFFCURVE",
"471 629 CURVE",
"441 666 LINE",
"443 647 OFFCURVE",
"448 607 OFFCURVE",
"448 591 CURVE SMOOTH",
"448 583 OFFCURVE",
"443 559 OFFCURVE",
"441 543 CURVE",
"498 537 LINE",
"534 688 LINE",
"474 704 OFFCURVE",
"402 720 OFFCURVE",
"339 720 CURVE SMOOTH",
"206 720 OFFCURVE",
"102 644 OFFCURVE",
"102 512 CURVE SMOOTH",
"102 327 OFFCURVE",
"391 326 OFFCURVE",
"391 184 CURVE SMOOTH",
"391 98 OFFCURVE",
"332 45 OFFCURVE",
"245 45 CURVE SMOOTH",
"189 45 OFFCURVE",
"138 64 OFFCURVE",
"107 80 CURVE",
"125 61 LINE",
"124 70 OFFCURVE",
"122 104 OFFCURVE",
"122 123 CURVE SMOOTH",
"122 136 OFFCURVE",
"130 186 OFFCURVE",
"130 186 CURVE",
"66 192 LINE",
"29 38 LINE",
"92 1 OFFCURVE",
"166 -15 OFFCURVE",
"238 -15 CURVE SMOOTH"
);
}
);
width = 556;
},
{
anchors = (
{
name = bottom;
position = "{246, 0}";
},
{
name = top;
position = "{361, 720}";
}
);
background = {
paths = (
{
closed = 1;
nodes = (
"74 226 LINE",
"31 33 LINE",
"31 33 OFFCURVE",
"123 -15 OFFCURVE",
"254 -15 CURVE SMOOTH",
"408 -15 OFFCURVE",
"536 79 OFFCURVE",
"536 232 CURVE SMOOTH",
"536 426 OFFCURVE",
"265 419 OFFCURVE",
"265 536 CURVE SMOOTH",
"265 592 OFFCURVE",
"310 627 OFFCURVE",
"374 627 CURVE SMOOTH",
"408 627 OFFCURVE",
"428 616 OFFCURVE",
"446 604 CURVE",
"450 588 OFFCURVE",
"453 576 OFFCURVE",
"453 571 CURVE SMOOTH",
"453 568 OFFCURVE",
"442 496 OFFCURVE",
"442 496 CURVE",
"524 491 LINE",
"565 684 LINE",
"500 705 OFFCURVE",
"421 720 OFFCURVE",
"353 720 CURVE SMOOTH",
"207 720 OFFCURVE",
"95 632 OFFCURVE",
"95 492 CURVE SMOOTH",
"95 292 OFFCURVE",
"365 304 OFFCURVE",
"365 178 CURVE SMOOTH",
"365 113 OFFCURVE",
"311 82 OFFCURVE",
"253 82 CURVE SMOOTH",
"183 82 OFFCURVE",
"148 115 OFFCURVE",
"138 119 CURVE",
"161 90 LINE",
"157 102 OFFCURVE",
"145 137 OFFCURVE",
"145 149 CURVE SMOOTH",
"145 153 OFFCURVE",
"155 221 OFFCURVE",
"155 221 CURVE"
);
}
);
};
layerId = "B953D09C-6DD0-450A-A78C-8C2188DD4016";
paths = (
{
closed = 1;
nodes = (
"402 -15 OFFCURVE",
"528 74 OFFCURVE",
"528 226 CURVE SMOOTH",
"528 420 OFFCURVE",
"252 415 OFFCURVE",
"252 538 CURVE SMOOTH",
"252 599 OFFCURVE",
"300 637 OFFCURVE",
"365 637 CURVE SMOOTH",
"419 637 OFFCURVE",
"453 610 OFFCURVE",
"480 592 CURVE",
"434 674 LINE",
"441 642 OFFCURVE",
"453 589 OFFCURVE",
"453 576 CURVE SMOOTH",
"453 569 OFFCURVE",
"447 532 OFFCURVE",
"443 508 CURVE",
"519 503 LINE",
"559 685 LINE",
"495 705 OFFCURVE",
"416 720 OFFCURVE",
"351 720 CURVE SMOOTH",
"208 720 OFFCURVE",
"98 635 OFFCURVE",
"98 497 CURVE SMOOTH",
"98 301 OFFCURVE",
"373 310 OFFCURVE",
"373 180 CURVE SMOOTH",
"373 110 OFFCURVE",
"318 73 OFFCURVE",
"253 73 CURVE SMOOTH",
"189 73 OFFCURVE",
"147 101 OFFCURVE",
"132 109 CURVE",
"154 83 LINE",
"150 94 OFFCURVE",
"141 130 OFFCURVE",
"141 143 CURVE SMOOTH",
"141 148 OFFCURVE",
"150 212 OFFCURVE",
"150 212 CURVE",
"74 218 LINE",
"32 34 LINE",
"94 3 OFFCURVE",
"173 -15 OFFCURVE",
"252 -15 CURVE SMOOTH"
);
}
);
width = 582;
}
);
leftKerningGroup = S;
rightKerningGroup = S;
unicode = 0053;
},
{
glyphname = T;
layers = (
{
anchors = (
{
name = bottom;
position = "{286, 0}";
},
{
name = center;
position = "{336, 353}";
},
{
name = top;
position = "{397, 720}";
}
);
background = {
paths = (
{
closed = 1;
nodes = (
"112 692 LINE",
"80 528 LINE",
"136 523 LINE",
"142 549 OFFCURVE",
"154 593 OFFCURVE",
"161 607 CURVE SMOOTH",
"167 619 OFFCURVE",
"179 632 OFFCURVE",
"187 644 CURVE",
"133 710 LINE"
);
},
{
closed = 1;
nodes = (
"490 649 LINE SMOOTH",
"517 649 OFFCURVE",
"547 646 OFFCURVE",
"568 644 CURVE",
"576 631 OFFCURVE",
"581 614 OFFCURVE",
"582 607 CURVE SMOOTH",
"584 592 OFFCURVE",
"583 559 OFFCURVE",
"582 523 CURVE",
"639 528 LINE",
"655 692 LINE",
"639 710 LINE",
"639 710 OFFCURVE",
"547 705 OFFCURVE",
"527 705 CURVE SMOOTH",
"243 705 LINE",
"224 705 OFFCURVE",
"133 710 OFFCURVE",
"133 710 CURVE",
"185 644 LINE",
"207 646 OFFCURVE",
"237 649 OFFCURVE",
"264 649 CURVE"
);
},
{
closed = 1;
nodes = (
"325 650 LINE",
"325 637 OFFCURVE",
"323 583 OFFCURVE",
"321 568 CURVE SMOOTH",
"258 137 LINE SMOOTH",
"256 122 OFFCURVE",
"242 74 OFFCURVE",
"239 61 CURVE",
"150 45 LINE",
"148 -5 LINE",
"148 -5 OFFCURVE",
"268 0 OFFCURVE",
"293 0 CURVE SMOOTH",
"372 0 OFFCURVE",
"426 0 OFFCURVE",
"426 0 CURVE",
"440 54 LINE",
"345 61 LINE",
"345 75 OFFCURVE",
"350 137 OFFCURVE",
"354 167 CURVE SMOOTH",
"408 538 LINE SMOOTH",
"412 568 OFFCURVE",
"427 636 OFFCURVE",
"431 650 CURVE"
);
}
);
};
layerId = "08C09966-8326-41C9-AE3D-74AAC6FC1D13";
paths = (
{
closed = 1;
nodes = (
"193 -3 OFFCURVE",
"268 0 OFFCURVE",
"293 0 CURVE SMOOTH",
"426 0 LINE",
"440 54 LINE",
"309 64 LINE",
"345 28 LINE",
"343 59 OFFCURVE",
"349 130 OFFCURVE",
"354 167 CURVE SMOOTH",
"408 538 LINE",
"414 579 OFFCURVE",
"432 655 OFFCURVE",
"439 680 CURVE",
"324 680 LINE",
"325 656 OFFCURVE",
"324 588 OFFCURVE",
"321 568 CURVE SMOOTH",
"258 137 LINE SMOOTH",
"255 117 OFFCURVE",
"236 51 OFFCURVE",
"229 24 CURVE",
"275 68 LINE",
"150 45 LINE",
"148 -5 LINE"
);
},
{
closed = 1;
nodes = (
"142 549 OFFCURVE",
"154 593 OFFCURVE",
"161 607 CURVE SMOOTH",
"166 618 OFFCURVE",
"197 659 OFFCURVE",
"211 678 CURVE",
"148 643 LINE",
"171 645 OFFCURVE",
"229 649 OFFCURVE",
"264 649 CURVE SMOOTH",
"490 649 LINE SMOOTH",
"515 649 OFFCURVE",
"566 645 OFFCURVE",
"585 643 CURVE",
"552 672 LINE",
"568 653 OFFCURVE",
"582 614 OFFCURVE",
"582 607 CURVE SMOOTH",
"582 592 OFFCURVE",
"583 549 OFFCURVE",
"582 523 CURVE",
"639 528 LINE",
"655 692 LINE",
"639 710 LINE",
"602 708 OFFCURVE",
"544 705 OFFCURVE",
"527 705 CURVE SMOOTH",
"243 705 LINE SMOOTH",
"226 705 OFFCURVE",
"170 708 OFFCURVE",
"133 710 CURVE",
"112 692 LINE",
"80 528 LINE",
"136 523 LINE"
);
}
);
width = 642;
},
{
anchors = (
{
name = bottom;
position = "{298, 0}";
},
{
name = center;
position = "{348, 353}";
},
{
name = top;
position = "{399, 720}";
}
);
background = {
paths = (
{
closed = 1;
nodes = (
"302 623 LINE",
"302 608 OFFCURVE",
"301 562 OFFCURVE",
"294 512 CURVE SMOOTH",
"243 163 LINE SMOOTH",
"240 143 OFFCURVE",
"227 92 OFFCURVE",
"222 77 CURVE",
"147 65 LINE",
"142 -5 LINE",
"142 -5 OFFCURVE",
"272 0 OFFCURVE",
"302 0 CURVE",
"450 0 LINE",
"465 70 LINE",
"394 77 LINE",
"394 92 OFFCURVE",
"395 143 OFFCURVE",
"403 193 CURVE SMOOTH",
"453 542 LINE SMOOTH",
"456 562 OFFCURVE",
"469 608 OFFCURVE",
"474 623 CURVE"
);
},
{
closed = 1;
nodes = (
"131 710 OFFCURVE",
"224 705 OFFCURVE",
"244 705 CURVE SMOOTH",
"553 705 LINE",
"573 705 OFFCURVE",
"639 708 OFFCURVE",
"669 710 CURVE",
"685 692 LINE",
"668 512 LINE",
"598 507 LINE",
"598 524 OFFCURVE",
"599 568 OFFCURVE",
"599 583 CURVE",
"591 619 LINE",
"571 621 OFFCURVE",
"547 623 OFFCURVE",
"517 623 CURVE",
"263 623 LINE",
"233 623 OFFCURVE",
"202 621 OFFCURVE",
"182 619 CURVE",
"167 583 LINE",
"161 568 OFFCURVE",
"150 524 OFFCURVE",
"146 507 CURVE",
"76 512 LINE",
"108 692 LINE",
"131 710 LINE"
);
}
);
};
layerId = "B953D09C-6DD0-450A-A78C-8C2188DD4016";
paths = (
{
closed = 1;
nodes = (
"193 -3 OFFCURVE",
"273 0 OFFCURVE",
"301 0 CURVE SMOOTH",
"445 0 LINE",
"460 66 LINE",
"327 79 LINE",
"383 39 LINE",
"382 62 OFFCURVE",
"385 134 OFFCURVE",
"392 186 CURVE SMOOTH",
"443 541 LINE SMOOTH",
"449 582 OFFCURVE",
"469 645 OFFCURVE",
"474 666 CURVE",
"309 666 LINE",
"309 640 OFFCURVE",
"309 574 OFFCURVE",
"302 526 CURVE SMOOTH",
"248 156 LINE SMOOTH",
"244 131 OFFCURVE",
"226 71 OFFCURVE",
"220 47 CURVE",
"283 83 LINE",
"149 60 LINE",
"145 -5 LINE"
);
},
{
closed = 1;
nodes = (
"149 530 OFFCURVE",
"163 580 OFFCURVE",
"167 590 CURVE SMOOTH",
"170 596 OFFCURVE",
"195 649 OFFCURVE",
"208 677 CURVE",
"136 623 LINE",
"166 625 OFFCURVE",
"230 630 OFFCURVE",
"264 630 CURVE SMOOTH",
"511 630 LINE SMOOTH",
"541 630 OFFCURVE",
"586 626 OFFCURVE",
"614 623 CURVE",
"572 678 LINE",
"581 651 OFFCURVE",
"595 599 OFFCURVE",
"596 589 CURVE SMOOTH",
"597 577 OFFCURVE",
"595 530 OFFCURVE",
"595 511 CURVE",
"662 516 LINE",
"679 692 LINE",
"663 710 LINE",
"624 708 OFFCURVE",
"566 705 OFFCURVE",
"548 705 CURVE SMOOTH",
"245 705 LINE SMOOTH",
"228 705 OFFCURVE",
"170 708 OFFCURVE",
"133 710 CURVE",
"110 692 LINE",
"78 516 LINE",
"145 511 LINE"
);
}
);
width = 664;
}
);
leftKerningGroup = T;
rightKerningGroup = T;
unicode = 0054;
},
{
glyphname = Thorn;
layers = (
{
anchors = (
{
name = bottom;
position = "{243.672, 0}";
},
{
name = top;
position = "{330.235, 705}";
}
);
background = {
components = (
{
name = I;
}
);
paths = (
{
closed = 1;
nodes = (
"196 150 OFFCURVE",
"227 149 OFFCURVE",
"254 149 CURVE SMOOTH",
"396 149 OFFCURVE",
"526 237 OFFCURVE",
"526 398 CURVE SMOOTH",
"526 514 OFFCURVE",
"456 573 OFFCURVE",
"338 573 CURVE SMOOTH",
"308 573 OFFCURVE",
"265 570 OFFCURVE",
"228 567 CURVE",
"221 517 LINE",
"248 520 OFFCURVE",
"274 523 OFFCURVE",
"289 523 CURVE SMOOTH",
"379 523 OFFCURVE",
"434 477 OFFCURVE",
"434 388 CURVE SMOOTH",
"434 263 OFFCURVE",
"355 199 OFFCURVE",
"241 199 CURVE SMOOTH",
"225 199 OFFCURVE",
"200 201 OFFCURVE",
"176 204 CURVE",
"168 151 LINE"
);
}
);
};
layerId = "08C09966-8326-41C9-AE3D-74AAC6FC1D13";
paths = (
{
closed = 1;
nodes = (
"54 -3 OFFCURVE",
"119 0 OFFCURVE",
"144 0 CURVE SMOOTH",
"267 0 LINE",
"281 54 LINE",
"160 64 LINE",
"196 28 LINE",
"194 59 OFFCURVE",
"200 130 OFFCURVE",
"205 167 CURVE SMOOTH",
"259 538 LINE SMOOTH",
"265 579 OFFCURVE",
"283 655 OFFCURVE",
"290 680 CURVE",
"245 641 LINE",
"357 651 LINE",
"362 710 LINE",
"318 708 OFFCURVE",
"264 705 OFFCURVE",
"230 705 CURVE SMOOTH",
"212 705 OFFCURVE",
"153 708 OFFCURVE",
"115 710 CURVE",
"102 656 LINE",
"211 638 LINE",
"175 680 LINE",
"176 656 OFFCURVE",
"175 588 OFFCURVE",
"172 568 CURVE SMOOTH",
"109 137 LINE SMOOTH",
"106 117 OFFCURVE",
"87 51 OFFCURVE",
"80 24 CURVE",
"126 68 LINE",
"11 45 LINE",
"9 -5 LINE"
);
},
{
closed = 1;
nodes = (
"396 166 OFFCURVE",
"524 245 OFFCURVE",
"524 389 CURVE SMOOTH",
"524 496 OFFCURVE",
"456 555 OFFCURVE",
"330 555 CURVE SMOOTH",
"304 555 OFFCURVE",
"261 553 OFFCURVE",
"226 551 CURVE",
"219 501 LINE",
"247 503 OFFCURVE",
"272 505 OFFCURVE",
"285 505 CURVE SMOOTH",
"377 505 OFFCURVE",
"432 461 OFFCURVE",
"432 382 CURVE SMOOTH",
"432 273 OFFCURVE",
"354 216 OFFCURVE",
"242 216 CURVE SMOOTH",
"221 216 OFFCURVE",
"193 219 OFFCURVE",
"174 221 CURVE",
"166 168 LINE",
"193 167 OFFCURVE",
"233 166 OFFCURVE",
"255 166 CURVE SMOOTH"
);
}
);
width = 547;
},
{
anchors = (
{
name = bottom;
position = "{264.672, 0}";
},
{
name = top;
position = "{351.235, 705}";
}
);
background = {
components = (
{
name = I;
}
);
paths = (
{
closed = 1;
nodes = (
"237 147 OFFCURVE",
"267 147 OFFCURVE",
"291 147 CURVE SMOOTH",
"435 147 OFFCURVE",
"566 234 OFFCURVE",
"566 391 CURVE SMOOTH",
"566 506 OFFCURVE",
"489 571 OFFCURVE",
"369 571 CURVE SMOOTH",
"342 571 OFFCURVE",
"295 568 OFFCURVE",
"268 566 CURVE",
"258 495 LINE",
"274 496 OFFCURVE",
"297 497 OFFCURVE",
"305 497 CURVE SMOOTH",
"385 497 OFFCURVE",
"426 460 OFFCURVE",
"426 387 CURVE SMOOTH",
"426 278 OFFCURVE",
"357 221 OFFCURVE",
"254 221 CURVE SMOOTH",
"247 221 OFFCURVE",
"232 221 OFFCURVE",
"222 222 CURVE",
"212 147 LINE"
);
}
);
};
layerId = "B953D09C-6DD0-450A-A78C-8C2188DD4016";
paths = (
{
closed = 1;
nodes = (
"59 -3 OFFCURVE",
"127 0 OFFCURVE",
"156 0 CURVE SMOOTH",
"291 0 LINE",
"305 66 LINE",
"182 79 LINE",
"238 39 LINE",
"238 59 OFFCURVE",
"239 130 OFFCURVE",
"247 186 CURVE SMOOTH",
"298 541 LINE SMOOTH",
"303 574 OFFCURVE",
"322 639 OFFCURVE",
"329 666 CURVE",
"263 623 LINE",
"387 635 LINE",
"393 710 LINE",
"340 708 OFFCURVE",
"277 705 OFFCURVE",
"234 705 CURVE SMOOTH",
"215 705 OFFCURVE",
"155 708 OFFCURVE",
"115 710 CURVE",
"100 640 LINE",
"220 618 LINE",
"164 666 LINE",
"164 641 OFFCURVE",
"164 573 OFFCURVE",
"157 526 CURVE SMOOTH",
"103 156 LINE SMOOTH",
"99 130 OFFCURVE",
"82 73 OFFCURVE",
"75 47 CURVE",
"138 83 LINE",
"14 60 LINE",
"10 -5 LINE"
);
},
{
closed = 1;
nodes = (
"440 162 OFFCURVE",
"568 241 OFFCURVE",
"568 382 CURVE SMOOTH",
"568 488 OFFCURVE",
"491 552 OFFCURVE",
"365 552 CURVE SMOOTH",
"335 552 OFFCURVE",
"283 549 OFFCURVE",
"270 548 CURVE",
"260 477 LINE",
"272 477 OFFCURVE",
"289 477 OFFCURVE",
"298 477 CURVE SMOOTH",
"386 477 OFFCURVE",
"428 447 OFFCURVE",
"428 381 CURVE SMOOTH",
"428 287 OFFCURVE",
"360 238 OFFCURVE",
"259 238 CURVE SMOOTH",
"226 238 OFFCURVE",
"229 237 OFFCURVE",
"224 238 CURVE",
"214 163 LINE",
"286 163 OFFCURVE",
"269 162 OFFCURVE",
"297 162 CURVE SMOOTH"
);
}
);
width = 589;
}
);
leftKerningGroup = H;
rightKerningGroup = P;
unicode = 00DE;
},
{
glyphname = U;
layers = (
{
anchors = (
{
name = bottom;
position = "{327, 0}";
},
{
name = horn;
position = "{616, 460}";
},
{
name = ogonek;
position = "{440, 0}";
},
{
name = top;
position = "{444, 720}";
},
{
name = topright;
position = "{757, 705}";
}
);
background = {
anchors = (
{
name = bottom;
position = "{326, 0}";
},
{
name = horn;
position = "{620, 470}";
},
{
name = ogonek;
position = "{423, 0}";
},
{
name = top;
position = "{430, 705}";
}
);
paths = (
{
closed = 1;
nodes = (
"491 -15 OFFCURVE",
"588 95 OFFCURVE",
"613 266 CURVE SMOOTH",
"653 538 LINE SMOOTH",
"657 568 OFFCURVE",
"671 627 OFFCURVE",
"676 644 CURVE",
"753 651 LINE",
"757 710 LINE",
"757 710 OFFCURVE",
"694 705 OFFCURVE",
"634 705 CURVE SMOOTH",
"614 705 OFFCURVE",
"526 710 OFFCURVE",
"526 710 CURVE",
"513 656 LINE",
"587 644 LINE",
"587 630 OFFCURVE",
"588 583 OFFCURVE",
"586 568 CURVE SMOOTH",
"541 266 LINE SMOOTH",
"522 140 OFFCURVE",
"454 49 OFFCURVE",
"338 49 CURVE SMOOTH",
"228 49 OFFCURVE",
"185 139 OFFCURVE",
"204 266 CURVE SMOOTH",
"244 538 LINE SMOOTH",
"248 568 OFFCURVE",
"262 630 OFFCURVE",
"266 644 CURVE",
"342 651 LINE",
"347 710 LINE",
"347 710 OFFCURVE",
"275 705 OFFCURVE",
"215 705 CURVE SMOOTH",
"195 705 OFFCURVE",
"100 710 OFFCURVE",
"100 710 CURVE",
"87 656 LINE",
"160 644 LINE",
"160 631 OFFCURVE",
"159 583 OFFCURVE",
"157 568 CURVE SMOOTH",
"112 266 LINE SMOOTH",
"87 95 OFFCURVE",
"160 -15 OFFCURVE",
"324 -15 CURVE SMOOTH"
);
}
);
};
layerId = "08C09966-8326-41C9-AE3D-74AAC6FC1D13";
paths = (
{
closed = 1;
nodes = (
"490 -15 OFFCURVE",
"588 95 OFFCURVE",
"613 266 CURVE SMOOTH",
"653 538 LINE SMOOTH",
"658 575 OFFCURVE",
"679 657 OFFCURVE",
"683 674 CURVE",
"640 641 LINE",
"753 651 LINE",
"757 710 LINE",
"716 708 OFFCURVE",
"658 705 OFFCURVE",
"634 705 CURVE SMOOTH",
"616 705 OFFCURVE",
"562 708 OFFCURVE",
"526 710 CURVE",
"513 656 LINE",
"623 638 LINE",
"587 671 LINE",
"587 653 OFFCURVE",
"589 588 OFFCURVE",
"586 568 CURVE SMOOTH",
"541 266 LINE SMOOTH",
"522 140 OFFCURVE",
"454 49 OFFCURVE",
"338 49 CURVE SMOOTH",
"229 49 OFFCURVE",
"185 139 OFFCURVE",
"204 266 CURVE SMOOTH",
"244 538 LINE SMOOTH",
"249 575 OFFCURVE",
"269 656 OFFCURVE",
"273 675 CURVE",
"230 641 LINE",
"342 651 LINE",
"347 710 LINE",
"303 708 OFFCURVE",
"239 705 OFFCURVE",
"215 705 CURVE SMOOTH",
"197 705 OFFCURVE",
"138 708 OFFCURVE",
"100 710 CURVE",
"87 656 LINE",
"196 638 LINE",
"160 674 LINE",
"160 663 OFFCURVE",
"160 588 OFFCURVE",
"157 568 CURVE SMOOTH",
"112 266 LINE SMOOTH",
"87 99 OFFCURVE",
"157 -15 OFFCURVE",
"324 -15 CURVE SMOOTH"
);
}
);
width = 727;
},
{
anchors = (
{
name = bottom;
position = "{343, 0}";
},
{
name = horn;
position = "{633, 460}";
},
{
name = ogonek;
position = "{458, 0}";
},
{
name = top;
position = "{444, 720}";
},
{
name = topright;
position = "{787, 705}";
}
);
background = {
paths = (
{
closed = 1;
nodes = (
"529 -15 OFFCURVE",
"643 97 OFFCURVE",
"668 268 CURVE SMOOTH",
"708 542 LINE SMOOTH",
"711 562 OFFCURVE",
"724 608 OFFCURVE",
"729 623 CURVE",
"793 629 LINE",
"800 710 LINE",
"800 710 OFFCURVE",
"723 705 OFFCURVE",
"643 705 CURVE SMOOTH",
"624 705 OFFCURVE",
"534 710 OFFCURVE",
"534 710 CURVE",
"518 635 LINE",
"579 623 LINE",
"579 608 OFFCURVE",
"578 562 OFFCURVE",
"571 512 CURVE SMOOTH",
"534 260 LINE SMOOTH",
"520 160 OFFCURVE",
"477 99 OFFCURVE",
"377 99 CURVE SMOOTH",
"286 99 OFFCURVE",
"247 170 OFFCURVE",
"260 260 CURVE SMOOTH",
"302 542 LINE SMOOTH",
"305 562 OFFCURVE",
"318 608 OFFCURVE",
"323 623 CURVE",
"387 629 LINE",
"394 710 LINE",
"394 710 OFFCURVE",
"303 705 OFFCURVE",
"223 705 CURVE SMOOTH",
"193 705 OFFCURVE",
"100 710 OFFCURVE",
"100 710 CURVE",
"84 635 LINE",
"145 623 LINE",
"145 608 OFFCURVE",
"144 562 OFFCURVE",
"137 512 CURVE SMOOTH",
"102 268 LINE SMOOTH",
"77 97 OFFCURVE",
"156 -15 OFFCURVE",
"343 -15 CURVE SMOOTH"
);
}
);
};
layerId = "B953D09C-6DD0-450A-A78C-8C2188DD4016";
paths = (
{
closed = 1;
nodes = (
"517 -15 OFFCURVE",
"629 93 OFFCURVE",
"655 268 CURVE SMOOTH",
"695 541 LINE SMOOTH",
"700 574 OFFCURVE",
"717 634 OFFCURVE",
"726 664 CURVE",
"660 623 LINE",
"783 635 LINE",
"790 710 LINE",
"740 708 OFFCURVE",
"677 705 OFFCURVE",
"641 705 CURVE SMOOTH",
"622 705 OFFCURVE",
"568 708 OFFCURVE",
"532 710 CURVE",
"517 640 LINE",
"637 618 LINE",
"581 668 LINE",
"581 651 OFFCURVE",
"583 583 OFFCURVE",
"575 526 CURVE SMOOTH",
"536 261 LINE SMOOTH",
"520 155 OFFCURVE",
"472 87 OFFCURVE",
"368 87 CURVE SMOOTH",
"273 87 OFFCURVE",
"231 162 OFFCURVE",
"246 261 CURVE SMOOTH",
"288 541 LINE SMOOTH",
"293 575 OFFCURVE",
"312 637 OFFCURVE",
"319 665 CURVE",
"253 623 LINE",
"376 635 LINE",
"383 710 LINE",
"329 708 OFFCURVE",
"257 705 OFFCURVE",
"221 705 CURVE SMOOTH",
"203 705 OFFCURVE",
"140 708 OFFCURVE",
"100 710 CURVE",
"85 640 LINE",
"205 618 LINE",
"149 664 LINE",
"149 650 OFFCURVE",
"150 583 OFFCURVE",
"142 526 CURVE SMOOTH",
"105 267 LINE SMOOTH",
"81 99 OFFCURVE",
"155 -15 OFFCURVE",
"339 -15 CURVE SMOOTH"
);
}
);
width = 758;
}
);
leftKerningGroup = U;
rightKerningGroup = U;
unicode = 0055;
},
{
glyphname = Uacute;
layers = (
{
anchors = (
{
name = top;
position = "{482, 995}";
}
);
components = (
{
name = U;
}
);
layerId = "08C09966-8326-41C9-AE3D-74AAC6FC1D13";
paths = (
{
closed = 1;
nodes = (
"590 845 LINE",
"569 908 LINE",
"330 794 LINE",
"342 753 LINE"
);
}
);
width = 727;
},
{
anchors = (
{
name = top;
position = "{484, 1015}";
}
);
components = (
{
name = U;
}
);
layerId = "B953D09C-6DD0-450A-A78C-8C2188DD4016";
paths = (
{
closed = 1;
nodes = (
"597 831 LINE",
"574 907 LINE",
"323 804 LINE",
"341 752 LINE"
);
}
);
width = 758;
}
);
leftKerningGroup = U;
rightKerningGroup = U;
unicode = 00DA;
},
{
glyphname = Ucircumflex;
layers = (
{
anchors = (
{
name = top;
position = "{481, 995}";
}
);
components = (
{
name = U;
}
);
layerId = "08C09966-8326-41C9-AE3D-74AAC6FC1D13";
paths = (
{
closed = 1;
nodes = (
"505 840 LINE",
"478 879 LINE",
"437 879 LINE",
"284 789 LINE",
"302 753 LINE"
);
},
{
closed = 1;
nodes = (
"631 784 LINE",
"504 879 LINE",
"463 879 LINE",
"424 840 LINE",
"603 748 LINE"
);
}
);
width = 727;
},
{
anchors = (
{
name = top;
position = "{484, 1015}";
}
);
components = (
{
name = U;
}
);
layerId = "B953D09C-6DD0-450A-A78C-8C2188DD4016";
paths = (
{
closed = 1;
nodes = (
"643 787 LINE",
"520 892 LINE",
"457 892 LINE",
"416 841 LINE",
"603 742 LINE"
);
},
{
closed = 1;
nodes = (
"512 841 LINE",
"485 892 LINE",
"422 892 LINE",
"273 797 LINE",
"301 752 LINE"
);
}
);
width = 758;
}
);
leftKerningGroup = U;
rightKerningGroup = U;
unicode = 00DB;
},
{
glyphname = Ugrave;
layers = (
{
anchors = (
{
name = top;
position = "{472, 995}";
}
);
components = (
{
name = U;
}
);
layerId = "08C09966-8326-41C9-AE3D-74AAC6FC1D13";
paths = (
{
closed = 1;
nodes = (
"573 794 LINE",
"366 908 LINE",
"327 845 LINE",
"549 753 LINE"
);
}
);
width = 727;
},
{
anchors = (
{
name = top;
position = "{474, 1015}";
}
);
components = (
{
name = U;
}
);
layerId = "B953D09C-6DD0-450A-A78C-8C2188DD4016";
paths = (
{
closed = 1;
nodes = (
"583 804 LINE",
"362 907 LINE",
"317 831 LINE",
"551 752 LINE"
);
}
);
width = 758;
}
);
leftKerningGroup = U;
rightKerningGroup = U;
unicode = 00D9;
},
{
glyphname = V;
layers = (
{
anchors = (
{
name = bottom;
position = "{296, 0}";
},
{
name = top;
position = "{397, 720}";
}
);
background = {
paths = (
{
closed = 1;
nodes = (
"339 0 LINE",
"597 538 LINE SMOOTH",
"614 574 OFFCURVE",
"662 650 OFFCURVE",
"676 666 CURVE",
"624 639 LINE",
"706 651 LINE",
"711 710 LINE",
"673 708 OFFCURVE",
"614 705 OFFCURVE",
"596 705 CURVE SMOOTH",
"579 705 OFFCURVE",
"522 708 OFFCURVE",
"485 710 CURVE",
"471 655 LINE",
"598 638 LINE",
"568 664 LINE",
"564 648 OFFCURVE",
"547 589 OFFCURVE",
"537 568 CURVE SMOOTH",
"320 115 LINE",
"344 112 LINE",
"250 539 LINE SMOOTH",
"242 574 OFFCURVE",
"237 655 OFFCURVE",
"236 679 CURVE",
"202 641 LINE",
"327 651 LINE",
"331 710 LINE",
"285 708 OFFCURVE",
"218 705 OFFCURVE",
"192 705 CURVE SMOOTH",
"175 705 OFFCURVE",
"118 708 OFFCURVE",
"81 710 CURVE",
"68 656 LINE",
"154 639 LINE",
"108 674 LINE",
"115 655 OFFCURVE",
"141 587 OFFCURVE",
"145 568 CURVE SMOOTH",
"277 0 LINE"
);
}
);
};
layerId = "08C09966-8326-41C9-AE3D-74AAC6FC1D13";
paths = (
{
closed = 1;
nodes = (
"339 0 LINE",
"597 538 LINE SMOOTH",
"614 574 OFFCURVE",
"662 650 OFFCURVE",
"676 666 CURVE",
"624 639 LINE",
"686 651 LINE",
"691 710 LINE",
"653 708 OFFCURVE",
"614 705 OFFCURVE",
"596 705 CURVE SMOOTH",
"579 705 OFFCURVE",
"502 708 OFFCURVE",
"465 710 CURVE",
"451 655 LINE",
"598 638 LINE",
"568 664 LINE",
"564 648 OFFCURVE",
"547 589 OFFCURVE",
"537 568 CURVE SMOOTH",
"320 115 LINE",
"344 112 LINE",
"250 539 LINE SMOOTH",
"242 574 OFFCURVE",
"237 655 OFFCURVE",
"236 679 CURVE",
"202 641 LINE",
"347 651 LINE",
"351 710 LINE",
"305 708 OFFCURVE",
"218 705 OFFCURVE",
"192 705 CURVE SMOOTH",
"175 705 OFFCURVE",
"138 708 OFFCURVE",
"101 710 CURVE",
"88 656 LINE",
"154 639 LINE",
"108 674 LINE",
"115 655 OFFCURVE",
"141 587 OFFCURVE",
"145 568 CURVE SMOOTH",
"277 0 LINE"
);
}
);
width = 661;
},
{
anchors = (
{
name = bottom;
position = "{305, 0}";
},
{
name = top;
position = "{406, 720}";
}
);
background = {
paths = (
{
closed = 1;
nodes = (
"365 0 LINE",
"634 541 LINE SMOOTH",
"654 581 OFFCURVE",
"699 642 OFFCURVE",
"709 656 CURVE",
"634 620 LINE",
"724 635 LINE",
"731 710 LINE",
"684 708 OFFCURVE",
"618 705 OFFCURVE",
"592 705 CURVE SMOOTH",
"577 705 OFFCURVE",
"521 708 OFFCURVE",
"486 710 CURVE",
"470 640 LINE",
"606 617 LINE",
"562 660 LINE",
"556 639 OFFCURVE",
"523 553 OFFCURVE",
"511 527 CURVE SMOOTH",
"331 141 LINE",
"364 137 LINE",
"294 541 LINE SMOOTH",
"289 569 OFFCURVE",
"286 644 OFFCURVE",
"286 670 CURVE",
"231 623 LINE",
"357 635 LINE",
"363 710 LINE",
"309 708 OFFCURVE",
"235 705 OFFCURVE",
"200 705 CURVE SMOOTH",
"181 705 OFFCURVE",
"120 708 OFFCURVE",
"80 710 CURVE",
"65 640 LINE",
"179 618 LINE",
"117 652 LINE",
"122 634 OFFCURVE",
"143 560 OFFCURVE",
"150 526 CURVE SMOOTH",
"263 0 LINE"
);
}
);
};
layerId = "B953D09C-6DD0-450A-A78C-8C2188DD4016";
paths = (
{
closed = 1;
nodes = (
"365 0 LINE",
"634 541 LINE SMOOTH",
"654 581 OFFCURVE",
"699 642 OFFCURVE",
"709 656 CURVE",
"634 620 LINE",
"714 635 LINE",
"721 710 LINE",
"674 708 OFFCURVE",
"618 705 OFFCURVE",
"592 705 CURVE SMOOTH",
"577 705 OFFCURVE",
"511 708 OFFCURVE",
"476 710 CURVE",
"460 640 LINE",
"606 617 LINE",
"562 660 LINE",
"556 639 OFFCURVE",
"523 553 OFFCURVE",
"511 527 CURVE SMOOTH",
"331 141 LINE",
"364 137 LINE",
"294 541 LINE SMOOTH",
"289 569 OFFCURVE",
"286 644 OFFCURVE",
"286 670 CURVE",
"231 623 LINE",
"367 635 LINE",
"373 710 LINE",
"319 708 OFFCURVE",
"235 705 OFFCURVE",
"200 705 CURVE SMOOTH",
"181 705 OFFCURVE",
"140 708 OFFCURVE",
"100 710 CURVE",
"85 640 LINE",
"179 618 LINE",
"117 652 LINE",
"122 634 OFFCURVE",
"143 560 OFFCURVE",
"150 526 CURVE SMOOTH",
"263 0 LINE"
);
}
);
width = 690;
}
);
leftKerningGroup = V;
rightKerningGroup = V;
unicode = 0056;
},
{
glyphname = W;
layers = (
{
anchors = (
{
name = bottom;
position = "{466.672, 0}";
},
{
name = top;
position = "{553.235, 705}";
}
);
background = {
paths = (
{
closed = 1;
nodes = (
"1049 661 LINE",
"1052 710 LINE",
"1052 710 OFFCURVE",
"948 705 OFFCURVE",
"912 705 CURVE SMOOTH",
"883 705 OFFCURVE",
"824 705 OFFCURVE",
"824 705 CURVE",
"812 651 LINE",
"883 641 LINE",
"883 641 OFFCURVE",
"874 604 OFFCURVE",
"864 578 CURVE",
"683 148 LINE",
"599 685 LINE",
"545 685 LINE",
"314 148 LINE",
"260 533 LINE",
"253 584 OFFCURVE",
"250 641 OFFCURVE",
"250 641 CURVE",
"329 661 LINE",
"333 710 LINE",
"333 710 OFFCURVE",
"215 705 OFFCURVE",
"187 705 CURVE SMOOTH",
"154 705 OFFCURVE",
"82 705 OFFCURVE",
"82 705 CURVE",
"69 651 LINE",
"131 641 LINE",
"131 641 OFFCURVE",
"150 598 OFFCURVE",
"157 556 CURVE",
"255 0 LINE",
"317 0 LINE",
"535 506 LINE",
"624 0 LINE",
"685 0 LINE",
"922 545 LINE",
"940 584 OFFCURVE",
"981 644 OFFCURVE",
"981 644 CURVE"
);
}
);
};
layerId = "08C09966-8326-41C9-AE3D-74AAC6FC1D13";
paths = (
{
closed = 1;
nodes = (
"317 0 LINE",
"549 539 LINE",
"529 542 LINE",
"624 0 LINE",
"686 0 LINE",
"921 538 LINE SMOOTH",
"937 574 OFFCURVE",
"983 644 OFFCURVE",
"999 666 CURVE",
"947 639 LINE",
"1019 651 LINE",
"1024 710 LINE",
"986 708 OFFCURVE",
"937 705 OFFCURVE",
"919 705 CURVE SMOOTH",
"902 705 OFFCURVE",
"835 708 OFFCURVE",
"798 710 CURVE",
"784 655 LINE",
"921 638 LINE",
"891 664 LINE",
"887 648 OFFCURVE",
"869 589 OFFCURVE",
"860 568 CURVE SMOOTH",
"669 114 LINE",
"689 112 LINE",
"599 685 LINE",
"545 685 LINE",
"300 115 LINE",
"319 112 LINE",
"259 539 LINE SMOOTH",
"254 573 OFFCURVE",
"247 656 OFFCURVE",
"246 679 CURVE",
"212 641 LINE",
"347 651 LINE",
"351 710 LINE",
"305 708 OFFCURVE",
"228 705 OFFCURVE",
"202 705 CURVE SMOOTH",
"185 705 OFFCURVE",
"138 708 OFFCURVE",
"101 710 CURVE",
"88 656 LINE",
"164 639 LINE",
"118 674 LINE",
"125 655 OFFCURVE",
"151 587 OFFCURVE",
"154 568 CURVE SMOOTH",
"255 0 LINE"
);
}
);
width = 993;
},
{
anchors = (
{
name = bottom;
position = "{465.672, 0}";
},
{
name = top;
position = "{552.235, 705}";
}
);
background = {
paths = (
{
closed = 1;
nodes = (
"336 0 LINE",
"553 496 LINE",
"522 499 LINE",
"600 0 LINE",
"702 0 LINE",
"944 541 LINE SMOOTH",
"959 575 OFFCURVE",
"1001 638 OFFCURVE",
"1015 656 CURVE",
"944 620 LINE",
"1024 635 LINE",
"1031 710 LINE",
"984 708 OFFCURVE",
"928 705 OFFCURVE",
"902 705 CURVE SMOOTH",
"887 705 OFFCURVE",
"831 708 OFFCURVE",
"796 710 CURVE",
"780 640 LINE",
"916 617 LINE",
"872 660 LINE",
"866 638 OFFCURVE",
"834 549 OFFCURVE",
"825 526 CURVE SMOOTH",
"669 140 LINE",
"696 136 LINE",
"627 678 LINE",
"528 678 LINE",
"302 141 LINE",
"329 136 LINE",
"288 541 LINE SMOOTH",
"285 571 OFFCURVE",
"286 642 OFFCURVE",
"286 670 CURVE",
"231 623 LINE",
"357 635 LINE",
"363 710 LINE",
"309 708 OFFCURVE",
"235 705 OFFCURVE",
"200 705 CURVE SMOOTH",
"181 705 OFFCURVE",
"130 708 OFFCURVE",
"90 710 CURVE",
"75 640 LINE",
"179 618 LINE",
"117 652 LINE",
"123 631 OFFCURVE",
"138 559 OFFCURVE",
"144 526 CURVE SMOOTH",
"233 0 LINE"
);
}
);
};
layerId = "B953D09C-6DD0-450A-A78C-8C2188DD4016";
paths = (
{
closed = 1;
nodes = (
"336 0 LINE",
"553 496 LINE",
"522 499 LINE",
"600 0 LINE",
"702 0 LINE",
"944 541 LINE SMOOTH",
"959 575 OFFCURVE",
"1001 638 OFFCURVE",
"1015 656 CURVE",
"944 620 LINE",
"1014 635 LINE",
"1021 710 LINE",
"974 708 OFFCURVE",
"928 705 OFFCURVE",
"902 705 CURVE SMOOTH",
"887 705 OFFCURVE",
"821 708 OFFCURVE",
"786 710 CURVE",
"770 640 LINE",
"916 617 LINE",
"872 660 LINE",
"866 638 OFFCURVE",
"834 549 OFFCURVE",
"825 526 CURVE SMOOTH",
"669 140 LINE",
"696 136 LINE",
"627 678 LINE",
"528 678 LINE",
"302 141 LINE",
"329 136 LINE",
"288 541 LINE SMOOTH",
"285 571 OFFCURVE",
"286 642 OFFCURVE",
"286 670 CURVE",
"231 623 LINE",
"367 635 LINE",
"373 710 LINE",
"319 708 OFFCURVE",
"235 705 OFFCURVE",
"200 705 CURVE SMOOTH",
"181 705 OFFCURVE",
"140 708 OFFCURVE",
"100 710 CURVE",
"85 640 LINE",
"179 618 LINE",
"117 652 LINE",
"123 631 OFFCURVE",
"138 559 OFFCURVE",
"144 526 CURVE SMOOTH",
"233 0 LINE"
);
}
);
width = 991;
}
);
leftKerningGroup = V;
rightKerningGroup = V;
unicode = 0057;
},
{
glyphname = X;
layers = (
{
anchors = (
{
name = bottom;
position = "{337.672, 0}";
},
{
name = top;
position = "{424.235, 705}";
}
);
background = {
paths = (
{
closed = 1;
nodes = (
"333 355 LINE",
"180 167 LINE SMOOTH",
"155 137 OFFCURVE",
"99 86 OFFCURVE",
"72 61 CURVE",
"10 44 LINE",
"7 -5 LINE",
"7 -5 OFFCURVE",
"127 0 OFFCURVE",
"152 0 CURVE",
"248 0 LINE",
"260 54 LINE",
"185 64 LINE",
"199 87 OFFCURVE",
"221 122 OFFCURVE",
"233 137 CURVE SMOOTH",
"363 301 LINE",
"435 167 LINE SMOOTH",
"451 137 OFFCURVE",
"472 91 OFFCURVE",
"479 64 CURVE",
"404 44 LINE",
"402 -5 LINE",
"402 -5 OFFCURVE",
"539 0 OFFCURVE",
"564 0 CURVE SMOOTH",
"583 0 OFFCURVE",
"659 0 OFFCURVE",
"659 0 CURVE",
"671 54 LINE",
"610 64 LINE",
"593 86 OFFCURVE",
"566 122 OFFCURVE",
"558 137 CURVE SMOOTH",
"432 368 LINE",
"562 538 LINE SMOOTH",
"585 568 OFFCURVE",
"645 623 OFFCURVE",
"670 644 CURVE",
"739 651 LINE",
"744 710 LINE",
"744 710 OFFCURVE",
"668 705 OFFCURVE",
"618 705 CURVE SMOOTH",
"588 705 OFFCURVE",
"509 709 OFFCURVE",
"499 710 CURVE",
"485 655 LINE",
"558 643 LINE",
"544 621 OFFCURVE",
"521 584 OFFCURVE",
"509 568 CURVE SMOOTH",
"401 422 LINE",
"339 538 LINE SMOOTH",
"323 568 OFFCURVE",
"307 620 OFFCURVE",
"301 644 CURVE",
"379 651 LINE",
"383 710 LINE",
"383 710 OFFCURVE",
"300 705 OFFCURVE",
"240 705 CURVE SMOOTH",
"210 705 OFFCURVE",
"115 710 OFFCURVE",
"115 710 CURVE",
"102 656 LINE",
"175 646 LINE",
"188 624 OFFCURVE",
"208 587 OFFCURVE",
"218 568 CURVE SMOOTH"
);
}
);
};
layerId = "08C09966-8326-41C9-AE3D-74AAC6FC1D13";
paths = (
{
closed = 1;
nodes = (
"55 -3 OFFCURVE",
"124 0 OFFCURVE",
"152 0 CURVE SMOOTH",
"248 0 LINE",
"260 54 LINE",
"149 69 LINE",
"176 48 LINE",
"185 66 OFFCURVE",
"218 118 OFFCURVE",
"233 137 CURVE SMOOTH",
"386 330 LINE",
"346 333 LINE",
"435 167 LINE SMOOTH",
"454 131 OFFCURVE",
"481 70 OFFCURVE",
"481 49 CURVE",
"514 73 LINE",
"404 44 LINE",
"402 -5 LINE",
"456 -3 OFFCURVE",
"530 0 OFFCURVE",
"564 0 CURVE SMOOTH",
"659 0 LINE",
"671 54 LINE",
"574 70 LINE",
"621 50 LINE",
"608 65 OFFCURVE",
"568 118 OFFCURVE",
"558 137 CURVE SMOOTH",
"415 400 LINE",
"410 339 LINE",
"562 538 LINE SMOOTH",
"589 573 OFFCURVE",
"664 639 OFFCURVE",
"679 651 CURVE",
"634 640 LINE",
"739 651 LINE",
"744 710 LINE",
"702 708 OFFCURVE",
"650 705 OFFCURVE",
"618 705 CURVE SMOOTH",
"588 705 OFFCURVE",
"539 708 OFFCURVE",
"499 710 CURVE",
"485 655 LINE",
"594 637 LINE",
"567 657 LINE",
"557 643 OFFCURVE",
"524 588 OFFCURVE",
"509 568 CURVE SMOOTH",
"379 393 LINE",
"418 390 LINE",
"339 538 LINE SMOOTH",
"320 574 OFFCURVE",
"301 643 OFFCURVE",
"299 655 CURVE",
"265 641 LINE",
"379 651 LINE",
"383 710 LINE",
"335 708 OFFCURVE",
"278 705 OFFCURVE",
"240 705 CURVE SMOOTH",
"208 705 OFFCURVE",
"157 708 OFFCURVE",
"115 710 CURVE",
"102 656 LINE",
"211 641 LINE",
"166 660 LINE",
"176 646 OFFCURVE",
"205 592 OFFCURVE",
"218 568 CURVE SMOOTH",
"350 323 LINE",
"356 383 LINE",
"180 167 LINE SMOOTH",
"151 131 OFFCURVE",
"83 71 OFFCURVE",
"61 51 CURVE",
"107 71 LINE",
"10 44 LINE",
"7 -5 LINE"
);
}
);
width = 736;
},
{
anchors = (
{
name = bottom;
position = "{343.672, 0}";
},
{
name = top;
position = "{430.235, 705}";
}
);
background = {
paths = (
{
closed = 1;
nodes = (
"636 85 OFFCURVE",
"605 129 OFFCURVE",
"598 143 CURVE SMOOTH",
"471 378 LINE",
"616 564 LINE SMOOTH",
"628 579 OFFCURVE",
"661 608 OFFCURVE",
"676 621 CURVE",
"747 629 LINE",
"754 710 LINE",
"754 710 OFFCURVE",
"679 705 OFFCURVE",
"619 705 CURVE",
"589 705 OFFCURVE",
"548 707 OFFCURVE",
"513 710 CURVE",
"497 633 LINE",
"532 626 LINE",
"520 606 OFFCURVE",
"498 576 OFFCURVE",
"488 562 CURVE SMOOTH",
"420 469 LINE",
"386 542 LINE SMOOTH",
"374 568 OFFCURVE",
"358 607 OFFCURVE",
"354 624 CURVE",
"392 628 LINE",
"399 710 LINE",
"399 710 OFFCURVE",
"299 705 OFFCURVE",
"239 705 CURVE SMOOTH",
"209 705 OFFCURVE",
"116 710 OFFCURVE",
"116 710 CURVE",
"100 635 LINE",
"150 625 LINE",
"161 608 OFFCURVE",
"188 561 OFFCURVE",
"198 543 CURVE SMOOTH",
"304 343 LINE",
"158 164 LINE SMOOTH",
"142 144 OFFCURVE",
"97 102 OFFCURVE",
"67 74 CURVE",
"15 65 LINE",
"10 -5 LINE",
"10 -5 OFFCURVE",
"104 0 OFFCURVE",
"134 0 CURVE SMOOTH",
"181 0 OFFCURVE",
"250 0 OFFCURVE",
"250 0 CURVE",
"265 71 LINE",
"222 76 LINE",
"235 97 OFFCURVE",
"248 119 OFFCURVE",
"259 132 CURVE SMOOTH",
"354 253 LINE",
"411 142 LINE SMOOTH",
"420 127 OFFCURVE",
"429 99 OFFCURVE",
"437 74 CURVE",
"396 66 LINE",
"390 -5 LINE",
"390 -5 OFFCURVE",
"508 0 OFFCURVE",
"538 0 CURVE SMOOTH",
"573 0 OFFCURVE",
"674 0 OFFCURVE",
"674 0 CURVE",
"688 71 LINE",
"643 76 LINE"
);
}
);
};
layerId = "B953D09C-6DD0-450A-A78C-8C2188DD4016";
paths = (
{
closed = 1;
nodes = (
"53 -3 OFFCURVE",
"116 0 OFFCURVE",
"139 0 CURVE SMOOTH",
"250 0 LINE",
"265 67 LINE",
"157 80 LINE",
"193 42 LINE",
"208 67 OFFCURVE",
"237 113 OFFCURVE",
"253 134 CURVE SMOOTH",
"392 310 LINE",
"331 315 LINE",
"418 148 LINE SMOOTH",
"432 121 OFFCURVE",
"452 65 OFFCURVE",
"459 40 CURVE",
"504 83 LINE",
"399 61 LINE",
"394 -5 LINE",
"444 -3 OFFCURVE",
"515 0 OFFCURVE",
"545 0 CURVE SMOOTH",
"671 0 LINE",
"685 67 LINE",
"579 80 LINE",
"645 57 LINE",
"609 108 OFFCURVE",
"599 124 OFFCURVE",
"589 141 CURVE SMOOTH",
"435 425 LINE",
"427 331 LINE",
"603 558 LINE SMOOTH",
"623 584 OFFCURVE",
"683 633 OFFCURVE",
"701 648 CURVE",
"619 621 LINE",
"746 635 LINE",
"752 710 LINE",
"708 708 OFFCURVE",
"646 705 OFFCURVE",
"620 705 CURVE SMOOTH",
"600 705 OFFCURVE",
"547 708 OFFCURVE",
"510 710 CURVE",
"495 639 LINE",
"595 620 LINE",
"560 664 LINE",
"547 640 OFFCURVE",
"509 585 OFFCURVE",
"494 564 CURVE SMOOTH",
"383 412 LINE",
"441 407 LINE",
"375 541 LINE SMOOTH",
"357 578 OFFCURVE",
"338 634 OFFCURVE",
"334 655 CURVE",
"285 623 LINE",
"390 634 LINE",
"396 710 LINE",
"344 708 OFFCURVE",
"274 705 OFFCURVE",
"240 705 CURVE SMOOTH",
"216 705 OFFCURVE",
"158 708 OFFCURVE",
"117 710 CURVE",
"101 640 LINE",
"213 620 LINE",
"141 656 LINE",
"164 621 OFFCURVE",
"188 577 OFFCURVE",
"204 549 CURVE SMOOTH",
"339 296 LINE",
"348 390 LINE",
"164 165 LINE SMOOTH",
"138 133 OFFCURVE",
"72 74 OFFCURVE",
"49 52 CURVE",
"124 82 LINE",
"14 60 LINE",
"10 -5 LINE"
);
}
);
width = 752;
}
);
leftKerningGroup = X;
rightKerningGroup = X;
unicode = 0058;
},
{
glyphname = Y;
layers = (
{
anchors = (
{
name = bottom;
position = "{284, 0}";
},
{
name = top;
position = "{385, 720}";
},
{
name = topleft;
position = "{96, 705}";
}
);
background = {
paths = (
{
closed = 1;
nodes = (
"194 -3 OFFCURVE",
"269 0 OFFCURVE",
"294 0 CURVE SMOOTH",
"427 0 LINE",
"441 54 LINE",
"310 64 LINE",
"346 28 LINE",
"344 59 OFFCURVE",
"350 130 OFFCURVE",
"355 167 CURVE SMOOTH",
"376 312 LINE",
"285 312 LINE",
"259 137 LINE SMOOTH",
"256 117 OFFCURVE",
"237 51 OFFCURVE",
"230 24 CURVE",
"276 68 LINE",
"151 45 LINE",
"149 -5 LINE"
);
},
{
closed = 1;
nodes = (
"567 575 OFFCURVE",
"628 649 OFFCURVE",
"641 666 CURVE",
"590 639 LINE",
"672 651 LINE",
"677 710 LINE",
"639 708 OFFCURVE",
"580 705 OFFCURVE",
"562 705 CURVE SMOOTH",
"545 705 OFFCURVE",
"488 708 OFFCURVE",
"451 710 CURVE",
"437 655 LINE",
"564 638 LINE",
"532 664 LINE",
"528 648 OFFCURVE",
"495 588 OFFCURVE",
"483 568 CURVE SMOOTH",
"325 313 LINE",
"357 310 LINE",
"270 539 LINE SMOOTH",
"260 565 OFFCURVE",
"244 653 OFFCURVE",
"244 679 CURVE",
"212 641 LINE",
"337 651 LINE",
"341 710 LINE",
"295 708 OFFCURVE",
"228 705 OFFCURVE",
"202 705 CURVE SMOOTH",
"185 705 OFFCURVE",
"128 708 OFFCURVE",
"91 710 CURVE",
"78 656 LINE",
"164 639 LINE",
"116 674 LINE",
"125 655 OFFCURVE",
"159 587 OFFCURVE",
"166 568 CURVE SMOOTH",
"286 236 LINE",
"347 236 LINE",
"543 538 LINE SMOOTH"
);
}
);
};
layerId = "08C09966-8326-41C9-AE3D-74AAC6FC1D13";
paths = (
{
closed = 1;
nodes = (
"347 236 LINE",
"543 538 LINE SMOOTH",
"567 575 OFFCURVE",
"628 649 OFFCURVE",
"641 666 CURVE",
"590 639 LINE",
"662 651 LINE",
"667 710 LINE",
"629 708 OFFCURVE",
"580 705 OFFCURVE",
"562 705 CURVE SMOOTH",
"545 705 OFFCURVE",
"488 708 OFFCURVE",
"451 710 CURVE",
"437 655 LINE",
"564 638 LINE",
"532 664 LINE",
"528 648 OFFCURVE",
"495 588 OFFCURVE",
"483 568 CURVE SMOOTH",
"325 313 LINE",
"357 310 LINE",
"270 539 LINE SMOOTH",
"260 565 OFFCURVE",
"244 653 OFFCURVE",
"244 679 CURVE",
"212 641 LINE",
"337 651 LINE",
"341 710 LINE",
"295 708 OFFCURVE",
"228 705 OFFCURVE",
"202 705 CURVE SMOOTH",
"185 705 OFFCURVE",
"138 708 OFFCURVE",
"101 710 CURVE",
"88 656 LINE",
"164 639 LINE",
"116 674 LINE",
"125 655 OFFCURVE",
"159 587 OFFCURVE",
"166 568 CURVE SMOOTH",
"286 236 LINE"
);
},
{
closed = 1;
nodes = (
"194 -3 OFFCURVE",
"269 0 OFFCURVE",
"294 0 CURVE SMOOTH",
"427 0 LINE",
"441 54 LINE",
"310 64 LINE",
"346 28 LINE",
"344 59 OFFCURVE",
"350 130 OFFCURVE",
"355 167 CURVE SMOOTH",
"376 312 LINE",
"285 312 LINE",
"259 137 LINE SMOOTH",
"256 117 OFFCURVE",
"237 51 OFFCURVE",
"230 24 CURVE",
"276 68 LINE",
"151 45 LINE",
"149 -5 LINE"
);
}
);
width = 636;
},
{
anchors = (
{
name = bottom;
position = "{308, 0}";
},
{
name = top;
position = "{409, 720}";
},
{
name = topleft;
position = "{95, 705}";
}
);
background = {
paths = (
{
closed = 1;
nodes = (
"219 -3 OFFCURVE",
"298 0 OFFCURVE",
"326 0 CURVE SMOOTH",
"471 0 LINE",
"485 66 LINE",
"352 79 LINE",
"408 39 LINE",
"408 62 OFFCURVE",
"409 132 OFFCURVE",
"417 186 CURVE SMOOTH",
"438 328 LINE",
"299 328 LINE",
"273 156 LINE SMOOTH",
"269 130 OFFCURVE",
"252 73 OFFCURVE",
"245 47 CURVE",
"308 83 LINE",
"174 60 LINE",
"170 -5 LINE"
);
},
{
closed = 1;
nodes = (
"635 575 OFFCURVE",
"692 640 OFFCURVE",
"704 656 CURVE",
"629 620 LINE",
"719 635 LINE",
"726 710 LINE",
"680 708 OFFCURVE",
"612 705 OFFCURVE",
"587 705 CURVE SMOOTH",
"572 705 OFFCURVE",
"516 708 OFFCURVE",
"481 710 CURVE",
"466 640 LINE",
"602 617 LINE",
"557 660 LINE",
"551 638 OFFCURVE",
"504 548 OFFCURVE",
"491 527 CURVE SMOOTH",
"357 315 LINE",
"406 310 LINE",
"317 556 LINE SMOOTH",
"310 575 OFFCURVE",
"300 647 OFFCURVE",
"300 670 CURVE",
"240 623 LINE",
"366 635 LINE",
"372 710 LINE",
"318 708 OFFCURVE",
"242 705 OFFCURVE",
"209 705 CURVE SMOOTH",
"189 705 OFFCURVE",
"130 708 OFFCURVE",
"90 710 CURVE",
"75 640 LINE",
"187 618 LINE",
"121 652 LINE",
"129 635 OFFCURVE",
"171 556 OFFCURVE",
"182 528 CURVE SMOOTH",
"303 218 LINE",
"405 218 LINE",
"613 541 LINE SMOOTH"
);
}
);
};
layerId = "B953D09C-6DD0-450A-A78C-8C2188DD4016";
paths = (
{
closed = 1;
nodes = (
"405 218 LINE",
"613 541 LINE SMOOTH",
"635 575 OFFCURVE",
"692 640 OFFCURVE",
"704 656 CURVE",
"629 620 LINE",
"709 635 LINE",
"716 710 LINE",
"670 708 OFFCURVE",
"612 705 OFFCURVE",
"587 705 CURVE SMOOTH",
"572 705 OFFCURVE",
"516 708 OFFCURVE",
"481 710 CURVE",
"466 640 LINE",
"602 617 LINE",
"557 660 LINE",
"551 638 OFFCURVE",
"504 548 OFFCURVE",
"491 527 CURVE SMOOTH",
"357 315 LINE",
"406 310 LINE",
"317 556 LINE SMOOTH",
"310 575 OFFCURVE",
"300 647 OFFCURVE",
"300 670 CURVE",
"240 623 LINE",
"366 635 LINE",
"372 710 LINE",
"318 708 OFFCURVE",
"242 705 OFFCURVE",
"209 705 CURVE SMOOTH",
"189 705 OFFCURVE",
"140 708 OFFCURVE",
"100 710 CURVE",
"85 640 LINE",
"187 618 LINE",
"121 652 LINE",
"129 635 OFFCURVE",
"171 556 OFFCURVE",
"182 528 CURVE SMOOTH",
"303 218 LINE"
);
},
{
closed = 1;
nodes = (
"219 -3 OFFCURVE",
"298 0 OFFCURVE",
"326 0 CURVE SMOOTH",
"471 0 LINE",
"485 66 LINE",
"352 79 LINE",
"408 39 LINE",
"408 62 OFFCURVE",
"409 132 OFFCURVE",
"417 186 CURVE SMOOTH",
"438 328 LINE",
"299 328 LINE",
"273 156 LINE SMOOTH",
"269 130 OFFCURVE",
"252 73 OFFCURVE",
"245 47 CURVE",
"308 83 LINE",
"174 60 LINE",
"170 -5 LINE"
);
}
);
width = 684;
}
);
leftKerningGroup = Y;
rightKerningGroup = Y;
unicode = 0059;
},
{
glyphname = Yacute;
layers = (
{
anchors = (
{
name = top;
position = "{423, 995}";
}
);
components = (
{
name = Y;
}
);
layerId = "08C09966-8326-41C9-AE3D-74AAC6FC1D13";
paths = (
{
closed = 1;
nodes = (
"531 845 LINE",
"510 908 LINE",
"271 794 LINE",
"283 753 LINE"
);
}
);
width = 636;
},
{
anchors = (
{
name = top;
position = "{449, 1015}";
}
);
components = (
{
name = Y;
}
);
layerId = "B953D09C-6DD0-450A-A78C-8C2188DD4016";
paths = (
{
closed = 1;
nodes = (
"562 831 LINE",
"539 907 LINE",
"288 804 LINE",
"306 752 LINE"
);
}
);
width = 684;
}
);
leftKerningGroup = Y;
rightKerningGroup = Y;
unicode = 00DD;
},
{
glyphname = Z;
layers = (
{
anchors = (
{
name = bottom;
position = "{249, 0}";
},
{
name = center;
position = "{309, 353}";
},
{
name = top;
position = "{350, 720}";
}
);
background = {
paths = (
{
closed = 1;
nodes = (
"469 661 LINE",
"443 620 OFFCURVE",
"411 568 OFFCURVE",
"389 538 CURVE SMOOTH",
"153 219 LINE SMOOTH",
"117 171 OFFCURVE",
"24 57 OFFCURVE",
"24 57 CURVE",
"23 0 LINE",
"139 48 LINE",
"217 167 LINE SMOOTH",
"455 494 LINE SMOOTH",
"484 534 OFFCURVE",
"538 597 OFFCURVE",
"581 649 CURVE",
"581 705 LINE"
);
},
{
closed = 1;
nodes = (
"23 0 LINE",
"362 0 LINE SMOOTH",
"382 0 OFFCURVE",
"472 -4 OFFCURVE",
"472 -4 CURVE",
"493 14 LINE",
"529 175 LINE",
"476 180 LINE",
"471 163 OFFCURVE",
"459 118 OFFCURVE",
"452 103 CURVE SMOOTH",
"448 94 OFFCURVE",
"438 80 OFFCURVE",
"427 66 CURVE",
"405 62 OFFCURVE",
"371 57 OFFCURVE",
"341 57 CURVE SMOOTH",
"75 57 LINE"
);
},
{
closed = 1;
nodes = (
"128 692 LINE",
"96 528 LINE",
"154 523 LINE",
"160 549 OFFCURVE",
"172 593 OFFCURVE",
"179 607 CURVE SMOOTH",
"185 619 OFFCURVE",
"195 632 OFFCURVE",
"203 644 CURVE",
"149 710 LINE"
);
},
{
closed = 1;
nodes = (
"506 649 LINE",
"581 705 LINE",
"259 705 LINE",
"240 705 OFFCURVE",
"149 710 OFFCURVE",
"149 710 CURVE",
"201 644 LINE",
"223 646 OFFCURVE",
"253 649 OFFCURVE",
"280 649 CURVE"
);
}
);
};
layerId = "08C09966-8326-41C9-AE3D-74AAC6FC1D13";
paths = (
{
closed = 1;
nodes = (
"493 14 LINE",
"529 175 LINE",
"476 180 LINE",
"471 163 OFFCURVE",
"459 118 OFFCURVE",
"452 103 CURVE SMOOTH",
"446 89 OFFCURVE",
"425 63 OFFCURVE",
"409 44 CURVE",
"471 74 LINE",
"453 70 OFFCURVE",
"379 57 OFFCURVE",
"341 57 CURVE SMOOTH",
"109 57 LINE",
"132 37 LINE",
"160 80 OFFCURVE",
"200 144 OFFCURVE",
"217 167 CURVE SMOOTH",
"455 494 LINE SMOOTH",
"484 534 OFFCURVE",
"543 603 OFFCURVE",
"581 649 CURVE",
"581 705 LINE",
"259 705 LINE SMOOTH",
"242 705 OFFCURVE",
"186 708 OFFCURVE",
"149 710 CURVE",
"128 692 LINE",
"96 528 LINE",
"154 523 LINE",
"160 546 OFFCURVE",
"172 592 OFFCURVE",
"179 607 CURVE SMOOTH",
"183 616 OFFCURVE",
"205 648 OFFCURVE",
"217 664 CURVE",
"185 643 LINE",
"196 644 OFFCURVE",
"246 649 OFFCURVE",
"280 649 CURVE SMOOTH",
"497 649 LINE",
"474 670 LINE",
"448 627 OFFCURVE",
"413 570 OFFCURVE",
"389 538 CURVE SMOOTH",
"153 219 LINE SMOOTH",
"133 192 OFFCURVE",
"68 109 OFFCURVE",
"24 57 CURVE",
"23 0 LINE",
"362 0 LINE SMOOTH",
"389 0 OFFCURVE",
"435 -2 OFFCURVE",
"472 -4 CURVE"
);
}
);
width = 588;
},
{
anchors = (
{
name = bottom;
position = "{278, 0}";
},
{
name = center;
position = "{328, 353}";
},
{
name = top;
position = "{369, 720}";
}
);
background = {
paths = (
{
closed = 1;
nodes = (
"426 616 LINE",
"407 582 OFFCURVE",
"388 546 OFFCURVE",
"366 516 CURVE SMOOTH",
"160 237 LINE SMOOTH",
"132 196 OFFCURVE",
"31 80 OFFCURVE",
"31 80 CURVE",
"30 0 LINE",
"407 0 LINE SMOOTH",
"427 0 OFFCURVE",
"518 -4 OFFCURVE",
"518 -4 CURVE",
"541 14 LINE",
"580 198 LINE",
"514 203 LINE",
"510 187 OFFCURVE",
"499 158 OFFCURVE",
"493 143 CURVE SMOOTH",
"491 137 OFFCURVE",
"480 118 OFFCURVE",
"467 97 CURVE",
"447 93 OFFCURVE",
"413 89 OFFCURVE",
"385 89 CURVE SMOOTH",
"236 89 LINE",
"260 130 OFFCURVE",
"284 172 OFFCURVE",
"313 212 CURVE SMOOTH",
"496 464 LINE SMOOTH",
"538 518 OFFCURVE",
"579 571 OFFCURVE",
"621 625 CURVE",
"622 705 LINE",
"251 705 LINE SMOOTH",
"232 705 OFFCURVE",
"141 715 OFFCURVE",
"141 715 CURVE",
"119 697 LINE",
"88 512 LINE",
"158 507 LINE",
"162 524 OFFCURVE",
"173 565 OFFCURVE",
"177 572 CURVE SMOOTH",
"199 611 LINE",
"219 613 OFFCURVE",
"249 616 OFFCURVE",
"279 616 CURVE SMOOTH"
);
}
);
};
layerId = "B953D09C-6DD0-450A-A78C-8C2188DD4016";
paths = (
{
closed = 1;
nodes = (
"531 14 LINE",
"569 192 LINE",
"506 197 LINE",
"502 181 OFFCURVE",
"491 148 OFFCURVE",
"485 134 CURVE SMOOTH",
"480 121 OFFCURVE",
"453 79 OFFCURVE",
"431 48 CURVE",
"510 98 LINE",
"487 93 OFFCURVE",
"417 81 OFFCURVE",
"376 81 CURVE SMOOTH",
"159 81 LINE",
"196 50 LINE",
"226 98 OFFCURVE",
"269 171 OFFCURVE",
"291 201 CURVE SMOOTH",
"489 471 LINE SMOOTH",
"522 516 OFFCURVE",
"566 572 OFFCURVE",
"613 631 CURVE",
"614 705 LINE",
"255 705 LINE SMOOTH",
"239 705 OFFCURVE",
"184 710 OFFCURVE",
"145 714 CURVE",
"123 696 LINE",
"92 516 LINE",
"159 511 LINE",
"164 532 OFFCURVE",
"175 571 OFFCURVE",
"179 580 CURVE SMOOTH",
"185 593 OFFCURVE",
"210 635 OFFCURVE",
"229 666 CURVE",
"175 618 LINE",
"186 618 OFFCURVE",
"238 624 OFFCURVE",
"281 624 CURVE SMOOTH",
"493 624 LINE",
"456 657 LINE",
"431 613 OFFCURVE",
"397 553 OFFCURVE",
"374 522 CURVE SMOOTH",
"160 232 LINE SMOOTH",
"133 195 OFFCURVE",
"83 136 OFFCURVE",
"31 74 CURVE",
"30 0 LINE",
"398 0 LINE SMOOTH",
"417 0 OFFCURVE",
"471 -2 OFFCURVE",
"508 -4 CURVE"
);
}
);
width = 625;
}
);
leftKerningGroup = Z;
rightKerningGroup = Z;
unicode = 005A;
},
{
glyphname = a;
layers = (
{
anchors = (
{
name = bottom;
position = "{217, 0}";
},
{
name = ogonek;
position = "{373, 0}";
},
{
name = top;
position = "{286, 494}";
}
);
background = {
anchors = (
{
name = bottom;
position = "{239, 0}";
},
{
name = ogonek;
position = "{359, 0}";
},
{
name = top;
position = "{319, 494}";
}
);
paths = (
{
closed = 1;
nodes = (
"480 65 LINE",
"391 70 LINE",
"396 228 OFFCURVE",
"423 351 OFFCURVE",
"457 488 CURVE",
"433 504 LINE",
"374 490 LINE",
"346 493 OFFCURVE",
"281 504 OFFCURVE",
"250 504 CURVE SMOOTH",
"154 504 OFFCURVE",
"28 294 OFFCURVE",
"29 139 CURVE SMOOTH",
"28 41 OFFCURVE",
"63 -11 OFFCURVE",
"128 -11 CURVE SMOOTH",
"201 -11 OFFCURVE",
"273 68 OFFCURVE",
"327 178 CURVE",
"313 68 OFFCURVE",
"298 0 OFFCURVE",
"298 0 CURVE",
"324 -15 LINE",
"477 29 LINE"
);
},
{
closed = 1;
nodes = (
"137 55 OFFCURVE",
"120 94 OFFCURVE",
"120 150 CURVE SMOOTH",
"120 272 OFFCURVE",
"187 446 OFFCURVE",
"236 446 CURVE SMOOTH",
"275 446 OFFCURVE",
"330 420 OFFCURVE",
"350 411 CURVE",
"332 257 OFFCURVE",
"223 55 OFFCURVE",
"164 55 CURVE SMOOTH"
);
}
);
};
layerId = "08C09966-8326-41C9-AE3D-74AAC6FC1D13";
paths = (
{
closed = 1;
nodes = (
"205 -10 OFFCURVE",
"284 83 OFFCURVE",
"337 202 CURVE",
"332 226 LINE",
"318 124 OFFCURVE",
"312 65 OFFCURVE",
"300 5 CURVE",
"325 -10 LINE",
"473 34 LINE",
"476 69 LINE",
"353 76 LINE",
"385 44 LINE",
"388 217 OFFCURVE",
"416 344 OFFCURVE",
"452 494 CURVE",
"429 508 LINE",
"354 491 LINE",
"352 441 LINE SMOOTH",
"346 285 OFFCURVE",
"219 49 OFFCURVE",
"161 49 CURVE SMOOTH",
"134 49 OFFCURVE",
"116 91 OFFCURVE",
"116 149 CURVE SMOOTH",
"116 269 OFFCURVE",
"185 456 OFFCURVE",
"235 456 CURVE SMOOTH",
"288 456 OFFCURVE",
"365 412 OFFCURVE",
"378 406 CURVE",
"381 494 LINE",
"361 495 OFFCURVE",
"284 508 OFFCURVE",
"249 508 CURVE SMOOTH",
"155 508 OFFCURVE",
"29 293 OFFCURVE",
"29 140 CURVE SMOOTH",
"29 41 OFFCURVE",
"64 -10 OFFCURVE",
"130 -10 CURVE SMOOTH"
);
}
);
width = 513;
},
{
anchors = (
{
name = bottom;
position = "{248, 0}";
},
{
name = ogonek;
position = "{406, 0}";
},
{
name = top;
position = "{318, 494}";
}
);
background = {
paths = (
{
closed = 1;
nodes = (
"530 77 LINE",
"389 90 LINE",
"450 35 LINE",
"454 212 OFFCURVE",
"482 348 OFFCURVE",
"516 482 CURVE",
"476 510 LINE",
"395 490 LINE",
"366 494 OFFCURVE",
"296 510 OFFCURVE",
"262 510 CURVE SMOOTH",
"146 510 OFFCURVE",
"30 309 OFFCURVE",
"30 137 CURVE SMOOTH",
"30 59 OFFCURVE",
"53 -18 OFFCURVE",
"110 -18 CURVE SMOOTH",
"218 -18 OFFCURVE",
"316 110 OFFCURVE",
"375 263 CURVE",
"357 251 LINE",
"365 193 OFFCURVE",
"290 0 OFFCURVE",
"290 0 CURVE",
"325 -18 LINE",
"526 24 LINE"
);
},
{
closed = 1;
nodes = (
"174 111 OFFCURVE",
"170 137 OFFCURVE",
"170 172 CURVE SMOOTH",
"170 289 OFFCURVE",
"210 404 OFFCURVE",
"245 404 CURVE SMOOTH",
"294 404 OFFCURVE",
"355 375 OFFCURVE",
"375 368 CURVE",
"356 435 LINE",
"349 270 OFFCURVE",
"247 111 OFFCURVE",
"197 111 CURVE SMOOTH"
);
}
);
};
layerId = "B953D09C-6DD0-450A-A78C-8C2188DD4016";
paths = (
{
closed = 1;
nodes = (
"218 -15 OFFCURVE",
"316 113 OFFCURVE",
"375 266 CURVE",
"363 282 LINE",
"361 198 OFFCURVE",
"320 86 OFFCURVE",
"290 3 CURVE",
"325 -15 LINE",
"526 27 LINE",
"530 80 LINE",
"389 93 LINE",
"450 38 LINE",
"454 215 OFFCURVE",
"482 351 OFFCURVE",
"516 485 CURVE",
"476 513 LINE",
"358 484 LINE",
"356 438 LINE SMOOTH",
"349 273 OFFCURVE",
"246 114 OFFCURVE",
"197 114 CURVE SMOOTH",
"174 114 OFFCURVE",
"170 140 OFFCURVE",
"170 175 CURVE SMOOTH",
"170 292 OFFCURVE",
"210 407 OFFCURVE",
"245 407 CURVE SMOOTH",
"299 407 OFFCURVE",
"370 372 OFFCURVE",
"380 370 CURVE",
"403 492 LINE",
"383 493 OFFCURVE",
"300 513 OFFCURVE",
"262 513 CURVE SMOOTH",
"146 513 OFFCURVE",
"30 312 OFFCURVE",
"30 140 CURVE SMOOTH",
"30 62 OFFCURVE",
"53 -15 OFFCURVE",
"110 -15 CURVE SMOOTH"
);
}
);
width = 568;
},
{
anchors = (
{
name = bottom;
position = "{234, 0}";
},
{
name = ogonek;
position = "{354, 0}";
},
{
name = top;
position = "{344, 494}";
}
);
associatedMasterId = "08C09966-8326-41C9-AE3D-74AAC6FC1D13";
layerId = "2BB0EAD0-FE7E-4B53-A89D-F18546BC0379";
name = "Regular Italic Jun 29 15, 13:28";
paths = (
{
closed = 1;
nodes = (
"468 65 LINE",
"379 70 LINE",
"406 228 OFFCURVE",
"451 351 OFFCURVE",
"504 488 CURVE",
"482 504 LINE",
"421 490 LINE",
"394 493 OFFCURVE",
"330 504 OFFCURVE",
"299 504 CURVE SMOOTH",
"203 504 OFFCURVE",
"48 294 OFFCURVE",
"27 139 CURVE SMOOTH",
"12 41 OFFCURVE",
"40 -11 OFFCURVE",
"105 -11 CURVE SMOOTH",
"178 -11 OFFCURVE",
"261 68 OFFCURVE",
"330 178 CURVE",
"301 68 OFFCURVE",
"276 0 OFFCURVE",
"276 0 CURVE",
"300 -15 LINE",
"459 29 LINE"
);
},
{
closed = 1;
nodes = (
"123 55 OFFCURVE",
"112 94 OFFCURVE",
"120 150 CURVE SMOOTH",
"137 272 OFFCURVE",
"228 446 OFFCURVE",
"277 446 CURVE SMOOTH",
"316 446 OFFCURVE",
"367 420 OFFCURVE",
"386 411 CURVE",
"347 257 OFFCURVE",
"209 55 OFFCURVE",
"150 55 CURVE SMOOTH"
);
}
);
width = 509;
},
{
anchors = (
{
name = bottom;
position = "{234, 0}";
},
{
name = ogonek;
position = "{354, 0}";
},
{
name = top;
position = "{344, 494}";
}
);
associatedMasterId = "08C09966-8326-41C9-AE3D-74AAC6FC1D13";
background = {
paths = (
{
closed = 1;
nodes = (
"468 65 LINE",
"379 70 LINE",
"401 228 OFFCURVE",
"441 351 OFFCURVE",
"490 488 CURVE",
"467 504 LINE",
"407 490 LINE",
"375 493 OFFCURVE",
"298 504 OFFCURVE",
"262 504 CURVE SMOOTH",
"173 504 OFFCURVE",
"39 294 OFFCURVE",
"25 139 CURVE SMOOTH",
"12 41 OFFCURVE",
"44 -11 OFFCURVE",
"113 -11 CURVE SMOOTH",
"184 -11 OFFCURVE",
"263 68 OFFCURVE",
"326 178 CURVE",
"301 68 OFFCURVE",
"279 0 OFFCURVE",
"279 0 CURVE",
"303 -15 LINE",
"461 29 LINE"
);
},
{
closed = 1;
nodes = (
"124 55 OFFCURVE",
"110 94 OFFCURVE",
"117 150 CURVE SMOOTH",
"128 272 OFFCURVE",
"201 446 OFFCURVE",
"244 446 CURVE SMOOTH",
"290 446 OFFCURVE",
"352 420 OFFCURVE",
"374 411 CURVE",
"342 257 OFFCURVE",
"214 55 OFFCURVE",
"156 55 CURVE SMOOTH"
);
}
);
};
layerId = "08E8A0F4-C412-4D66-8269-9F69A4671570";
name = "Regular Italic Jun 29 15, 13:31";
paths = (
{
closed = 1;
nodes = (
"468 65 LINE",
"379 70 LINE",
"406 228 OFFCURVE",
"451 351 OFFCURVE",
"504 488 CURVE",
"482 504 LINE",
"421 490 LINE",
"390 493 OFFCURVE",
"313 504 OFFCURVE",
"277 504 CURVE SMOOTH",
"188 504 OFFCURVE",
"46 294 OFFCURVE",
"27 139 CURVE SMOOTH",
"11 41 OFFCURVE",
"41 -11 OFFCURVE",
"110 -11 CURVE SMOOTH",
"181 -11 OFFCURVE",
"263 68 OFFCURVE",
"330 178 CURVE",
"301 68 OFFCURVE",
"276 0 OFFCURVE",
"276 0 CURVE",
"300 -15 LINE",
"459 29 LINE"
);
},
{
closed = 1;
nodes = (
"123 55 OFFCURVE",
"111 94 OFFCURVE",
"120 150 CURVE SMOOTH",
"135 272 OFFCURVE",
"214 446 OFFCURVE",
"257 446 CURVE SMOOTH",
"303 446 OFFCURVE",
"364 420 OFFCURVE",
"386 411 CURVE",
"348 257 OFFCURVE",
"213 55 OFFCURVE",
"155 55 CURVE SMOOTH"
);
}
);
width = 509;
}
);
leftKerningGroup = o;
rightKerningGroup = u;
unicode = 0061;
},
{
glyphname = aacute;
layers = (
{
anchors = (
{
name = top;
position = "{304, 660}";
}
);
components = (
{
name = a;
}
);
layerId = "08C09966-8326-41C9-AE3D-74AAC6FC1D13";
paths = (
{
closed = 1;
nodes = (
"419 691 LINE",
"380 743 LINE",
"209 578 LINE",
"243 543 LINE"
);
}
);
width = 513;
},
{
anchors = (
{
name = top;
position = "{356, 665}";
}
);
components = (
{
name = a;
}
);
layerId = "B953D09C-6DD0-450A-A78C-8C2188DD4016";
paths = (
{
closed = 1;
nodes = (
"457 702 LINE",
"410 768 LINE",
"231 586 LINE",
"271 543 LINE"
);
}
);
width = 568;
}
);
leftKerningGroup = o;
rightKerningGroup = u;
unicode = 00E1;
},
{
glyphname = acircumflex;
layers = (
{
anchors = (
{
name = top;
position = "{317, 710}";
}
);
components = (
{
name = a;
}
);
layerId = "08C09966-8326-41C9-AE3D-74AAC6FC1D13";
paths = (
{
closed = 1;
nodes = (
"377 664 LINE",
"349 700 LINE",
"312 700 LINE",
"145 570 LINE",
"171 540 LINE"
);
},
{
closed = 1;
nodes = (
"465 565 LINE",
"372 700 LINE",
"335 700 LINE",
"303 669 LINE",
"430 540 LINE"
);
}
);
width = 513;
},
{
anchors = (
{
name = top;
position = "{350, 720}";
}
);
components = (
{
name = a;
}
);
layerId = "B953D09C-6DD0-450A-A78C-8C2188DD4016";
paths = (
{
closed = 1;
nodes = (
"390 669 LINE",
"368 720 LINE",
"317 720 LINE",
"163 593 LINE",
"192 550 LINE"
);
},
{
closed = 1;
nodes = (
"509 584 LINE",
"390 720 LINE",
"337 720 LINE",
"299 669 LINE",
"465 540 LINE"
);
}
);
width = 568;
}
);
leftKerningGroup = o;
rightKerningGroup = u;
unicode = 00E2;
},
{
glyphname = ae;
layers = (
{
anchors = (
{
name = bottom;
position = "{311, 0}";
},
{
name = ogonek;
position = "{492, 0}";
},
{
name = top;
position = "{381, 494}";
}
);
background = {
paths = (
{
closed = 1;
nodes = (
"250 -13 OFFCURVE",
"378 186 OFFCURVE",
"406 339 CURVE SMOOTH",
"427 451 OFFCURVE",
"372 506 OFFCURVE",
"293 506 CURVE SMOOTH",
"227 506 OFFCURVE",
"144 467 OFFCURVE",
"77 389 CURVE",
"107 363 LINE",
"203 451 OFFCURVE",
"309 461 OFFCURVE",
"317 383 CURVE SMOOTH",
"321 344 OFFCURVE",
"314 295 OFFCURVE",
"309 268 CURVE SMOOTH",
"287 153 OFFCURVE",
"201 54 OFFCURVE",
"149 54 CURVE SMOOTH",
"103 54 OFFCURVE",
"105 131 OFFCURVE",
"118 166 CURVE SMOOTH",
"128 192 OFFCURVE",
"207 225 OFFCURVE",
"325 240 CURVE",
"326 290 LINE",
"259 278 LINE SMOOTH",
"132 255 OFFCURVE",
"23 227 OFFCURVE",
"14 139 CURVE SMOOTH",
"8 83 OFFCURVE",
"19 -13 OFFCURVE",
"108 -13 CURVE SMOOTH"
);
}
);
};
layerId = "08C09966-8326-41C9-AE3D-74AAC6FC1D13";
paths = (
{
closed = 1;
nodes = (
"253 -10 OFFCURVE",
"374 186 OFFCURVE",
"404 337 CURVE SMOOTH",
"426 446 OFFCURVE",
"374 509 OFFCURVE",
"291 509 CURVE SMOOTH",
"229 509 OFFCURVE",
"150 470 OFFCURVE",
"85 390 CURVE",
"114 365 LINE",
"208 456 OFFCURVE",
"307 467 OFFCURVE",
"317 386 CURVE SMOOTH",
"321 352 OFFCURVE",
"314 293 OFFCURVE",
"310 271 CURVE SMOOTH",
"289 153 OFFCURVE",
"199 52 OFFCURVE",
"146 52 CURVE SMOOTH",
"100 52 OFFCURVE",
"101 130 OFFCURVE",
"115 168 CURVE SMOOTH",
"124 193 OFFCURVE",
"211 228 OFFCURVE",
"324 242 CURVE",
"325 290 LINE",
"257 278 LINE SMOOTH",
"139 257 OFFCURVE",
"23 230 OFFCURVE",
"14 144 CURVE SMOOTH",
"8 87 OFFCURVE",
"18 -10 OFFCURVE",
"108 -10 CURVE SMOOTH"
);
},
{
closed = 1;
nodes = (
"491 -10 OFFCURVE",
"570 39 OFFCURVE",
"626 130 CURVE",
"594 153 LINE",
"545 86 OFFCURVE",
"487 50 OFFCURVE",
"439 50 CURVE SMOOTH",
"399 50 OFFCURVE",
"378 85 OFFCURVE",
"378 149 CURVE SMOOTH",
"378 269 OFFCURVE",
"450 450 OFFCURVE",
"500 450 CURVE SMOOTH",
"545 450 OFFCURVE",
"565 436 OFFCURVE",
"565 404 CURVE SMOOTH",
"565 333 OFFCURVE",
"483 272 OFFCURVE",
"363 255 CURVE",
"362 211 LINE",
"541 242 OFFCURVE",
"650 325 OFFCURVE",
"650 429 CURVE SMOOTH",
"650 481 OFFCURVE",
"598 508 OFFCURVE",
"504 508 CURVE SMOOTH",
"416 508 OFFCURVE",
"291 292 OFFCURVE",
"291 140 CURVE SMOOTH",
"291 41 OFFCURVE",
"332 -10 OFFCURVE",
"405 -10 CURVE SMOOTH"
);
}
);
width = 670;
},
{
anchors = (
{
name = bottom;
position = "{308, 0}";
},
{
name = ogonek;
position = "{505, 0}";
},
{
name = top;
position = "{378, 494}";
}
);
background = {
paths = (
{
closed = 1;
nodes = (
"223 -12 OFFCURVE",
"427 240 OFFCURVE",
"427 401 CURVE SMOOTH",
"427 491 OFFCURVE",
"389 509 OFFCURVE",
"315 509 CURVE SMOOTH",
"252 509 OFFCURVE",
"159 472 OFFCURVE",
"104 418 CURVE",
"145 372 LINE",
"207 418 OFFCURVE",
"314 445 OFFCURVE",
"314 378 CURVE SMOOTH",
"314 346 OFFCURVE",
"308 310 OFFCURVE",
"297 277 CURVE SMOOTH",
"268 190 OFFCURVE",
"224 111 OFFCURVE",
"177 111 CURVE SMOOTH",
"135 111 OFFCURVE",
"144 178 OFFCURVE",
"155 197 CURVE SMOOTH",
"168 219 OFFCURVE",
"222 246 OFFCURVE",
"331 256 CURVE",
"340 325 LINE",
"282 317 LINE SMOOTH",
"120 295 OFFCURVE",
"20 242 OFFCURVE",
"11 131 CURVE SMOOTH",
"6 72 OFFCURVE",
"22 -12 OFFCURVE",
"106 -12 CURVE SMOOTH"
);
},
{
closed = 1;
nodes = (
"497 -15 OFFCURVE",
"598 44 OFFCURVE",
"656 124 CURVE",
"610 164 LINE",
"574 127 OFFCURVE",
"512 82 OFFCURVE",
"470 82 CURVE SMOOTH",
"439 82 OFFCURVE",
"416 102 OFFCURVE",
"416 154 CURVE SMOOTH",
"416 270 OFFCURVE",
"463 416 OFFCURVE",
"511 416 CURVE SMOOTH",
"550 416 OFFCURVE",
"564 406 OFFCURVE",
"564 388 CURVE SMOOTH",
"564 332 OFFCURVE",
"495 263 OFFCURVE",
"379 253 CURVE",
"378 191 LINE",
"574 215 OFFCURVE",
"692 303 OFFCURVE",
"692 417 CURVE SMOOTH",
"692 476 OFFCURVE",
"636 506 OFFCURVE",
"531 506 CURVE SMOOTH",
"426 506 OFFCURVE",
"278 299 OFFCURVE",
"278 138 CURVE SMOOTH",
"278 28 OFFCURVE",
"339 -15 OFFCURVE",
"413 -15 CURVE SMOOTH"
);
}
);
};
layerId = "B953D09C-6DD0-450A-A78C-8C2188DD4016";
paths = (
{
closed = 1;
nodes = (
"221 -15 OFFCURVE",
"427 244 OFFCURVE",
"427 405 CURVE SMOOTH",
"427 495 OFFCURVE",
"389 513 OFFCURVE",
"315 513 CURVE SMOOTH",
"252 513 OFFCURVE",
"159 476 OFFCURVE",
"104 422 CURVE",
"145 376 LINE",
"207 422 OFFCURVE",
"314 449 OFFCURVE",
"314 382 CURVE SMOOTH",
"314 350 OFFCURVE",
"308 310 OFFCURVE",
"297 277 CURVE SMOOTH",
"268 190 OFFCURVE",
"222 108 OFFCURVE",
"175 108 CURVE SMOOTH",
"133 108 OFFCURVE",
"144 178 OFFCURVE",
"155 197 CURVE SMOOTH",
"168 219 OFFCURVE",
"222 246 OFFCURVE",
"331 256 CURVE",
"340 325 LINE",
"282 317 LINE SMOOTH",
"120 295 OFFCURVE",
"20 242 OFFCURVE",
"11 131 CURVE SMOOTH",
"6 72 OFFCURVE",
"20 -15 OFFCURVE",
"104 -15 CURVE SMOOTH"
);
},
{
closed = 1;
nodes = (
"497 -15 OFFCURVE",
"598 44 OFFCURVE",
"656 124 CURVE",
"610 164 LINE",
"574 127 OFFCURVE",
"512 82 OFFCURVE",
"470 82 CURVE SMOOTH",
"439 82 OFFCURVE",
"416 102 OFFCURVE",
"416 154 CURVE SMOOTH",
"416 270 OFFCURVE",
"466 423 OFFCURVE",
"514 423 CURVE SMOOTH",
"553 423 OFFCURVE",
"567 413 OFFCURVE",
"567 395 CURVE SMOOTH",
"567 339 OFFCURVE",
"495 263 OFFCURVE",
"379 253 CURVE",
"378 191 LINE",
"574 215 OFFCURVE",
"695 310 OFFCURVE",
"695 424 CURVE SMOOTH",
"695 483 OFFCURVE",
"639 513 OFFCURVE",
"534 513 CURVE SMOOTH",
"429 513 OFFCURVE",
"278 299 OFFCURVE",
"278 138 CURVE SMOOTH",
"278 28 OFFCURVE",
"339 -15 OFFCURVE",
"413 -15 CURVE SMOOTH"
);
}
);
width = 706;
}
);
leftKerningGroup = ae;
rightKerningGroup = e;
unicode = 00E6;
},
{
glyphname = agrave;
layers = (
{
anchors = (
{
name = top;
position = "{285, 660}";
}
);
components = (
{
name = a;
}
);
layerId = "08C09966-8326-41C9-AE3D-74AAC6FC1D13";
paths = (
{
closed = 1;
nodes = (
"375 579 LINE",
"206 743 LINE",
"166 691 LINE",
"343 543 LINE"
);
}
);
width = 513;
},
{
anchors = (
{
name = top;
position = "{329, 665}";
}
);
components = (
{
name = a;
}
);
layerId = "B953D09C-6DD0-450A-A78C-8C2188DD4016";
paths = (
{
closed = 1;
nodes = (
"421 585 LINE",
"242 767 LINE",
"194 701 LINE",
"381 543 LINE"
);
}
);
width = 568;
}
);
leftKerningGroup = o;
rightKerningGroup = u;
unicode = 00E0;
},
{
glyphname = atilde;
layers = (
{
anchors = (
{
name = top;
position = "{326, 630}";
}
);
components = (
{
name = a;
}
);
layerId = "08C09966-8326-41C9-AE3D-74AAC6FC1D13";
paths = (
{
closed = 1;
nodes = (
"195 560 OFFCURVE",
"228 612 OFFCURVE",
"255 612 CURVE SMOOTH",
"295 612 OFFCURVE",
"353 571 OFFCURVE",
"393 571 CURVE SMOOTH",
"433 571 OFFCURVE",
"490 670 OFFCURVE",
"490 670 CURVE",
"457 691 LINE",
"457 691 OFFCURVE",
"424 641 OFFCURVE",
"397 641 CURVE SMOOTH",
"357 641 OFFCURVE",
"298 682 OFFCURVE",
"258 682 CURVE SMOOTH",
"218 682 OFFCURVE",
"162 581 OFFCURVE",
"162 581 CURVE",
"195 560 LINE"
);
}
);
width = 513;
},
{
anchors = (
{
name = top;
position = "{339, 640}";
}
);
components = (
{
name = a;
}
);
layerId = "B953D09C-6DD0-450A-A78C-8C2188DD4016";
paths = (
{
closed = 1;
nodes = (
"212 560 OFFCURVE",
"243 602 OFFCURVE",
"267 602 CURVE SMOOTH",
"310 602 OFFCURVE",
"373 564 OFFCURVE",
"416 564 CURVE SMOOTH",
"459 564 OFFCURVE",
"518 665 OFFCURVE",
"518 665 CURVE",
"473 693 LINE",
"473 693 OFFCURVE",
"446 655 OFFCURVE",
"422 655 CURVE SMOOTH",
"380 655 OFFCURVE",
"314 693 OFFCURVE",
"272 693 CURVE SMOOTH",
"229 693 OFFCURVE",
"169 588 OFFCURVE",
"169 588 CURVE",
"212 560 LINE"
);
}
);
width = 568;
}
);
leftKerningGroup = o;
rightKerningGroup = u;
unicode = 00E3;
},
{
glyphname = b;
layers = (
{
anchors = (
{
name = bottom;
position = "{203, 0}";
},
{
name = top;
position = "{278, 494}";
}
);
background = {
paths = (
{
closed = 1;
nodes = (
"147 17 LINE",
"100 8 LINE",
"112 8 OFFCURVE",
"194 -10 OFFCURVE",
"228 -10 CURVE SMOOTH",
"321 -10 OFFCURVE",
"448 202 OFFCURVE",
"448 358 CURVE SMOOTH",
"448 457 OFFCURVE",
"413 507 OFFCURVE",
"349 507 CURVE SMOOTH",
"275 507 OFFCURVE",
"197 418 OFFCURVE",
"148 315 CURVE",
"159 322 LINE",
"178 453 OFFCURVE",
"202 582 OFFCURVE",
"231 751 CURVE",
"209 770 LINE",
"46 742 LINE",
"49 705 LINE",
"167 687 LINE",
"134 710 LINE",
"121 524 OFFCURVE",
"73 182 OFFCURVE",
"27 5 CURVE",
"52 -10 LINE"
);
},
{
closed = 1;
nodes = (
"131 212 OFFCURVE",
"255 450 OFFCURVE",
"317 450 CURVE SMOOTH",
"343 450 OFFCURVE",
"361 408 OFFCURVE",
"361 349 CURVE SMOOTH",
"361 226 OFFCURVE",
"292 43 OFFCURVE",
"242 43 CURVE SMOOTH",
"197 43 OFFCURVE",
"126 78 OFFCURVE",
"101 92 CURVE",
"125 56 LINE"
);
}
);
};
layerId = "08C09966-8326-41C9-AE3D-74AAC6FC1D13";
paths = (
{
closed = 1;
nodes = (
"147 17 LINE",
"100 8 LINE",
"112 8 OFFCURVE",
"194 -10 OFFCURVE",
"228 -10 CURVE SMOOTH",
"321 -10 OFFCURVE",
"448 202 OFFCURVE",
"448 358 CURVE SMOOTH",
"448 457 OFFCURVE",
"413 507 OFFCURVE",
"349 507 CURVE SMOOTH",
"275 507 OFFCURVE",
"197 418 OFFCURVE",
"148 315 CURVE",
"159 322 LINE",
"178 453 OFFCURVE",
"202 582 OFFCURVE",
"231 751 CURVE",
"209 770 LINE",
"46 742 LINE",
"49 705 LINE",
"167 687 LINE",
"134 710 LINE",
"121 524 OFFCURVE",
"73 182 OFFCURVE",
"27 5 CURVE",
"52 -10 LINE"
);
},
{
closed = 1;
nodes = (
"131 212 OFFCURVE",
"255 450 OFFCURVE",
"317 450 CURVE SMOOTH",
"343 450 OFFCURVE",
"361 408 OFFCURVE",
"361 349 CURVE SMOOTH",
"361 226 OFFCURVE",
"292 43 OFFCURVE",
"242 43 CURVE SMOOTH",
"197 43 OFFCURVE",
"126 78 OFFCURVE",
"101 92 CURVE",
"125 56 LINE"
);
}
);
width = 477;
},
{
anchors = (
{
name = bottom;
position = "{233, 0}";
},
{
name = top;
position = "{340, 756}";
}
);
background = {
paths = (
{
closed = 1;
nodes = (
"255 770 LINE",
"57 737 LINE",
"60 684 LINE",
"190 667 LINE",
"129 692 LINE",
"124 611 OFFCURVE",
"87 229 OFFCURVE",
"21 0 CURVE",
"56 -18 LINE",
"151 -3 LINE",
"184 -9 OFFCURVE",
"243 -21 OFFCURVE",
"273 -21 CURVE SMOOTH",
"389 -21 OFFCURVE",
"505 180 OFFCURVE",
"505 352 CURVE SMOOTH",
"505 430 OFFCURVE",
"482 507 OFFCURVE",
"425 507 CURVE SMOOTH",
"333 507 OFFCURVE",
"248 415 OFFCURVE",
"189 291 CURVE",
"207 302 LINE",
"226 426 OFFCURVE",
"257 578 OFFCURVE",
"289 742 CURVE"
);
},
{
closed = 1;
nodes = (
"242 84 OFFCURVE",
"170 116 OFFCURVE",
"130 134 CURVE",
"179 54 LINE",
"186 219 OFFCURVE",
"288 378 OFFCURVE",
"338 378 CURVE SMOOTH",
"361 378 OFFCURVE",
"364 352 OFFCURVE",
"364 317 CURVE SMOOTH",
"364 200 OFFCURVE",
"325 84 OFFCURVE",
"290 84 CURVE SMOOTH"
);
},
{
closed = 1;
nodes = (
"175 204 OFFCURVE",
"285 378 OFFCURVE",
"338 378 CURVE SMOOTH",
"360 378 OFFCURVE",
"364 352 OFFCURVE",
"364 317 CURVE SMOOTH",
"364 200 OFFCURVE",
"324 85 OFFCURVE",
"290 85 CURVE SMOOTH",
"250 85 OFFCURVE",
"199 105 OFFCURVE",
"174 116 CURVE",
"159 -4 LINE",
"192 -10 OFFCURVE",
"245 -21 OFFCURVE",
"272 -21 CURVE SMOOTH",
"388 -21 OFFCURVE",
"505 180 OFFCURVE",
"505 352 CURVE SMOOTH",
"505 430 OFFCURVE",
"481 507 OFFCURVE",
"425 507 CURVE SMOOTH",
"304 507 OFFCURVE",
"232 360 OFFCURVE",
"171 239 CURVE",
"179 241 LINE",
"198 332 OFFCURVE",
"235 422 OFFCURVE",
"257 479 CURVE",
"217 507 LINE",
"26 464 LINE",
"26 412 LINE",
"159 404 LINE",
"98 434 LINE",
"91 295 OFFCURVE",
"51 -44 OFFCURVE",
"-8 -262 CURVE",
"26 -280 LINE",
"142 -262 LINE",
"154 -153 OFFCURVE",
"166 -60 OFFCURVE",
"179 30 CURVE"
);
}
);
};
layerId = "B953D09C-6DD0-450A-A78C-8C2188DD4016";
paths = (
{
closed = 1;
nodes = (
"213 13 LINE",
"129 6 LINE",
"140 7 OFFCURVE",
"233 -15 OFFCURVE",
"273 -15 CURVE SMOOTH",
"389 -15 OFFCURVE",
"505 186 OFFCURVE",
"505 358 CURVE SMOOTH",
"505 436 OFFCURVE",
"482 513 OFFCURVE",
"425 513 CURVE SMOOTH",
"333 513 OFFCURVE",
"243 412 OFFCURVE",
"179 247 CURVE",
"190 255 LINE",
"209 379 OFFCURVE",
"252 578 OFFCURVE",
"289 742 CURVE",
"255 770 LINE",
"57 737 LINE",
"60 684 LINE",
"190 667 LINE",
"129 692 LINE",
"124 611 OFFCURVE",
"87 232 OFFCURVE",
"21 3 CURVE",
"56 -15 LINE"
);
},
{
closed = 1;
nodes = (
"186 225 OFFCURVE",
"288 384 OFFCURVE",
"338 384 CURVE SMOOTH",
"361 384 OFFCURVE",
"364 358 OFFCURVE",
"364 323 CURVE SMOOTH",
"364 206 OFFCURVE",
"325 90 OFFCURVE",
"290 90 CURVE SMOOTH",
"242 90 OFFCURVE",
"170 122 OFFCURVE",
"130 140 CURVE",
"179 60 LINE"
);
}
);
width = 535;
}
);
leftKerningGroup = h;
rightKerningGroup = o;
unicode = 0062;
},
{
glyphname = c;
layers = (
{
anchors = (
{
name = bottom;
position = "{144, 0}";
},
{
name = top;
position = "{278, 494}";
}
);
layerId = "08C09966-8326-41C9-AE3D-74AAC6FC1D13";
paths = (
{
closed = 1;
nodes = (
"228 -10 OFFCURVE",
"309 39 OFFCURVE",
"365 133 CURVE",
"334 155 LINE",
"285 87 OFFCURVE",
"229 50 OFFCURVE",
"178 50 CURVE SMOOTH",
"139 50 OFFCURVE",
"117 85 OFFCURVE",
"117 150 CURVE SMOOTH",
"117 266 OFFCURVE",
"184 444 OFFCURVE",
"230 444 CURVE SMOOTH",
"250 444 OFFCURVE",
"273 438 OFFCURVE",
"359 407 CURVE",
"313 455 LINE",
"321 326 LINE",
"356 324 LINE",
"394 471 LINE",
"380 494 LINE",
"306 503 OFFCURVE",
"255 508 OFFCURVE",
"232 508 CURVE SMOOTH",
"148 508 OFFCURVE",
"30 293 OFFCURVE",
"30 141 CURVE SMOOTH",
"30 44 OFFCURVE",
"68 -10 OFFCURVE",
"143 -10 CURVE SMOOTH"
);
}
);
width = 412;
},
{
anchors = (
{
name = bottom;
position = "{158, 0}";
},
{
name = top;
position = "{283, 494}";
}
);
annotations = (
{
position = "{257, 345}";
type = Text;
width = 99;
}
);
background = {
paths = (
{
closed = 1;
nodes = (
"155 503 OFFCURVE",
"26 295 OFFCURVE",
"26 135 CURVE SMOOTH",
"26 38 OFFCURVE",
"76 -18 OFFCURVE",
"159 -18 CURVE SMOOTH",
"244 -17 OFFCURVE",
"331 39 OFFCURVE",
"385 119 CURVE",
"338 159 LINE",
"289 110 OFFCURVE",
"248 83 OFFCURVE",
"215 83 CURVE SMOOTH",
"182 83 OFFCURVE",
"165 106 OFFCURVE",
"165 149 CURVE SMOOTH",
"165 267 OFFCURVE",
"209 405 OFFCURVE",
"248 405 CURVE SMOOTH",
"270 405 OFFCURVE",
"294 400 OFFCURVE",
"324 389 CURVE",
"324 295 LINE",
"379 292 LINE",
"414 455 LINE",
"389 494 LINE",
"359 498 OFFCURVE",
"292 503 OFFCURVE",
"254 503 CURVE SMOOTH"
);
}
);
};
layerId = "B953D09C-6DD0-450A-A78C-8C2188DD4016";
paths = (
{
closed = 1;
nodes = (
"244 -15 OFFCURVE",
"331 42 OFFCURVE",
"385 122 CURVE",
"338 162 LINE",
"289 113 OFFCURVE",
"248 86 OFFCURVE",
"215 86 CURVE SMOOTH",
"182 86 OFFCURVE",
"165 109 OFFCURVE",
"165 152 CURVE SMOOTH",
"165 270 OFFCURVE",
"211 415 OFFCURVE",
"250 415 CURVE SMOOTH",
"284 415 OFFCURVE",
"322 403 OFFCURVE",
"380 376 CURVE",
"326 462 LINE",
"326 305 LINE",
"381 302 LINE",
"416 465 LINE",
"391 504 LINE",
"361 508 OFFCURVE",
"294 513 OFFCURVE",
"256 513 CURVE SMOOTH",
"157 513 OFFCURVE",
"26 298 OFFCURVE",
"26 138 CURVE SMOOTH",
"26 41 OFFCURVE",
"76 -15 OFFCURVE",
"159 -15 CURVE SMOOTH"
);
}
);
width = 434;
}
);
leftKerningGroup = o;
rightKerningGroup = c;
unicode = 0063;
},
{
glyphname = ccedilla;
layers = (
{
anchors = (
{
name = _bottom;
position = "{144, 0}";
},
{
name = bottom;
position = "{119.747, -247}";
}
);
components = (
{
name = c;
}
);
layerId = "08C09966-8326-41C9-AE3D-74AAC6FC1D13";
paths = (
{
closed = 1;
nodes = (
"141 -247 OFFCURVE",
"201 -210 OFFCURVE",
"212 -137 CURVE SMOOTH",
"222 -72 OFFCURVE",
"179 -54 OFFCURVE",
"114 -41 CURVE",
"127 -97 LINE",
"179 17 LINE",
"130 17 LINE",
"90 -97 LINE",
"99 -103 LINE",
"124 -104 OFFCURVE",
"156 -111 OFFCURVE",
"152 -147 CURVE SMOOTH",
"147 -194 OFFCURVE",
"98 -209 OFFCURVE",
"48 -211 CURVE",
"54 -247 LINE"
);
}
);
width = 412;
},
{
anchors = (
{
name = _bottom;
position = "{158, 0}";
},
{
name = bottom;
position = "{143.39, -247}";
}
);
components = (
{
name = c;
}
);
layerId = "B953D09C-6DD0-450A-A78C-8C2188DD4016";
paths = (
{
closed = 1;
nodes = (
"161 -247 OFFCURVE",
"230 -209 OFFCURVE",
"240 -137 CURVE SMOOTH",
"249 -76 OFFCURVE",
"201 -49 OFFCURVE",
"134 -41 CURVE",
"148 -97 LINE",
"199 17 LINE",
"146 17 LINE",
"107 -97 LINE",
"121 -110 LINE",
"149 -111 OFFCURVE",
"167 -117 OFFCURVE",
"164 -146 CURVE SMOOTH",
"160 -186 OFFCURVE",
"115 -204 OFFCURVE",
"68 -206 CURVE",
"75 -247 LINE"
);
}
);
width = 434;
}
);
unicode = 00E7;
},
{
glyphname = d;
layers = (
{
anchors = (
{
name = bottom;
position = "{246, 0}";
},
{
name = center;
position = "{383, 608}";
},
{
name = top;
position = "{292, 494}";
},
{
name = topright;
position = "{540, 499}";
}
);
background = {
paths = (
{
closed = 1;
nodes = (
"475 29 LINE",
"478 64 LINE",
"354 71 LINE",
"389 49 LINE",
"385 293 OFFCURVE",
"440 510 OFFCURVE",
"480 752 CURVE",
"458 771 LINE",
"295 743 LINE",
"297 706 LINE",
"415 688 LINE",
"382 710 LINE",
"378 632 OFFCURVE",
"367 551 OFFCURVE",
"358 477 CURVE",
"352 441 LINE",
"346 286 OFFCURVE",
"224 49 OFFCURVE",
"161 49 CURVE SMOOTH",
"134 49 OFFCURVE",
"116 91 OFFCURVE",
"116 149 CURVE SMOOTH",
"116 269 OFFCURVE",
"185 456 OFFCURVE",
"235 456 CURVE SMOOTH",
"288 456 OFFCURVE",
"365 412 OFFCURVE",
"378 406 CURVE",
"381 494 LINE",
"361 495 OFFCURVE",
"284 508 OFFCURVE",
"249 508 CURVE SMOOTH",
"156 508 OFFCURVE",
"27 296 OFFCURVE",
"29 140 CURVE SMOOTH",
"30 41 OFFCURVE",
"63 -10 OFFCURVE",
"130 -10 CURVE SMOOTH",
"206 -10 OFFCURVE",
"284 83 OFFCURVE",
"337 202 CURVE",
"332 221 LINE",
"317 118 OFFCURVE",
"311 63 OFFCURVE",
"300 0 CURVE",
"325 -15 LINE"
);
}
);
};
layerId = "08C09966-8326-41C9-AE3D-74AAC6FC1D13";
paths = (
{
closed = 1;
nodes = (
"206 -10 OFFCURVE",
"284 83 OFFCURVE",
"337 202 CURVE",
"332 221 LINE",
"317 118 OFFCURVE",
"312 68 OFFCURVE",
"301 5 CURVE",
"326 -10 LINE",
"473 34 LINE",
"476 69 LINE",
"352 76 LINE",
"386 49 LINE",
"382 293 OFFCURVE",
"440 509 OFFCURVE",
"480 751 CURVE",
"458 770 LINE",
"295 742 LINE",
"297 705 LINE",
"415 687 LINE",
"382 710 LINE",
"378 632 OFFCURVE",
"367 551 OFFCURVE",
"358 477 CURVE",
"352 441 LINE",
"346 286 OFFCURVE",
"224 49 OFFCURVE",
"161 49 CURVE SMOOTH",
"134 49 OFFCURVE",
"116 91 OFFCURVE",
"116 149 CURVE SMOOTH",
"116 269 OFFCURVE",
"185 456 OFFCURVE",
"235 456 CURVE SMOOTH",
"288 456 OFFCURVE",
"365 412 OFFCURVE",
"378 406 CURVE",
"381 494 LINE",
"361 495 OFFCURVE",
"284 508 OFFCURVE",
"249 508 CURVE SMOOTH",
"156 508 OFFCURVE",
"27 296 OFFCURVE",
"29 140 CURVE SMOOTH",
"30 41 OFFCURVE",
"63 -10 OFFCURVE",
"130 -10 CURVE SMOOTH"
);
}
);
width = 513;
},
{
anchors = (
{
name = bottom;
position = "{245, 0}";
},
{
name = center;
position = "{412, 585}";
},
{
name = top;
position = "{354, 756}";
},
{
name = topright;
position = "{606, 494}";
}
);
background = {
paths = (
{
closed = 1;
nodes = (
"382 493 LINE",
"348 498 OFFCURVE",
"292 510 OFFCURVE",
"262 510 CURVE SMOOTH",
"146 510 OFFCURVE",
"30 309 OFFCURVE",
"30 137 CURVE SMOOTH",
"30 59 OFFCURVE",
"53 -18 OFFCURVE",
"110 -18 CURVE SMOOTH",
"206 -18 OFFCURVE",
"294 83 OFFCURVE",
"355 214 CURVE",
"336 124 OFFCURVE",
"321 83 OFFCURVE",
"290 0 CURVE",
"325 -18 LINE",
"526 24 LINE",
"530 77 LINE",
"444 85 LINE",
"459 211 OFFCURVE",
"491 458 OFFCURVE",
"549 742 CURVE",
"515 770 LINE",
"306 737 LINE",
"309 684 LINE",
"451 668 LINE",
"391 713 LINE",
"390 676 OFFCURVE",
"377 555 OFFCURVE",
"366 479 CURVE SMOOTH",
"353 400 LINE",
"335 248 OFFCURVE",
"243 111 OFFCURVE",
"197 111 CURVE SMOOTH",
"174 111 OFFCURVE",
"170 137 OFFCURVE",
"170 172 CURVE SMOOTH",
"170 289 OFFCURVE",
"210 404 OFFCURVE",
"245 404 CURVE SMOOTH",
"285 404 OFFCURVE",
"335 384 OFFCURVE",
"361 373 CURVE"
);
}
);
};
layerId = "B953D09C-6DD0-450A-A78C-8C2188DD4016";
paths = (
{
closed = 1;
nodes = (
"218 -15 OFFCURVE",
"316 113 OFFCURVE",
"375 266 CURVE",
"363 279 LINE",
"361 195 OFFCURVE",
"320 83 OFFCURVE",
"290 0 CURVE",
"325 -18 LINE",
"526 27 LINE",
"530 80 LINE",
"389 90 LINE",
"439 46 LINE",
"454 172 OFFCURVE",
"491 458 OFFCURVE",
"549 742 CURVE",
"515 770 LINE",
"306 737 LINE",
"309 684 LINE",
"451 668 LINE",
"391 713 LINE",
"390 676 OFFCURVE",
"378 555 OFFCURVE",
"366 479 CURVE",
"356 438 LINE",
"349 273 OFFCURVE",
"247 114 OFFCURVE",
"197 114 CURVE SMOOTH",
"174 114 OFFCURVE",
"170 140 OFFCURVE",
"170 175 CURVE SMOOTH",
"170 292 OFFCURVE",
"210 407 OFFCURVE",
"245 407 CURVE SMOOTH",
"299 407 OFFCURVE",
"370 372 OFFCURVE",
"380 370 CURVE",
"403 492 LINE",
"383 493 OFFCURVE",
"300 513 OFFCURVE",
"262 513 CURVE SMOOTH",
"146 513 OFFCURVE",
"30 312 OFFCURVE",
"30 140 CURVE SMOOTH",
"30 62 OFFCURVE",
"53 -15 OFFCURVE",
"110 -15 CURVE SMOOTH"
);
}
);
width = 567;
}
);
leftKerningGroup = o;
rightKerningGroup = l;
unicode = 0064;
},
